<?xml version="1.0" encoding="UTF-8"?>
<svg xmlns="http://www.w3.org/2000/svg" fill="none" viewBox="0 0 760 760" width="1920" height="1920"><path fill="#CCC" d="M516.663 168.886H406.889l1.109-16.005h109.775l-1.11 16.005zM516.663 191.306H406.889l1.109-16.005h109.775l-1.11 16.005zM516.663 213.741H406.889l1.109-16.02h109.775l-1.11 16.02zM516.663 236.161H406.889l1.109-16.02h109.775l-1.11 16.02zM516.663 258.581H406.889l1.109-16.02h109.775l-1.11 16.02zM516.663 281.002H406.889l1.109-16.006h109.775l-1.11 16.006zM516.663 303.422H406.889l1.109-16.006h109.775l-1.11 16.006zM516.663 325.857H406.889l1.109-16.021h109.775l-1.11 16.021zM516.663 348.277H406.889l1.109-16.021h109.775l-1.11 16.021zM516.663 370.697H406.889l1.109-16.021h109.775l-1.11 16.021zM516.663 393.117H406.889l1.109-16.021h109.775l-1.11 16.021zM632.746 168.886h-109.79l1.11-16.005h109.789l-1.109 16.005zM632.746 191.306h-109.79l1.11-16.005h109.789l-1.109 16.005zM632.746 213.741h-109.79l1.11-16.02h109.789l-1.109 16.02zM632.746 236.161h-109.79l1.11-16.02h109.789l-1.109 16.02zM632.746 258.581h-109.79l1.11-16.02h109.789l-1.109 16.02zM632.746 281.002h-109.79l1.11-16.006h109.789l-1.109 16.006zM632.746 303.422h-109.79l1.11-16.006h109.789l-1.109 16.006zM632.746 325.857h-109.79l1.11-16.021h109.789l-1.109 16.021zM632.746 348.277h-109.79l1.11-16.021h109.789l-1.109 16.021zM632.746 370.697h-109.79l1.11-16.021h109.789l-1.109 16.021zM632.746 393.117h-109.79l1.11-16.021h109.789l-1.109 16.021z"/><path fill="#92E3A9" d="M391.491 152H164.677v194.59h226.814V152z"/><path fill="#fff" d="M380.136 161.729h-204.12v175.134h204.12V161.729z"/><mask id="a" style="mask-type:luminance" width="205" height="176" x="176" y="161" maskUnits="userSpaceOnUse"><path fill="#fff" d="M380.136 161.729h-204.12v175.134h204.12V161.729z"/></mask><g mask="url(#a)"><path fill="#92E3A9" d="M380.136 214.822c-36.708 26.114-89.284 43.442-150.282 70.665a251.227 251.227 0 0 0-53.838 32.194v19.197h204.12V214.822zM380.137 161.729h-81.913a552.357 552.357 0 0 1-32.634 25.84c-46.619 34.184-26.418 68.4 29.533 43.502 28.713-12.753 60.679-42.286 85.014-68.02v-1.322zM211.28 181.366c0-14.272-17.769-3.04-35.188 11.309v36.039c16.948-16.628 35.188-34.58 35.188-47.348zM228.304 238.092a16.328 16.328 0 0 1-19.51 16.012 16.327 16.327 0 0 1-11.897-22.259 16.326 16.326 0 0 1 31.407 6.247z"/><path fill="#fff" d="M380.136 214.822c-36.708 26.114-89.284 43.442-150.282 70.665a251.227 251.227 0 0 0-53.838 32.194v19.197h204.12V214.822zM380.137 161.729h-81.913a552.357 552.357 0 0 1-32.634 25.84c-46.619 34.184-26.418 68.4 29.533 43.502 28.713-12.753 60.679-42.286 85.014-68.02v-1.322zM211.28 181.366c0-14.272-17.769-3.04-35.188 11.309v36.039c16.948-16.628 35.188-34.58 35.188-47.348zM228.304 238.092a16.328 16.328 0 0 1-19.51 16.012 16.327 16.327 0 0 1-11.897-22.259 16.326 16.326 0 0 1 31.407 6.247z" opacity=".75"/></g><path fill="#fff" d="M344.858 290.153a21.765 21.765 0 0 1-43.116 4.237 21.765 21.765 0 0 1 21.365-26.003 21.75 21.75 0 0 1 21.751 21.766z"/><path fill="#00963D" d="M651.685 553.098a34.219 34.219 0 0 0-7.722 16.051l-15.489 8.68v-41.04l.304.41 24.67-18.058c3.116.487 15.094 1.855 26.007-4.028 12.677-6.824 21.934-30.202 21.934-30.202s-30.218-3.42-40.448 9.257c-8.299 10.275-8.587 20.231-8.39 23.621l-24.077 17.616v-30.324a33.52 33.52 0 0 0 18.347-22.146c4.377-17.054-19-50.662-19-50.662s-24.32 34.596-19.502 52.136c4.135 14.851 15.2 19.563 18.529 20.657v65.74l-17.328-14.485c.395-3.466.714-14.304-8.938-25.156-11.704-13.164-42.879-12.16-42.879-12.16s13.148 26.311 24.32 35.081c9.789 7.6 23.302 4.56 26.555 3.633l18.24 15.2v19.988h-27.132l11.08 69.251h33.243l11.111-69.236h-26.646v-13.224l17.024-9.545c4.135 1.155 15.702 3.526 26.646-1.946 13.68-6.825 24.852-21.447 24.852-21.447s-32.634-8.284-45.311 6.338z"/><path fill="#212527" d="M620.965 343.87l-44.733.38s-3.04-.38-3.694 1.839c0 0-7.767 19.608-8.132 26.631-.365 7.022 1.52 5.912-1.52 15.2-3.04 9.287-11.461 31.053-16.264 48.807-6.46 23.849-8.147 49.172-8.557 73.796 0 3.952-2.432 38 3.724 38 5.107 0 52.181 6.247 52.744-2.827 2.264-36.176-4.272-71.516 8.284-106.689 4.879-13.68 10.472-28.09 14.622-42.378s4.864-29.153 7.6-43.776c1.839-10.093-4.074-8.983-4.074-8.983z"/><path fill="#FFE886" d="M625.358 348.308c-.441-5.168-4.393-4.439-4.393-4.439l-44.733.38s-3.04-.38-3.694 1.84c0 0-7.767 19.608-8.132 26.63a32.208 32.208 0 0 0 .152 5.563l.942 1.52s1.52 12.935 19.228 13.68c17.708.745 27.74-7.402 31.434-15.2 3.694-7.797 5.183-20.337 8.132-27.74.317-.762.672-1.508 1.064-2.234z"/><path fill="#FFE886" d="M614.977 362.748c-3.04 10.807-1.201 13.801-4.196 32.406-2.994 18.605-13.801 39.52-18.012 58.809-4.21 19.289-2.386 87.005-1.793 90.014a26.07 26.07 0 0 1 .258 4.819c2.022-.76 3.238-1.794 3.329-3.208 2.265-36.176-4.271-71.516 8.284-106.688 4.879-13.68 10.473-28.09 14.622-42.378 4.15-14.288 4.864-29.154 7.6-43.776 1.14-6.08-.653-8.071-2.219-8.664a80.547 80.547 0 0 0-7.873 18.666z"/><path fill="#212527" d="M528.564 635.786l-.304-.243v-41.769h6.004v-26.403h-22.192v26.403h5.989v42.484l-53.109 16.932v4.195a4.804 4.804 0 1 0 9.607 0v-.592l44.414-5.168v6.369a4.195 4.195 0 0 0 8.39 0v-6.582l46.208 5.381v.592a4.804 4.804 0 1 0 9.607 0v-4.195l-54.614-17.404z"/><path fill="#212527" d="M591.887 541.621h-131.89a6.08 6.08 0 0 0-6.08 6.08v18.468a6.08 6.08 0 0 0 6.08 6.08h131.89a6.08 6.08 0 0 0 6.08-6.08v-18.468a6.08 6.08 0 0 0-6.08-6.08zM72.717 343.87l44.733.38s3.04-.38 3.709 1.839c0 0 7.767 19.608 8.132 26.631.365 7.022-1.52 5.912 1.52 15.2 3.04 9.287 11.461 31.053 16.264 48.807 6.475 23.849 8.147 49.172 8.558 73.796 0 3.952 2.432 38-3.724 38-5.092 0-52.167 6.247-52.744-2.827-2.25-36.176 4.271-71.516-8.284-106.689-4.88-13.68-10.473-28.09-14.608-42.378-4.134-14.288-4.864-29.153-7.6-43.776-1.793-10.093 4.044-8.983 4.044-8.983z"/><path fill="#FFE886" d="M68.4 348.308c.44-5.168 4.377-4.439 4.377-4.439l44.734.38s3.04-.38 3.708 1.84c0 0 7.768 19.608 8.132 26.63a33.455 33.455 0 0 1-.167 5.563l-.942 1.52s-1.52 12.935-19.228 13.68c-17.708.745-27.786-7.402-31.495-15.215-3.708-7.813-5.168-20.338-8.132-27.74a20.915 20.915 0 0 0-.988-2.219z"/><path fill="#FFE886" d="M78.705 362.748c3.04 10.807 1.201 13.801 4.195 32.406 2.995 18.605 13.817 39.52 18.012 58.809 4.196 19.289 2.448 87.005 1.794 90.014a27.35 27.35 0 0 0-.258 4.819c-2.007-.76-3.238-1.794-3.33-3.208-2.249-36.176 4.272-71.516-8.283-106.688-4.88-13.68-10.473-28.09-14.607-42.378-4.135-14.288-4.864-29.154-7.6-43.776-1.125-6.08.668-8.071 2.219-8.664a79.796 79.796 0 0 1 7.858 18.666z"/><path fill="#212527" d="M165.117 635.786l.304-.243v-41.769h-6.08v-26.403h22.207v26.403h-6.004v42.484l53.109 16.932v4.195a4.804 4.804 0 1 1-9.607 0v-.592l-44.247-5.168v6.369a4.21 4.21 0 0 1-8.405 0v-6.582l-46.315 5.381v.592a4.808 4.808 0 0 1-1.305 3.57 4.81 4.81 0 0 1-3.49 1.504 4.81 4.81 0 0 1-4.511-3.154 4.79 4.79 0 0 1-.285-1.92v-4.195l54.629-17.404z"/><path fill="#212527" d="M101.794 572.234h131.891a6.08 6.08 0 0 0 6.08-6.08v-18.468a6.08 6.08 0 0 0-6.08-6.08H101.794a6.08 6.08 0 0 0-6.08 6.08v18.468a6.08 6.08 0 0 0 6.08 6.08z"/><path fill="#CCC" d="M565.44 455.605H204.288v207.572H565.44V455.605z"/><path fill="#212527" d="M565.166 460.59H204.47v5.745h360.696v-5.745z"/><path fill="#CCC" d="M568.115 452.201H196.247v9.075h371.868v-9.075z"/><path fill="#fff" d="M300.443 434.174s4.256 19.015 4.013 24.32c-.243 5.305-10.26 19.517-10.518 16.264a22.205 22.205 0 0 1 1.763-8.011s-3.511 4.758-4.758 4.56c-1.246-.197 1.004-6.764 1.004-6.764s-3.755 3.755-5.016 3.04c-1.262-.714 2.751-6.262 2.751-6.262s-4.56 4.758-4.743 3.253c-.182-1.505 3.998-7.752 3.998-7.752s-4.256-9.014-4.56-12.768a12.159 12.159 0 0 1 2.493-7.251l13.573-2.629z"/><mask id="b" style="mask-type:luminance" width="21" height="42" x="284" y="434" maskUnits="userSpaceOnUse"><path fill="#fff" d="M300.443 434.174s4.256 19.015 4.013 24.32c-.243 5.305-10.26 19.517-10.518 16.264a22.205 22.205 0 0 1 1.763-8.011s-3.511 4.758-4.758 4.56c-1.246-.197 1.004-6.764 1.004-6.764s-3.755 3.755-5.016 3.04c-1.262-.714 2.751-6.262 2.751-6.262s-4.56 4.758-4.743 3.253c-.182-1.505 3.998-7.752 3.998-7.752s-4.256-9.014-4.56-12.768a12.159 12.159 0 0 1 2.493-7.251l13.573-2.629z"/></mask><g mask="url(#b)"><path fill="#FFE0C4" d="M300.443 434.174s4.256 19.015 4.013 24.32c-.243 5.305-10.26 19.517-10.518 16.264a22.205 22.205 0 0 1 1.763-8.011s-3.511 4.758-4.758 4.56c-1.246-.197 1.004-6.764 1.004-6.764s-3.755 3.755-5.016 3.04c-1.262-.714 2.751-6.262 2.751-6.262s-4.56 4.758-4.743 3.253c-.182-1.505 3.998-7.752 3.998-7.752s-4.256-9.014-4.56-12.768a12.159 12.159 0 0 1 2.493-7.251l13.573-2.629z"/></g><path stroke="#212527" stroke-linecap="round" stroke-linejoin="round" d="M300.443 434.174s4.256 19.015 4.013 24.32c-.243 5.305-10.26 19.517-10.518 16.264a22.205 22.205 0 0 1 1.763-8.011s-3.511 4.758-4.758 4.56c-1.246-.197 1.004-6.764 1.004-6.764s-3.755 3.755-5.016 3.04c-1.262-.714 2.751-6.262 2.751-6.262s-4.56 4.758-4.743 3.253c-.182-1.505 3.998-7.752 3.998-7.752s-4.256-9.014-4.56-12.768a12.159 12.159 0 0 1 2.493-7.251l13.573-2.629z"/><path fill="#fff" d="M299.44 434.174s3.04 13.269 2.767 17.024c-.274 3.754-4.013 14.759-6.764 12.753-2.751-2.007 1.748-9.5 1.748-9.5s-7.722-5.427-9.5-10.519c-1.779-5.092-.76-7.25-.76-7.25l12.509-2.508z"/><mask id="c" style="mask-type:luminance" width="17" height="31" x="286" y="434" maskUnits="userSpaceOnUse"><path fill="#fff" d="M299.44 434.174s3.04 13.269 2.767 17.024c-.274 3.754-4.013 14.759-6.764 12.753-2.751-2.007 1.748-9.5 1.748-9.5s-7.722-5.427-9.5-10.519c-1.779-5.092-.76-7.25-.76-7.25l12.509-2.508z"/></mask><g mask="url(#c)"><path fill="#FFE0C4" d="M299.44 434.174s3.04 13.269 2.767 17.024c-.274 3.754-4.013 14.759-6.764 12.753-2.751-2.007 1.748-9.5 1.748-9.5s-7.722-5.427-9.5-10.519c-1.779-5.092-.76-7.25-.76-7.25l12.509-2.508z"/></g><path stroke="#212527" stroke-linecap="round" stroke-linejoin="round" d="M299.44 434.174s3.04 13.269 2.767 17.024c-.274 3.754-4.013 14.759-6.764 12.753-2.751-2.007 1.748-9.5 1.748-9.5s-7.722-5.427-9.5-10.519c-1.779-5.092-.76-7.25-.76-7.25l12.509-2.508z"/><path fill="#212527" stroke="#212527" stroke-linecap="round" stroke-linejoin="round" d="M290.275 371.99l10.655 63.46-15.018 3.39-15.017-48.929 19.38-17.921z"/><path fill="#212527" stroke="#212527" stroke-linecap="round" stroke-linejoin="round" d="M285.912 402.998s.973 75.574 2.417 95.927c1.444 20.353-3.876 47.485-8.71 55.237-4.834 7.752-26.174 56.24-25.202 59.113.973 2.873 5.336 11.628 5.336 14.045v10.168s24.213 15.991 26.159 15.991c1.945 0 4.362 3.876-.487 6.794-4.848 2.919-59.112 2.903-61.529.958a11.74 11.74 0 0 1-3.39-5.32s-7.752 2.903-7.265-4.363c.486-7.265 9.196-38.273 9.196-38.273s-5.32-33.927-3.39-55.723c1.93-21.797 8.725-47.972 8.725-53.292s-6.779-40.705-7.752-46.512c-.973-5.806-15.018-22.298-8.725-35.37 6.293-13.072 11.142-33.926 13.087-35.37 1.946-1.444 28.105-2.432 38.76 0 10.655 2.432 22.283 2.416 22.77 15.99z"/><path fill="#212527" d="M237.88 250.664s-8.284 7.417-9.713 9.986c-1.428 2.569-18.817 27.36-19.106 45.083-.289 17.724 12.859 71.319 12.859 71.319l-19.76 50.266 5.715 2.28 5.7-6.277v9.424s6.567 5.988 23.682 11.688 39.094-.851 39.094-.851l6.552-41.709v41.147l7.706-5.138.623-68.521s6.278-36.8 6.278-47.12c0-10.321-17.404-42.56-25.111-51.924-7.706-9.363-20.55-17.115-24.32-19.972-3.769-2.858-10.199.319-10.199.319z"/><mask id="d" style="mask-type:luminance" width="96" height="198" x="202" y="249" maskUnits="userSpaceOnUse"><path fill="#fff" d="M237.88 250.664s-8.284 7.417-9.713 9.986c-1.428 2.569-18.817 27.36-19.106 45.083-.289 17.724 12.859 71.319 12.859 71.319l-19.76 50.266 5.715 2.28 5.7-6.277v9.424s6.567 5.988 23.682 11.688 39.094-.851 39.094-.851l6.552-41.709v41.147l7.706-5.138.623-68.521s6.278-36.8 6.278-47.12c0-10.321-17.404-42.56-25.111-51.924-7.706-9.363-20.55-17.115-24.32-19.972-3.769-2.858-10.199.319-10.199.319z"/></mask><g mask="url(#d)"><path fill="#fff" d="M237.88 250.664s-8.284 7.417-9.713 9.986c-1.428 2.569-18.817 27.36-19.106 45.083-.289 17.724 12.859 71.319 12.859 71.319l-19.76 50.266 5.715 2.28 5.7-6.277v9.424s6.567 5.988 23.682 11.688 39.094-.851 39.094-.851l6.552-41.709v41.147l7.706-5.138.623-68.521s6.278-36.8 6.278-47.12c0-10.321-17.404-42.56-25.111-51.924-7.706-9.363-20.55-17.115-24.32-19.972-3.769-2.858-10.199.319-10.199.319z" opacity=".17"/><path stroke="#212527" stroke-linecap="round" stroke-linejoin="round" d="M213.499 311.418s10.366 7.342 17.267 9.926M216.524 319.201s11.659 3.04 17.693 3.04M233.366 388.238l32.802 3.892-2.159 6.9-30.217-3.45"/></g><path stroke="#212527" stroke-linecap="round" stroke-linejoin="round" d="M237.88 250.664s-8.284 7.417-9.713 9.986c-1.428 2.569-18.817 27.36-19.106 45.083-.289 17.724 12.859 71.319 12.859 71.319l-19.76 50.266 5.715 2.28 5.7-6.277v9.424s6.567 5.988 23.682 11.688 39.094-.851 39.094-.851l6.552-41.709v41.147l7.706-5.138.623-68.521s6.278-36.8 6.278-47.12c0-10.321-17.404-42.56-25.111-51.924-7.706-9.363-20.55-17.115-24.32-19.972-3.769-2.858-10.199.319-10.199.319z"/><path fill="#fff" stroke="#212527" stroke-linecap="round" stroke-linejoin="round" d="M236.162 252.32l31.677 34.246 18.544 35.386s-3.998-26.251-7.418-33.44c-3.42-7.19-18.832-25.004-20.565-29.002-1.733-3.998-22.238-7.19-22.238-7.19z"/><path fill="#212527" stroke="#212527" stroke-linecap="round" stroke-linejoin="round" d="M277.613 305.262l8.77 16.72s-2.721-17.891-5.609-28.151l-1.808-5.244a95.155 95.155 0 0 0-8.239-12.16l-4.97-.988 2.082 11.188 6.415 5.244 3.359 13.391z"/><path fill="#fff" stroke="#212527" stroke-linecap="round" stroke-linejoin="round" d="M269.162 265.227l1.641 1.9 5.153 6.08 3.04 15.443-13.209-13.179s1.733-7.949 3.375-10.244z"/><path fill="#FFE0C4" d="M284.103 201.584s6.932 5.32 7.798 10.457c.866 5.138-1.718 10.853-1.429 12.844.289 1.991 5.411 6.567 5.138 8.847-.274 2.28-4.56 3.131-4.56 3.131s-4.651 16.933-5.791 19.76c-1.14 2.827-6.856 1.991-11.127 1.429l-7.706 22.8-25.415-29.899 3.998-11.993s-10.838-13.117-11.704-27.101c-.866-13.984 10.275-23.682 26.25-25.673 15.976-1.991 29.397 5.7 31.1 8.846 1.702 3.147-6.552 6.552-6.552 6.552z"/><path stroke="#212527" stroke-linecap="round" stroke-linejoin="round" d="M284.103 201.584s6.932 5.32 7.798 10.457c.866 5.138-1.718 10.853-1.429 12.844.289 1.991 5.411 6.567 5.138 8.847-.274 2.28-4.56 3.131-4.56 3.131s-4.651 16.933-5.791 19.76c-1.14 2.827-6.856 1.991-11.127 1.429l-7.706 22.8-25.415-29.899 3.998-11.993s-10.838-13.117-11.704-27.101c-.866-13.984 10.275-23.682 26.25-25.673 15.976-1.991 29.397 5.7 31.1 8.846 1.702 3.147-6.552 6.552-6.552 6.552z"/><path fill="#212527" stroke="#212527" stroke-linecap="round" stroke-linejoin="round" d="M284.103 201.583s8.269-3.42 6.551-6.551c-1.718-3.131-15.124-10.853-31.099-8.846-15.975 2.006-27.102 11.688-26.251 25.672.852 13.984 11.704 27.102 11.704 27.102l-.608 1.824c5.913 2.888 12.024-1.824 12.024-1.824a5.888 5.888 0 0 1-3.614.551 5.888 5.888 0 0 1-3.242-1.691c-3.42-3.131-3.708-13.118.578-13.984 4.286-.866 7.129.866 7.129 3.998 0 3.131.851 1.14 3.146.851 2.295-.289.274-7.129 1.703-8.269a22.318 22.318 0 0 0 5.988-5.426c2.569-3.42-4.848-6.263-5.7-9.409-.851-3.147 21.691-3.998 21.691-3.998z"/><path stroke="#212527" stroke-linecap="round" stroke-linejoin="round" d="M286.14 223.867l-5.289 1.763h4.788M288.162 218.577s-2.265-3.268-4.788-1.763-2.767 2.523-2.767 2.523M282.72 241.498a7.43 7.43 0 0 0 5.289 1.216"/><path fill="#fff" stroke="#212527" stroke-linecap="round" stroke-linejoin="round" d="M239.871 245.527l31.951 31.388-2.843 13.407-33.957-36.526 4.849-8.269z"/><path fill="#FFE0C4" stroke="#212527" stroke-linecap="round" stroke-linejoin="round" d="M362.611 365.531s-11.248-6.688-13.072-6.08c-1.824.608-19.456 13.376-18.24 16.416 1.216 3.04 10.64 6.992 16.112 9.12 5.472 2.128 16.72-2.432 16.72-2.432l-1.52-17.024z"/><path fill="#fff" d="M329.84 363.099s9.728-5.472 11.248-5.472c1.52 0 10.336 7.904 10.336 7.904l-3.648 5.472s11.552 5.776 10.336 7.904c-1.216 2.128-5.776 5.472-10.64 6.08-4.864.608-18.544-8.208-18.544-8.208l.912-13.68z"/><mask id="e" style="mask-type:luminance" width="31" height="29" x="328" y="357" maskUnits="userSpaceOnUse"><path fill="#fff" d="M329.84 363.099s9.728-5.472 11.248-5.472c1.52 0 10.336 7.904 10.336 7.904l-3.648 5.472s11.552 5.776 10.336 7.904c-1.216 2.128-5.776 5.472-10.64 6.08-4.864.608-18.544-8.208-18.544-8.208l.912-13.68z"/></mask><g mask="url(#e)"><path fill="#FFE0C4" d="M329.84 363.099s9.728-5.472 11.248-5.472c1.52 0 10.336 7.904 10.336 7.904l-3.648 5.472s11.552 5.776 10.336 7.904c-1.216 2.128-5.776 5.472-10.64 6.08-4.864.608-18.544-8.208-18.544-8.208l.912-13.68z"/></g><path stroke="#212527" stroke-linecap="round" stroke-linejoin="round" d="M329.84 363.099s9.728-5.472 11.248-5.472c1.52 0 10.336 7.904 10.336 7.904l-3.648 5.472s11.552 5.776 10.336 7.904c-1.216 2.128-5.776 5.472-10.64 6.08-4.864.608-18.544-8.208-18.544-8.208l.912-13.68z"/><path fill="#fff" stroke="#212527" stroke-linecap="round" stroke-linejoin="round" d="M323.091 360.666l8.512 1.52-2.736 14.592-7.296-2.432 1.52-13.68z"/><path fill="#212527" d="M224.306 275.85s-8.208 15.808-9.12 23.712c-.912 7.904 32.528 70.832 34.96 72.96 2.432 2.128 73.553 4.256 73.553 4.256l3.04-15.504-60.8-17.328-20.672-63.536"/><mask id="f" style="mask-type:luminance" width="112" height="102" x="215" y="275" maskUnits="userSpaceOnUse"><path fill="#fff" d="M224.306 275.85s-8.208 15.808-9.12 23.712c-.912 7.904 32.528 70.832 34.96 72.96 2.432 2.128 73.553 4.256 73.553 4.256l3.04-15.504-60.8-17.328-20.672-63.536"/></mask><g mask="url(#f)"><path fill="#fff" d="M224.306 275.85s-8.208 15.808-9.12 23.712c-.912 7.904 32.528 70.832 34.96 72.96 2.432 2.128 73.553 4.256 73.553 4.256l3.04-15.504-60.8-17.328-20.672-63.536" opacity=".17"/></g><path stroke="#212527" stroke-linecap="round" stroke-linejoin="round" d="M224.306 275.85s-8.208 15.808-9.12 23.712c-.912 7.904 32.528 70.832 34.96 72.96 2.432 2.128 73.553 4.256 73.553 4.256l3.04-15.504-60.8-17.328-20.672-63.536"/><path fill="#FFE0C4" d="M351.972 360.971s-4.256-3.648-5.776.608c-1.52 4.256-10.944 14.592-6.688 14.896 4.256.304 12.16-8.512 12.16-8.512"/><path stroke="#212527" stroke-linecap="round" stroke-linejoin="round" d="M351.972 360.971s-4.256-3.648-5.776.608c-1.52 4.256-10.944 14.592-6.688 14.896 4.256.304 12.16-8.512 12.16-8.512"/><path fill="#FFE0C4" stroke="#212527" stroke-linecap="round" stroke-linejoin="round" d="M333.124 377.995s-1.095 5.123 1.52 7.296c1.839 1.52 2.873-2.736 2.432-5.776-.441-3.04-3.04-3.952-3.952-1.52z"/><path fill="#FFE0C4" stroke="#212527" stroke-linecap="round" stroke-linejoin="round" d="M337.44 379.21s-1.094 5.122 1.52 7.296c1.839 1.52 2.873-2.736 2.432-5.776-.441-3.04-3.101-3.952-3.952-1.52z"/><path fill="#FFE0C4" stroke="#212527" stroke-linecap="round" stroke-linejoin="round" d="M341.635 381.034s-1.094 5.123 1.52 7.296c1.84 1.52 2.873-2.736 2.432-5.776-.44-3.04-3.04-3.952-3.952-1.52z"/><path fill="#FFE0C4" stroke="#212527" stroke-linecap="round" stroke-linejoin="round" d="M345.846 383.512s-1.004 3.451 1.398 4.91c1.687 1.034 2.645-1.839 2.234-3.891-.41-2.052-2.796-2.66-3.632-1.019z"/><path stroke="#212527" stroke-linecap="round" stroke-linejoin="round" d="M362.611 365.531l.912 19.456 6.688-1.824-1.52-17.936-6.08.304z"/><path fill="#212527" stroke="#212527" stroke-linecap="round" stroke-linejoin="round" d="M367.171 363.706l3.04 23.104 50.768-5.472 1.216-30.096-55.024 12.464z"/><path stroke="#fff" stroke-linecap="round" stroke-linejoin="round" d="M278.16 455.803s-9.211 61.529-9.211 82.369c0 20.839-14.045 55.723-14.531 75.103"/><path fill="#fff" stroke="#212527" stroke-linecap="round" stroke-linejoin="round" d="M223.896 661.201c2.417 1.946 56.681 1.946 61.53-.957 4.849-2.903 2.417-6.795.486-6.795-1.93 0-26.159-15.99-26.159-15.99s-13.087 10.184-20.353 12.601c-7.265 2.417-18.893 2.903-18.893 2.903v2.918a11.728 11.728 0 0 0 3.389 5.32z"/><path fill="#fff" stroke="#212527" stroke-linecap="round" stroke-linejoin="round" d="M285.426 660.273c2.554-1.52 3.04-3.344 2.736-4.697a119.846 119.846 0 0 1-21.629 2.265c-14.638.395-37.666-.502-45.6-.836a10.904 10.904 0 0 0 3.04 4.226c2.34 1.945 56.604 1.945 61.453-.958z"/><path fill="#212527" stroke="#212527" stroke-linecap="round" stroke-linejoin="round" d="M219.093 656.291l1.414-3.298 1.93-39.718s-8.725 31.008-9.196 38.274c-.365 5.29 3.648 5.183 5.852 4.742zM428.351 443.689s-4.833 72.2 0 101.263c4.834 29.062 17.009 79.465 18.894 85.758a33.437 33.437 0 0 1 1.52 11.628l27.132 3.876s-8.238-95.441-8.238-106.582c0-11.142 9.211-94.483 9.211-94.483l-48.519-1.46z"/><path fill="#212527" stroke="#212527" stroke-linecap="round" stroke-linejoin="round" d="M448.704 642.338s-29.548 12.601-32.953 15.018c-3.405 2.417 7.281 5.821 20.353 5.821 13.072 0 26.174-1.52 26.174-1.52l5.32-2.903.486 3.39h14.045s2.432-11.628 1.52-14.531a53.59 53.59 0 0 0-2.417-5.822l-32.528.547z"/><path fill="#212527" stroke="#212527" stroke-linecap="round" stroke-linejoin="round" d="M423.989 437.883s2.432 69.282 8.239 93.997c5.806 24.715 15.99 84.785 15.99 91.078a37.062 37.062 0 0 1-1.444 10.64l-1.946 6.323a19.53 19.53 0 0 0 1.52 4.363s12.586 2.903 20.824 2.903a54.731 54.731 0 0 0 15.2-2.295s.259-15.2.745-22.42c.487-7.22-1.93-53.778-1.93-64.919 0-11.142-2.919-17.45-2.919-31.008 0-13.559-2.416-49.902-1.93-55.724.486-5.821 7.266-12.16 8.725-19.38 1.459-7.22 2.903-15.017 2.903-15.017l-63.977 1.459z"/><path stroke="#fff" stroke-linecap="round" stroke-linejoin="round" d="M429.795 510.721s13.543 93.951 16.933 99.879a17.265 17.265 0 0 1 1.52 12.342"/><path fill="#212527" stroke="#212527" stroke-linecap="round" stroke-linejoin="round" d="M412.361 383.133s-1.809 18.529-1.809 32.695c0 7.904-.076 18.24-.152 25.718a13.254 13.254 0 0 0 10.64 13.088 50.881 50.881 0 0 0 9.682 1.17l-11.385-70.498s-5.152-8.709-6.976-2.173z"/><path fill="#212527" stroke="#212527" stroke-linecap="round" stroke-linejoin="round" d="M466.154 256.882a30.386 30.386 0 0 1 7.509 5.578 56.5 56.5 0 0 1 5.138 8.102s20.596 23.742 21.082 26.159c.486 2.417-11.628 78.736-11.628 78.736l13.802 72.185s-22.284 12.357-39.247 13.087c-11.932.517-29.883-3.298-39.52-5.609a9.393 9.393 0 0 1-7.189-8.299c-.943-10.154-2.706-30.4-3.74-49.567-1.185-22.268 2.189-66.379 4.56-81.883 2.372-15.504 9.941-36.571 15.748-45.296 5.806-8.724 21.812-17.753 33.485-13.193z"/><path fill="#212527" d="M478.8 270.561a56.376 56.376 0 0 0-5.077-7.995 30.4 30.4 0 0 0-7.508-5.578c-9.668-3.816-22.314 1.717-29.656 8.709-.972 2.159-8.633 19.639-12.266 33.927-3.876 15.2-3.39 34.412-3.39 34.412s12.844-16.476 30.279-35.856a231.176 231.176 0 0 1 28.424-26.707l-.806-.912z"/><mask id="g" style="mask-type:luminance" width="60" height="80" x="420" y="255" maskUnits="userSpaceOnUse"><path fill="#fff" d="M478.8 270.561a56.376 56.376 0 0 0-5.077-7.995 30.4 30.4 0 0 0-7.508-5.578c-9.668-3.816-22.314 1.717-29.656 8.709-.972 2.159-8.633 19.639-12.266 33.927-3.876 15.2-3.39 34.412-3.39 34.412s12.844-16.476 30.279-35.856a231.176 231.176 0 0 1 28.424-26.707l-.806-.912z"/></mask><g mask="url(#g)"><path fill="#fff" d="M478.8 270.561a56.376 56.376 0 0 0-5.077-7.995 30.4 30.4 0 0 0-7.508-5.578c-9.668-3.816-22.314 1.717-29.656 8.709-.972 2.159-8.633 19.639-12.266 33.927-3.876 15.2-3.39 34.412-3.39 34.412s12.844-16.476 30.279-35.856a231.176 231.176 0 0 1 28.424-26.707l-.806-.912z" opacity=".17"/></g><path stroke="#212527" stroke-linecap="round" stroke-linejoin="round" d="M478.8 270.561a56.376 56.376 0 0 0-5.077-7.995 30.4 30.4 0 0 0-7.508-5.578c-9.668-3.816-22.314 1.717-29.656 8.709-.972 2.159-8.633 19.639-12.266 33.927-3.876 15.2-3.39 34.412-3.39 34.412s12.844-16.476 30.279-35.856a231.176 231.176 0 0 1 28.424-26.707l-.806-.912z"/><path fill="#fff" stroke="#212527" stroke-linecap="round" stroke-linejoin="round" d="M434.902 276.839s-6.551 20.535-8.542 26.342c-1.991 5.806-2.189 14.911-2.189 14.911s24.533-36.708 30.522-42.879c5.988-6.171 13.816-15.808 13.816-15.808l-5.274-1.52-28.333 18.954z"/><path fill="#fff" stroke="#212527" stroke-linecap="round" stroke-linejoin="round" d="M436.711 269.391s-2.903 8.542-2.903 9.12c0 .577-.73 8.724-.73 8.724l10.351-13.999-6.718-3.845z"/><path fill="#fff" stroke="#212527" stroke-linecap="round" stroke-linejoin="round" d="M463.053 252.32l-28.333 23.074 4.362 12.707 29.063-29.609-5.092-6.172z"/><path fill="#FFE0C4" stroke="#212527" stroke-linecap="round" stroke-linejoin="round" d="M459.39 435.328s-4.028 10.017-5.229 13.3c-1.201 3.283-.593 16.143-.441 17.495.152 1.353 2.539 1.642 2.539 1.642s.745 10.306 1.641 10.64c.933.232 1.884.38 2.843.441 0 0 1.641 5.244 3.739 4.788a3.405 3.405 0 0 0 2.386-2.843 3.946 3.946 0 0 0 3.588-1.641 19.423 19.423 0 0 0 2.097-4.028s3.587-1.794 3.876-3.147c.289-1.352 1.201-6.08 1.201-6.08s1.049-.304 1.049-3.435c0-3.131-2.387-22.42-2.387-22.42l-16.902-4.712z"/><path stroke="#212527" stroke-linecap="round" stroke-linejoin="round" d="M456.259 467.765l.441-9.089M460.742 478.815l.973-13.452M466.868 480.761l.699-14.562M472.553 475.091l.866-10.138"/><path fill="#212527" d="M488.923 290.107l10.898 6.536-3.632 75.347-19.38 71.212-18.408-4.834 5.807-56.24-2.903-56.681s4.119-13.208 13.558-20.474"/><path stroke="#212527" stroke-linecap="round" stroke-linejoin="round" d="M488.923 290.107l10.898 6.536-3.632 75.347-19.38 71.212-18.408-4.834 5.807-56.24-2.903-56.681s4.119-13.208 13.558-20.474"/><path stroke="#fff" stroke-linecap="round" stroke-linejoin="round" d="M466.503 302.83s-4.955 12.586-5.198 22.648M470.638 308.818s-8.482 13.848-8.482 20.11c0 6.262 2.234 58.52 2.234 58.52l-5.806 45.114"/><path fill="#FFE0C4" d="M418 206.158s-5.822 16.537-5.275 18.908c.548 2.372 1.095 5.989 1.095 5.989s-9.12 11.263-7.995 12.54c1.124 1.277 6.171 2.721 6.171 2.721s4.18 17.45 5.821 19.076c1.642 1.626 11.811-1.991 11.811-1.991l10.898 13.801 22.344-21.432-2.721-11.263s11.811-20.717 11.628-30.537c-.182-9.819-20.337-22.891-34.701-22.708-14.364.182-27.801 5.456-25.08 9.272a20.583 20.583 0 0 0 6.004 5.624z"/><path stroke="#212527" stroke-linecap="round" stroke-linejoin="round" d="M418 206.158s-5.822 16.537-5.275 18.908c.548 2.372 1.095 5.989 1.095 5.989s-9.12 11.263-7.995 12.54c1.124 1.277 6.171 2.721 6.171 2.721s4.18 17.45 5.821 19.076c1.642 1.626 11.811-1.991 11.811-1.991l10.898 13.801 22.344-21.432-2.721-11.263s11.811-20.717 11.628-30.537c-.182-9.819-20.337-22.891-34.701-22.708-14.364.182-27.801 5.456-25.08 9.272a20.583 20.583 0 0 0 6.004 5.624z"/><path fill="#212527" stroke="#212527" stroke-linecap="round" stroke-linejoin="round" d="M460.15 244.507s11.81-20.717 11.628-30.537c-.183-9.819-20.338-22.891-34.702-22.708-14.364.182-27.801 5.456-25.08 9.272a20.583 20.583 0 0 0 6.004 5.624s8.907 4.18 8.907 5.274c0 1.094-5.274 6.901-3.45 9.454 1.824 2.554 10.533 5.624 10.533 5.624s-1.52 4.91.73 5.457c2.249.547 3.268-1.641 4.712-3.04 1.444-1.398 6.551-3.465 7.281 2.721a18.778 18.778 0 0 1-3.283 12.54c-.715.532 9.272 7.266 13.68 5.259 1.14-.517 2.477-1.201 3.815-1.915l-.775-3.025z"/><path stroke="#212527" stroke-linecap="round" stroke-linejoin="round" d="M416.541 235.6c.706 0 1.277-2.198 1.277-4.909 0-2.712-.571-4.91-1.277-4.91-.705 0-1.276 2.198-1.276 4.91 0 2.711.571 4.909 1.276 4.909zM418 228.699l21.432.183M414.474 222.786s2.036-3.252 4.073.806M414.063 249.28a22.923 22.923 0 0 0 6.08-3.663"/><path stroke="#212527" stroke-miterlimit="10" stroke-width="2" d="M80.97 663.176h598.227"/></svg>
