<?xml version="1.0" encoding="UTF-8"?>
<svg xmlns="http://www.w3.org/2000/svg" fill="none" viewBox="0 0 759 760" width="1920" height="1922.5296442688"><path fill="#999" stroke="#212527" stroke-linecap="round" stroke-linejoin="round" d="M443.955 584.502l-12.144-1.718V523.17l12.144 1.292v60.04z"/><path fill="#fff" stroke="#212527" stroke-linecap="round" stroke-linejoin="round" d="M716.952 553.463l-558.169-59.28v-338.96l558.169-72.276v470.516z"/><path fill="#999" stroke="#212527" stroke-linecap="round" stroke-linejoin="round" d="M721.718 82.34l-567.732 73.537c-3.916.517-7.104-1.52-7.104-4.697v-5.183c0-3.04 3.188-6.08 7.104-6.627l567.732-80.09c3.917-.562 7.104 2.54 7.104 6.917v7.296a8.87 8.87 0 0 1-1.951 5.712 8.852 8.852 0 0 1-5.153 3.134z"/><path stroke="#fff" stroke-linecap="round" stroke-linejoin="round" d="M706.584 67.61l9.928-1.428M679.912 71.441l15.18-2.173M205.765 139.127l465.191-66.44M159.224 145.784l34.534-4.94"/><path fill="#FFD8D8" d="M492.652 503.212l-94.936-8.558V360.392l95.011-.212-.075 143.032z"/><mask id="a" style="mask-type:luminance" width="96" height="144" x="397" y="360" maskUnits="userSpaceOnUse"><path fill="#fff" d="M492.652 503.212l-94.936-8.558V360.392l95.011-.212-.075 143.032z"/></mask><g mask="url(#a)"><path fill="#fff" d="M492.652 503.212l-94.936-8.558V360.392l95.011-.212-.075 143.032z" opacity=".8"/></g><path fill="#FFD8D8" d="M587.663 511.769l-95.012-8.557V360.241l95.012-.198v151.726z"/><mask id="b" style="mask-type:luminance" width="96" height="152" x="492" y="360" maskUnits="userSpaceOnUse"><path fill="#fff" d="M587.663 511.769l-95.012-8.557V360.241l95.012-.198v151.726z"/></mask><g mask="url(#b)"><path fill="#fff" d="M587.663 511.769l-95.012-8.557V360.241l95.012-.198v151.726z" opacity=".6"/></g><path fill="#FFD8D8" d="M682.66 520.327l-94.997-8.557V359.982l94.997-.212v160.557z"/><mask id="c" style="mask-type:luminance" width="96" height="162" x="587" y="359" maskUnits="userSpaceOnUse"><path fill="#fff" d="M682.66 520.327l-94.997-8.557V359.982l94.997-.212v160.557z"/></mask><g mask="url(#c)"><path fill="#fff" d="M682.66 520.327l-94.997-8.557V359.982l94.997-.212v160.557z" opacity=".4"/></g><path stroke="#7F7F7F" stroke-linecap="round" stroke-linejoin="round" d="M682.66 359.77l-284.944.623M397.716 379.574l285.019 3.131M682.66 405.643l-284.944-6.885M397.716 418l285.019 10.64M682.66 451.517l-284.944-14.41M397.716 456.289l285.019 18.164M682.66 497.391l-284.944-21.918M397.716 494.654l285.019 25.673M421.396 496.798V360.332M397.716 360.393v134.261M468.895 501.068V360.24M445.153 360.24v138.639M516.408 505.356V360.135M492.651 360.24v143.032M563.906 509.626V360.027M540.149 360.074v147.44M611.404 513.913V359.922M587.663 359.982V511.77M658.918 518.183V359.814M635.161 359.875v156.18M682.659 359.77v160.557"/><path stroke="#212527" stroke-linecap="round" stroke-linejoin="round" d="M397.716 360.393v134.261l285.019 25.673V359.77l-285.019.623z"/><path fill="#212527" d="M409.526 495.14l-7.134-.638V456l7.134.456v38.684z"/><path fill="#FFD8D8" d="M416.645 495.794l-7.12-.654v-58.003l7.12.365v58.292z"/><path fill="#212527" d="M433.268 497.285l-7.12-.639v-68.4l7.12.304v68.735z"/><path fill="#FFD8D8" d="M440.402 497.923l-7.134-.638v-78.599l7.134.258v78.979z"/><path fill="#212527" d="M457.024 499.411l-7.12-.638v-59.615l7.12.365v59.888z"/><path fill="#FFD8D8" d="M464.144 500.08l-7.12-.639v-69.92l7.12.305v70.254z"/><path fill="#212527" stroke="#212527" stroke-linecap="round" stroke-linejoin="round" d="M480.781 501.601l-7.135-.639v-40.401l7.135.456v40.584z"/><path fill="#FFD8D8" stroke="#FFD8D8" stroke-linecap="round" stroke-linejoin="round" d="M487.901 502.179l-7.12-.639V452.9l7.12.411v48.868z"/><path fill="#212527" d="M504.523 503.668l-7.12-.638v-69.206l7.12.319v69.525z"/><path fill="#FFD8D8" d="M511.657 504.307l-7.135-.639v-56.422l7.135.38v56.681z"/><path fill="#212527" d="M528.264 505.796l-7.119-.638v-60.01l7.119.365v60.283z"/><path fill="#FFD8D8" d="M535.399 506.434l-7.12-.638v-70.589l7.12.319v70.908z"/><path fill="#212527" d="M552.036 507.923l-7.135-.638v-75.027l7.135.304v75.361z"/><path fill="#FFD8D8" d="M559.156 508.563l-7.12-.638v-69.753l7.12.334v70.057z"/><path fill="#212527" d="M575.778 510.052l-7.12-.638v-92.416l7.12.243v92.811z"/><path fill="#FFD8D8" d="M582.912 510.722l-7.135-.654V406.252l7.135.198v104.272z"/><path fill="#212527" d="M599.61 512.24l-7.12-.638v-87.036l7.12.259v87.415z"/><path fill="#FFD8D8" d="M606.653 419.749v93.085l-7.044-.593v-92.72l7.044.228z"/><path fill="#212527" d="M623.291 514.322l-7.135-.638V413.668l7.135.213v100.441z"/><path fill="#FFD8D8" d="M630.41 514.962l-7.119-.638v-98.375l7.119.213v98.8z"/><path fill="#212527" d="M647.033 516.45l-7.12-.638V399.76l7.12.152V516.45z"/><path fill="#FFD8D8" d="M654.167 517.09l-7.135-.639V393.514l7.135.121V517.09z"/><path fill="#212527" d="M670.789 518.579l-7.135-.639V381.824l7.135.076v136.679z"/><path fill="#FFD8D8" d="M677.908 519.218l-7.119-.638V376.141h7.119v143.077z"/><path fill="#fff" stroke="#212527" stroke-linecap="round" stroke-linejoin="round" d="M494.67 432.213l-20.66-.912a4.552 4.552 0 0 1-4.554-4.089v-13.194a4.118 4.118 0 0 1 4.554-3.739l20.66.623a4.464 4.464 0 0 1 4.554 4.089v13.467a4.084 4.084 0 0 1-4.554 3.755z"/><path fill="#212527" d="M475.407 426.253a2.822 2.822 0 0 1-2.428-2.948v-.745h2.125v.912c0 .745.44 1.079 1.153 1.109.714.031 1.154-.273 1.154-1.048 0-.776-.41-1.52-1.913-2.569-1.821-1.292-2.459-2.28-2.459-3.603a2.552 2.552 0 0 1 .617-1.855 2.542 2.542 0 0 1 1.751-.865v-1.049h1.822v1.049a2.776 2.776 0 0 1 2.398 2.933V418h-2.11v-.471a.992.992 0 0 0-.291-.829 1.015 1.015 0 0 0-.384-.237 1.015 1.015 0 0 0-.448-.044c-.713 0-1.108.289-1.108.988 0 .699.41 1.414 1.913 2.493 1.821 1.322 2.459 2.295 2.459 3.693a2.593 2.593 0 0 1-.624 1.913 2.573 2.573 0 0 1-1.805.884v1.216h-1.822v-1.353z"/><path fill="#999" stroke="#212527" stroke-linecap="round" stroke-linejoin="round" d="M492.181 422.151v-7.98l-4.949-.167v7.95l-3.537-.122c2.414 2.721 3.613 4.089 6.072 6.825l5.996-6.384-3.582-.122z"/><path fill="#fff" stroke="#212527" stroke-linecap="round" stroke-linejoin="round" d="M626.494 401.281l-20.675-.471a4.553 4.553 0 0 1-4.554-4.317v-14.364a4.379 4.379 0 0 1 1.413-3.033 4.37 4.37 0 0 1 3.141-1.147l20.675.183a4.546 4.546 0 0 1 3.142 1.254 4.562 4.562 0 0 1 1.412 3.078v14.592a4.348 4.348 0 0 1-4.554 4.225z"/><path fill="#212527" d="M607.2 395.277a2.929 2.929 0 0 1-2.413-3.146v-.866h2.11v1.003c-.017.158.002.317.054.467a1.054 1.054 0 0 0 1.115.703 1.004 1.004 0 0 0 .873-.292 1.017 1.017 0 0 0 .28-.878c0-.943-.41-1.627-1.912-2.736-1.822-1.368-2.46-2.432-2.46-3.861a2.784 2.784 0 0 1 2.353-3.04v-1.11h1.837v1.156a2.867 2.867 0 0 1 2.398 3.116v.364h-2.11v-.516a1.035 1.035 0 0 0-1.123-1.186 1.005 1.005 0 0 0-1.123 1.125c0 .866.41 1.52 1.912 2.66 1.837 1.368 2.475 2.432 2.475 3.937a2.83 2.83 0 0 1-2.429 3.04v1.307H607.2v-1.247z"/><path fill="#999" stroke="#212527" stroke-linecap="round" stroke-linejoin="round" d="M619.04 388.832v8.634l4.949.106v-8.664h3.537l-6.072-7.265-5.996 7.083 3.582.106z"/><path fill="#FF5252" stroke="#212527" stroke-linecap="round" stroke-linejoin="round" d="M537.023 282.613a81.077 81.077 0 0 0 19.309 1.778c36.508-.988 69.661-28.439 69.828-64.296.107-34.367-34.428-60.602-69.828-55.525v59.918a13828.033 13828.033 0 0 1-19.309 58.125z"/><path fill="#FFF59D" stroke="#212527" stroke-linecap="round" stroke-linejoin="round" d="M556.332 224.489V164.57c-34.079 3.496-70.329 30.264-69.828 64.296.425 25.673 23.256 48.96 50.459 53.748a8931.52 8931.52 0 0 0 19.369-58.125z"/><path stroke="#212527" stroke-linecap="round" stroke-linejoin="round" d="M531.012 200.031a3.865 3.865 0 0 0-1.503-2.755 3.862 3.862 0 0 0-3.051-.725 4.667 4.667 0 0 0-4.554 4.195v2.401a3.894 3.894 0 0 0 2.953 3.446c.524.128 1.07.145 1.601.05a4.655 4.655 0 0 0 3.073-1.231 4.67 4.67 0 0 0 1.481-2.964M518.337 246.24v7.767a2.673 2.673 0 0 0 3.036 2.402 3.04 3.04 0 0 0 3.036-2.691v-19.562a2.1 2.1 0 0 1 .614-1.341c.36-.358.838-.573 1.344-.604a1.794 1.794 0 0 1 1.447.317 1.811 1.811 0 0 1 .724 1.294v19.76a2.665 2.665 0 0 0 .999 1.862 2.665 2.665 0 0 0 2.037.554 3.032 3.032 0 0 0 2.037-.769c.56-.499.916-1.189.999-1.936v-18.97M518.337 241.146v2.28"/><path stroke="#212527" stroke-linecap="round" stroke-linejoin="round" d="M534.58 231.556v-15.412a.986.986 0 0 1 .986-.882.83.83 0 0 1 .875.429.839.839 0 0 1 .097.331v9.12a2.111 2.111 0 0 0 2.186 2.006 2.488 2.488 0 0 0 2.656-2.219V213.94c0-2.888-2.747-5.032-6.148-4.788l-17.548 1.276c-3.4.259-6.072 2.752-6.072 5.594v10.64a2.096 2.096 0 0 0 2.186 1.976 2.478 2.478 0 0 0 2.657-2.189v-9.12a1.003 1.003 0 0 1 .986-.897.857.857 0 0 1 .649.172.844.844 0 0 1 .323.588v21.645M590.396 197.129c.319 1.915.789 4.682.789 4.682l-10.838.805 1.077-6.536a5.253 5.253 0 0 1 1.476-2.859 5.232 5.232 0 0 1 2.866-1.457 4.26 4.26 0 0 1 4.341 3.632M599.762 221.236v-11.354c0-3.04-2.763-5.214-6.148-4.971M592.962 239.398v-3.8l3.461-.197c-1.381-9.287-2.08-13.939-3.461-23.195a1.002 1.002 0 0 1 .971-.928.855.855 0 0 1 .88.454.855.855 0 0 1 .092.337v9.439a2.142 2.142 0 0 0 2.186 2.083M592.962 244.309v-2.629M575.519 233.715c-.167 1.125-.243 1.687-.41 2.812l3.461-.198v14.866a2.731 2.731 0 0 0 1.947 2.418c.353.103.724.134 1.089.09a3.035 3.035 0 0 0 3.036-2.782v-14.926l2.247-.122V250.8a2.73 2.73 0 0 0 .981 1.905 2.721 2.721 0 0 0 2.055.603 3.038 3.038 0 0 0 3.036-2.797v-3.557M588.362 205.291l-10.444.76a6.314 6.314 0 0 0-6.072 5.776v11.081a2.126 2.126 0 0 0 2.11 2.052 2.49 2.49 0 0 0 2.671-2.265v-9.424a1.021 1.021 0 0 1 .972-.927.851.851 0 0 1 .879.453c.054.105.085.22.092.337l-2.352 15.96"/><path fill="#FFF59D" stroke="#212527" stroke-linecap="round" stroke-linejoin="round" d="M651.617 214.622l-7.712.502a4.844 4.844 0 0 1-5.495-4.56v-6.886a5.743 5.743 0 0 1 5.495-5.35l7.712-.578a4.808 4.808 0 0 1 4.983 2.63c.298.602.467 1.259.497 1.93v7.008a5.692 5.692 0 0 1-1.719 3.71 5.675 5.675 0 0 1-3.761 1.594z"/><path fill="#212527" d="M670.243 209.424l-4.706.319v-2.052c1.807-3.997 2.702-5.988 4.554-10.001l2.687-.198v9.713h1.154v2.052h-1.154v2.614l-2.474.168-.061-2.615zm0-2.052v-5.593a632.554 632.554 0 0 1-2.414 5.76l2.414-.167zM675.024 208.24v-1.14l2.323-.152v1.292c0 1.034.501 1.368 1.29 1.307.789-.061 1.275-.456 1.275-1.52v-3.237c0-1.034-.501-1.399-1.275-1.338-.774.061-1.29.471-1.29 1.52v.122l-2.323.167c.182-3.238.273-4.849.44-8.071l6.497-.487v2.067l-4.296.304c-.075 1.384-.121 2.083-.197 3.466a2.594 2.594 0 0 1 2.125-1.201c1.807-.121 2.733.988 2.733 3.116v3.268a3.56 3.56 0 0 1-2.198 3.616 3.551 3.551 0 0 1-1.476.26 3.03 3.03 0 0 1-2.677-.745 3.04 3.04 0 0 1-.951-2.614zM683.92 202.387v-3.618a2.316 2.316 0 0 1 1.433-2.325c.301-.122.625-.18.951-.168a1.964 1.964 0 0 1 1.736.46 1.96 1.96 0 0 1 .632 1.683v3.633a2.297 2.297 0 0 1-2.368 2.493 1.963 1.963 0 0 1-1.747-.465 1.97 1.97 0 0 1-.637-1.693zm3.188-.122v-3.83c0-.639-.319-.882-.804-.852-.486.031-.82.335-.82.973v3.831c0 .638.304.881.82.851.516-.031.804-.335.804-.973zm4.873-6.202l1.518-.106c-2.429 5.989-3.643 8.983-6.072 14.942l-1.518.106c2.429-5.958 3.643-8.938 6.072-14.926v-.016zm-1.184 12.495v-3.633a2.279 2.279 0 0 1 2.368-2.478 1.963 1.963 0 0 1 1.754.457 1.953 1.953 0 0 1 .629 1.702v3.633a2.301 2.301 0 0 1-.634 1.776 2.277 2.277 0 0 1-1.749.701 1.955 1.955 0 0 1-2.262-1.235 1.96 1.96 0 0 1-.106-.923zm3.188-.107v-3.845c0-.639-.319-.882-.82-.851-.501.03-.804.319-.804.972v3.831c0 .653.303.897.804.866.501-.03.82-.319.82-.973z"/><path fill="#FF5252" stroke="#212527" stroke-linecap="round" stroke-linejoin="round" d="M651.617 239.322l-7.712.396a4.94 4.94 0 0 1-3.758-1.14 4.937 4.937 0 0 1-1.737-3.527v-6.946a5.643 5.643 0 0 1 1.728-3.698 5.63 5.63 0 0 1 3.767-1.561l7.712-.472a4.881 4.881 0 0 1 3.757 1.125 4.911 4.911 0 0 1 1.723 3.527v7.052a5.615 5.615 0 0 1-1.72 3.692 5.595 5.595 0 0 1-3.76 1.552z"/><path fill="#212527" d="M666.053 233.699v-1.14l2.338-.121v1.276c0 1.034.486 1.368 1.275 1.338.79-.03 1.275-.441 1.275-1.52v-3.222c0-1.019-.485-1.384-1.275-1.338-.789.046-1.275.456-1.275 1.52v.122l-2.338.121.456-8.025 6.497-.396v2.068l-4.296.243c-.091 1.383-.121 2.067-.213 3.435a2.558 2.558 0 0 1 2.126-1.17c1.821-.107 2.732 1.018 2.732 3.131v3.253a3.472 3.472 0 0 1-2.2 3.576 3.46 3.46 0 0 1-1.473.224 3.038 3.038 0 0 1-3.629-3.375zM675.025 233.214v-1.125l2.322-.137v1.307c0 1.019.501 1.368 1.291 1.323.789-.046 1.275-.426 1.275-1.52v-3.238c0-1.034-.501-1.398-1.275-1.353-.774.046-1.291.456-1.291 1.52v.122l-2.322.137c.182-3.238.273-4.849.44-8.072l6.497-.395v2.067l-4.296.244c-.076 1.383-.121 2.082-.197 3.465a2.527 2.527 0 0 1 2.125-1.17c1.807-.107 2.732 1.018 2.732 3.146v3.268a3.505 3.505 0 0 1-.956 2.762 3.484 3.484 0 0 1-2.717 1.069 3.037 3.037 0 0 1-3.628-3.42zM683.92 227.528v-3.617a2.261 2.261 0 0 1 .629-1.778c.226-.233.5-.415.802-.534.303-.118.628-.169.952-.151a1.972 1.972 0 0 1 2.368 2.174v3.633a2.258 2.258 0 0 1-.624 1.767 2.245 2.245 0 0 1-1.744.68 1.976 1.976 0 0 1-1.746-.477 1.988 1.988 0 0 1-.637-1.697zm3.188-.076v-3.83c0-.654-.319-.897-.805-.866-.486.03-.82.319-.82.957v3.831c0 .638.304.896.82.866.516-.03.805-.319.805-.958zm4.872-6.08l1.518-.091a6796.205 6796.205 0 0 1-6.072 14.866l-1.518.076c2.429-5.974 3.644-8.953 6.072-14.911v.06zm-1.184 12.48v-3.633a2.265 2.265 0 0 1 .625-1.767 2.248 2.248 0 0 1 1.744-.68 1.98 1.98 0 0 1 1.753.481 1.983 1.983 0 0 1 .63 1.707v3.648a2.25 2.25 0 0 1-2.383 2.448 1.991 1.991 0 0 1-2.369-2.265v.061zm3.188 0v-3.846c0-.638-.319-.897-.819-.866-.501.03-.805.319-.805.957v3.846c0 .638.304.897.805.866.5-.03.819-.441.819-1.079v.122z"/><path fill="#00963D" d="M279.312 318.045l-94.997 2.204v-156.18l94.997-10.96v164.936z"/><mask id="d" style="mask-type:luminance" width="96" height="168" x="184" y="153" maskUnits="userSpaceOnUse"><path fill="#fff" d="M279.312 318.045l-94.997 2.204v-156.18l94.997-10.96v164.936z"/></mask><g mask="url(#d)"><path fill="#fff" d="M279.312 318.045l-94.997 2.204v-156.18l94.997-10.96v164.936z" opacity=".8"/></g><path fill="#00963D" d="M374.384 315.856l-95.072 2.189V153.11l95.011-10.96.061 173.706z"/><mask id="e" style="mask-type:luminance" width="96" height="177" x="279" y="142" maskUnits="userSpaceOnUse"><path fill="#fff" d="M374.384 315.856l-95.072 2.189V153.11l95.011-10.96.061 173.706z"/></mask><g mask="url(#e)"><path fill="#fff" d="M374.384 315.856l-95.072 2.189V153.11l95.011-10.96.061 173.706z" opacity=".6"/></g><path fill="#00963D" d="M469.395 313.667l-95.011 2.189V142.151l95.011-10.96v182.476z"/><mask id="f" style="mask-type:luminance" width="96" height="185" x="374" y="131" maskUnits="userSpaceOnUse"><path fill="#fff" d="M469.395 313.667l-95.011 2.189V142.151l95.011-10.96v182.476z"/></mask><g mask="url(#f)"><path fill="#fff" d="M469.395 313.667l-95.011 2.189V142.151l95.011-10.96v182.476z" opacity=".4"/></g><path stroke="#7F7F7F" stroke-linecap="round" stroke-linejoin="round" d="M469.396 131.191l-285.02 32.878M184.376 186.383l285.02-29.123M469.396 183.328l-285.02 25.369M184.376 231.041l285.02-21.6M469.396 235.463l-285.02 17.845M184.376 275.622l285.02-14.091M469.396 287.6l-285.02 10.32M184.376 320.25l285.02-6.582M208.118 319.703V161.334M184.376 164.068v156.18M255.631 318.592V155.846M231.874 158.582V319.2M303.129 317.497V150.373M279.312 153.109v164.936M350.658 316.404V144.887M326.886 147.639v169.312M398.141 315.308V139.414M374.384 142.15v173.706M445.639 314.215V133.943M421.883 136.678v178.083M469.396 131.191v182.476"/><path stroke="#212527" stroke-linecap="round" stroke-linejoin="round" d="M184.376 164.069v156.18l285.02-6.581v-182.4l-285.02 32.801zM184.376 297.92h1.7"/><path stroke="#212527" stroke-dasharray="1.71 1.71" stroke-linecap="round" stroke-linejoin="round" d="M188.976 297.769l15.999-.578"/><path stroke="#212527" stroke-linecap="round" stroke-linejoin="round" d="M206.448 297.129h1.685l1.199-1.186"/><path stroke="#212527" stroke-dasharray="1.98 1.98" stroke-linecap="round" stroke-linejoin="round" d="M211.7 293.527c7.12-7.068 10.626-10.64 17.791-17.83"/><path stroke="#212527" stroke-linecap="round" stroke-linejoin="round" d="M230.736 274.497l1.2-1.216c.485.426.728.654 1.199 1.095"/><path stroke="#212527" stroke-dasharray="1.58 1.58" stroke-linecap="round" stroke-linejoin="round" d="M234.971 276.107l6.633 6.08"/><path stroke="#212527" stroke-linecap="round" stroke-linejoin="round" d="M242.546 283.116l1.199 1.125c.228-.639.334-.958.547-1.596"/><path stroke="#212527" stroke-dasharray="1.83 1.83" stroke-linecap="round" stroke-linejoin="round" d="M245.263 279.679a7392.803 7392.803 0 0 0 9.335-27.816"/><path stroke="#212527" stroke-linecap="round" stroke-linejoin="round" d="M255.023 250.466c.228-.654.334-.973.547-1.612l1.685-.106"/><path stroke="#212527" stroke-dasharray="1.67 1.67" stroke-linecap="round" stroke-linejoin="round" d="M260.154 248.565l4.236-.258"/><path stroke="#212527" stroke-linecap="round" stroke-linejoin="round" d="M265.802 248.216l1.7-.106.759-1.52"/><path stroke="#212527" stroke-dasharray="1.95 1.95" stroke-linecap="round" stroke-linejoin="round" d="M269.748 243.55l8.137-16.72"/><path stroke="#212527" stroke-linecap="round" stroke-linejoin="round" d="M278.613 225.356l.759-1.52 1.7-.137"/><path stroke="#212527" stroke-dasharray="1.71 1.71" stroke-linecap="round" stroke-linejoin="round" d="M283.987 223.441l15.985-1.216"/><path stroke="#212527" stroke-linecap="round" stroke-linejoin="round" d="M301.429 222.134l1.7-.137 1.199-1.292"/><path stroke="#212527" stroke-dasharray="1.58 1.58" stroke-linecap="round" stroke-linejoin="round" d="M306.226 218.652l6.633-7.22"/><path stroke="#212527" stroke-linecap="round" stroke-linejoin="round" d="M313.801 210.399l1.199-1.323 1.7-.137"/><path stroke="#212527" stroke-dasharray="1.99 1.99" stroke-linecap="round" stroke-linejoin="round" d="M320.085 208.666l18.671-1.52c3.795-4.21 5.693-6.308 9.488-10.548"/><path stroke="#212527" stroke-linecap="round" stroke-linejoin="round" d="M349.429 195.243c.485-.547.728-.805 1.199-1.352l1.199 1.14"/><path stroke="#212527" stroke-dasharray="1.98 1.98" stroke-linecap="round" stroke-linejoin="round" d="M354.21 197.266c7.104 6.748 10.626 10.153 17.791 17.024"/><path stroke="#212527" stroke-linecap="round" stroke-linejoin="round" d="M373.185 215.446l1.199 1.155c.486-.532.713-.806 1.199-1.353"/><path stroke="#212527" stroke-dasharray="1.58 1.58" stroke-linecap="round" stroke-linejoin="round" d="M377.48 213.119c2.657-3.04 3.978-4.469 6.634-7.478"/><path stroke="#212527" stroke-linecap="round" stroke-linejoin="round" d="M385.056 204.577l1.199-1.368 1.7-.137"/><path stroke="#212527" stroke-dasharray="1.93 1.93" stroke-linecap="round" stroke-linejoin="round" d="M391.219 202.798l18.793-1.52c4.751-5.457 7.119-8.193 11.87-13.68l8.547-.76"/><path stroke="#212527" stroke-linecap="round" stroke-linejoin="round" d="M432.068 186.657l1.701-.152.759-1.702"/><path stroke="#212527" stroke-dasharray="1.95 1.95" stroke-linecap="round" stroke-linejoin="round" d="M436 181.472c3.249-7.326 4.888-11.004 8.136-18.376"/><path stroke="#212527" stroke-linecap="round" stroke-linejoin="round" d="M444.88 161.409l.759-1.718M184.376 275.621l23.742-1.171c9.502-5 14.254-7.524 23.756-12.646l11.871-.669c4.751-9.5 7.135-14.288 11.886-23.909a2448.07 2448.07 0 0 0 11.871-12.525 4669.708 4669.708 0 0 0 11.87-24.472 1971.101 1971.101 0 0 1 23.757 9.834c4.751 4.378 7.12 6.582 11.871 11.035a2534.941 2534.941 0 0 0 23.757-26.144c4.751-10.168 7.119-15.2 11.87-25.566 9.503 8.831 14.254 13.315 23.757 22.39a4495.582 4495.582 0 0 1 11.871 23.924l23.757-1.808c4.751-5.412 7.119-8.132 11.87-13.68 4.752-15.656 7.135-23.53 11.886-39.368 4.736-10.732 7.12-16.128 11.871-26.965"/><path fill="#212527" d="M229.916 338.731a4.402 4.402 0 0 1-1.518.243 3.018 3.018 0 0 1-2.525-.872 3.03 3.03 0 0 1-.86-2.532v-7.251a3.163 3.163 0 0 1 2.018-3.316 3.155 3.155 0 0 1 1.367-.195 3.04 3.04 0 0 1 3.258 2.024c.151.438.2.906.143 1.366v7.235a3.929 3.929 0 0 1-.623 2.265c.152.273.425.319.835.304h.334v1.96h-.577a1.713 1.713 0 0 1-1.852-1.231zm-.319-3.04v-7.493c0-.988-.455-1.353-1.168-1.338-.714.015-1.154.395-1.154 1.383v7.479c0 .988.455 1.352 1.154 1.337.698-.015 1.168-.425 1.168-1.413v.045zM236.473 328.169h-2.337v-1.52c1.897 0 2.565-.441 3.036-1.794h1.518v13.802h-2.247l.03-10.488zM324.29 337.608c-.486.18-1 .272-1.518.274a3.147 3.147 0 0 1-2.56-.985 3.165 3.165 0 0 1-.825-2.618v-7.6a3.278 3.278 0 0 1 .824-2.649 3.257 3.257 0 0 1 2.561-1.06c2.201 0 3.4 1.262 3.4 3.588v7.6a4.121 4.121 0 0 1-.622 2.386c.152.289.425.334.835.319h.349v2.098h-.592a1.718 1.718 0 0 1-1.852-1.353zm-.319-3.238v-7.904c0-1.033-.455-1.428-1.169-1.413-.713.015-1.153.425-1.153 1.52v7.828c0 1.033.455 1.413 1.153 1.413.699 0 1.169-.41 1.169-1.413v-.031zM327.675 336.041a6.763 6.763 0 0 1 2.247-5.168c1.7-1.854 2.186-3.04 2.186-4.332 0-1.292-.441-1.657-1.154-1.642-.714.016-1.169.426-1.169 1.52v1.52h-2.11v-1.413c0-2.326 1.139-3.679 3.34-3.709 2.201-.03 3.339 1.262 3.339 3.587 0 1.733-.698 3.283-2.778 5.563-1.336 1.52-1.685 2.204-1.685 3.208v.319h4.251v2.082l-6.467.076v-1.611zM419.363 336.483c-.484.192-.999.29-1.518.289-2.201 0-3.401-1.353-3.401-3.785v-7.995c0-2.432 1.2-3.846 3.401-3.891 2.201-.046 3.4 1.337 3.4 3.769v8.011a4.564 4.564 0 0 1-.638 2.508c.167.304.425.349.835.334h.349v2.174h-.592a1.714 1.714 0 0 1-1.836-1.414zm-.334-3.405v-8.314c0-1.094-.441-1.52-1.154-1.52-.713 0-1.154.441-1.154 1.52v8.314c0 1.08.441 1.52 1.154 1.52.713 0 1.093-.44 1.093-1.52h.061zM422.626 332.881v-1.247h2.11v1.353c0 1.079.44 1.52 1.154 1.52.713 0 1.169-.395 1.169-1.748v-1.246c0-1.414-.456-1.931-1.518-1.915h-.744v-2.189h.804c.835 0 1.351-.411 1.351-1.642v-1.109c0-1.095-.47-1.52-1.123-1.52s-1.078.44-1.078 1.444v1.003h-2.11v-.806c0-2.447 1.139-3.83 3.264-3.861 2.125-.03 3.279 1.262 3.279 3.709v.654c0 1.641-.486 2.66-1.518 3.116 1.199.456 1.639 1.52 1.639 3.116v1.368c0 2.447-1.138 3.8-3.339 3.815-2.202.015-3.34-1.338-3.34-3.815z"/><path fill="#212527" stroke="#212527" stroke-linecap="round" stroke-linejoin="round" d="M270.386 250.086s-22.603-19.44-7.59-32.284c0 0 7.241-22.8 31.028-19.593 23.787 3.207 11.871-10.275 11.871-10.275s13.48 7.068 7.286 12.524a9.988 9.988 0 0 0 5.338-1.254 10.011 10.011 0 0 0 3.876-3.883s4.145 7.387-3.597 10.64c0 0 10.125 2.569 7.423 8.36 0 0-7.195-3.831-9.108 10.64-1.913 14.47-24.804 12.357-24.804 12.357l-21.723 12.768zM271.828 254.905c0-.744-5.373 15.656 4.843 14.273 4.842-.653-2.049-14.273-2.049-14.273h-2.794z"/><path stroke="#7F7F7F" stroke-linecap="round" stroke-linejoin="round" d="M321.664 210.581s-6.072-.973-7.271 6.08M307.288 208.895c-2.398 3.131-1.594 7.782-1.594 7.782M319.949 200.459a15.907 15.907 0 0 1-9.108 6.08M292.062 208.575s9.746-1.931 8.456 8.101"/><path fill="#999" d="M339.849 451.076s8.091 42.286 0 83.721-13.085 174.496-13.085 174.496h-50.352V444.464l60.902-2.144 2.535 8.756z"/><mask id="g" style="mask-type:luminance" width="68" height="268" x="276" y="442" maskUnits="userSpaceOnUse"><path fill="#fff" d="M339.849 451.076s8.091 42.286 0 83.721-13.085 174.496-13.085 174.496h-50.352V444.464l60.902-2.144 2.535 8.756z"/></mask><g mask="url(#g)"><path fill="#000" d="M309.93 507.817s-2.186 14.622 8.728 10.929c10.914-3.694 18.489-2.417 9.381 5.852s-21.737 20.793-23.756 66.089c-2.019 45.296-5.146 118.56-5.146 118.56h-21.936l-4.554-168.233 19.932-29.382 9.275-3.861 8.076.046z" opacity=".2"/></g><path stroke="#212527" stroke-linecap="round" stroke-linejoin="round" d="M339.849 451.076s8.091 42.286 0 83.721-13.085 174.496-13.085 174.496h-50.352V444.464l60.902-2.144 2.535 8.756zM333.777 518.897s-11.278-2.401-23.847 11.568"/><path fill="#999" stroke="#212527" stroke-linecap="round" stroke-linejoin="round" d="M317.094 455.833s-.516 47.12-6.588 64.995c-6.072 17.875-15.18 101.749-14.163 188.48h-52.052s-3.036-156.666-5.085-179.801c-2.05-23.134-12.645-19.258 2.019-85.028h78.01l-2.141 11.354z"/><path fill="#212527" d="M307.228 465.927c4.007-.273 7.665-.593 10.99-.927l.44 7.767c-3.461.35-7.286.684-11.43.958v-7.798zM323.88 464.361a223.601 223.601 0 0 0 13.298-1.961l1.047 7.676c-2.854.517-7.742 1.323-14.345 2.113v-7.828zM238.447 472.022l1.184-7.6a378.814 378.814 0 0 0 24.486 1.961l-.516 7.706c-7.94-.426-16.349-1.064-25.154-2.067zM270.037 466.641c11.871.38 22.588.167 31.878-.334v7.782a374.59 374.59 0 0 1-19.309.502c-4.099 0-8.379-.076-12.812-.228l.243-7.722z"/><path fill="#FFE0C4" stroke="#212527" stroke-linecap="round" stroke-linejoin="round" d="M414.702 383.557l12.812-7.737s5.389-14.136 12.144-17.981c6.755-3.846 13.48-7.387 15.18-6.43 1.7.958-.334 4.18-4.721 7.387-2.732 2.007 5.222-1.398 15.423-6.08 6.072-2.827 13.085-6.764 14.163-5.061 3.962 6.186-16.303 14.06-16.303 14.06s6.952-.335 4.25 4.803c0 0 1.017 4.818-1.351 6.43l-2.687 3.283a15.714 15.714 0 0 1-6.072 7.949 46.338 46.338 0 0 1-19.901 5.792l-16.85 11.81-6.087-18.225z"/><path stroke="#212527" stroke-linecap="round" stroke-linejoin="round" d="M459.21 362.338s-14.33 2.888-13.571 6.08c.759 3.192 5.207.942 5.207.942s-4.736 1.611-4.22 3.375c.516 1.763 3.871 1.732 3.871 1.732s-4.387 1.004-3.871 3.04c.516 2.037 3.431 2.736 5.844 2.417 2.414-.319 4.266-1.14 4.949.076.683 1.216-6.588-.729-10.793 2.25"/><path stroke="#212527" stroke-linecap="round" stroke-linejoin="round" d="M447.81 359.922a9.122 9.122 0 0 1-2.14 4.818c-1.746 1.611-.228 7.068-6.634 13.011M462.367 367.871l-7.97.958M461.729 373.891l-7.332.608"/><path fill="#92E3A9" stroke="#212527" stroke-linecap="round" stroke-linejoin="round" d="M384.357 391.719c11.127-3.04 24.577-11.354 31.043-15.656a2.69 2.69 0 0 1 2.576-.259 2.693 2.693 0 0 1 1.599 2.038c.728 5.882 3.036 15.899 10.808 18.62 11.127 3.921.501 9.971-6.573 12.008-7.074 2.036-57.684 26.6-72.864 23.24-15.18-3.359-20.235-5.791-27.324-20.474-7.089-14.683-3.552-85.515-3.552-85.515l21.252-5.305s5.556 4.986 8.258 38.38c2.702 33.394 7.15 37.574 7.15 37.574s13.495-9.986 9.958-.334c-.031 0 13.844-3.283 17.669-4.317z"/><path stroke="#212527" stroke-linecap="round" stroke-linejoin="round" d="M359.569 401.768s-5.48 18.331-9.609 16.932c-4.129-1.398-3.036-6.399 3.795-16.932"/><path fill="#92E3A9" stroke="#212527" stroke-linecap="round" stroke-linejoin="round" d="M341.368 320.417c-9.852-9.378-24.288-18.787-54.117-20.718-29.829-1.93-71.346 5.305-72.864 16.873-1.518 11.567 15.681 73.567 15.681 129.108 0 8.193 1.017 17.343 18.216 17.343s96.104 5.776 97.152-13.011c1.047-18.787-4.038-37.574-2.52-64.554 1.518-26.98 6.042-57.806-1.548-65.041z"/><path fill="#92E3A9" d="M222.766 308.561s-12.387 3.693-15.089 22.328c-2.702 18.636-14.497 60.694-10.11 61.667 4.387.973-10.459 8.345-5.07 19.273 5.389 10.929 29.677 46.239 43.84 42.393 14.163-3.845 13.48-25.703 9.108-29.549-4.372-3.845-19.263-11.916-19.263-11.916s4.372-2.569-1.017-7.388c-5.389-4.818 3.901 2.432 6.74-13.816 3.37-19.259 15.18-46.892 8.091-63.582"/><path stroke="#212527" stroke-linecap="round" stroke-linejoin="round" d="M222.766 308.561s-12.387 3.693-15.089 22.328c-2.702 18.636-14.497 60.694-10.11 61.667 4.387.973-10.459 8.345-5.07 19.273 5.389 10.929 29.677 46.239 43.84 42.393 14.163-3.845 13.48-25.703 9.108-29.549-4.372-3.845-19.263-11.916-19.263-11.916s4.372-2.569-1.017-7.388c-5.389-4.818 3.901 2.432 6.74-13.816 3.37-19.259 15.18-46.892 8.091-63.582"/><path stroke="#212527" stroke-linecap="round" stroke-linejoin="round" d="M223.525 395.414s-19.217-4.56-24.288 3.207c-5.07 7.767 7.985-1.596 20.509 1.611"/><path fill="#FFE0C4" stroke="#212527" stroke-linecap="round" stroke-linejoin="round" d="M251.335 432.03c-3.036-2.173-10.277-5.943-14.998-1.52s-16.015 7.053-15.347 10.427c.668 3.375 4.888 4.348 12.478.654s1.321.958 2.687 8.345c1.366 7.387 2.474 14.105 8.41 12.844 0 0 .531 3.207 5.935 1.763 0 0 4.038 3.314 10.444.38 0 0 3.552 3.633 8.774-2.63 5.222-6.262 2.004-7.812 2.004-7.812s-2.353-7.251-7.59 0c0 0 .911-8.968-4.372-14.592a80.999 80.999 0 0 0-8.425-7.859z"/><path stroke="#212527" stroke-linecap="round" stroke-linejoin="round" d="M246.841 460.562s8.547-5.457 6.695-8.664c-1.852-3.208-8.774 3.526-8.774 3.526s1.017-1.733-1.002-4.393M253.02 462.37s12.918-4.028 9.958-7.889c-2.627-3.405-8.182.502-8.182.502M270.203 455.834s-1.366 3.861-7.423 7.6M248.77 444.465a18.889 18.889 0 0 0 7.377 6.612M223.526 411.237s-10.869-5.305-19.218-1.216"/><path fill="#92E3A9" d="M305.71 309.578l-8.683-3.131-9.776 3.131s6.573 9.88 9.229 10.352c0 0 9.518 73.993 12.524 108.543 3.006 34.549 2.019 37.741 2.019 37.741l13.146 10.777 9.609-13.589s-5.055-54.34-11.628-86.64a269.335 269.335 0 0 0-18.717-57.319s3.871-4.97 2.277-9.865z"/><mask id="h" style="mask-type:luminance" width="47" height="171" x="287" y="306" maskUnits="userSpaceOnUse"><path fill="#fff" d="M305.71 309.578l-8.683-3.131-9.776 3.131s6.573 9.88 9.229 10.352c0 0 9.518 73.993 12.524 108.543 3.006 34.549 2.019 37.741 2.019 37.741l13.146 10.777 9.609-13.589s-5.055-54.34-11.628-86.64a269.335 269.335 0 0 0-18.717-57.319s3.871-4.97 2.277-9.865z"/></mask><g mask="url(#h)"><path fill="#000" d="M305.71 309.578l-8.683-3.131-9.776 3.131s6.573 9.88 9.229 10.352c0 0 9.518 73.993 12.524 108.543 3.006 34.549 2.019 37.741 2.019 37.741l13.146 10.777 9.609-13.589s-5.055-54.34-11.628-86.64a269.335 269.335 0 0 0-18.717-57.319s3.871-4.97 2.277-9.865z" opacity=".3"/></g><path stroke="#212527" stroke-linecap="round" stroke-linejoin="round" d="M305.71 309.578l-8.683-3.131-9.776 3.131s6.573 9.88 9.229 10.352c0 0 9.518 73.993 12.524 108.543 3.006 34.549 2.019 37.741 2.019 37.741l13.146 10.777 9.609-13.589s-5.055-54.34-11.628-86.64a269.335 269.335 0 0 0-18.717-57.319s3.871-4.97 2.277-9.865z"/><path fill="#FFE0C4" d="M306.742 284.241s-1.716 11.111 2.55 18.726c0 0-9.23 4.044-13.191 4.56-3.962.517-24.289-11.613-24.289-11.613a147.329 147.329 0 0 0 2.824-38.851c-1.305-21.432 22.967 13.391 22.967 13.391l11.674 10.64-2.535 3.147z"/><path stroke="#212527" stroke-linecap="round" stroke-linejoin="round" d="M306.742 284.241s-1.716 11.111 2.55 18.726c0 0-9.23 4.044-13.191 4.56-3.962.517-24.289-11.613-24.289-11.613a147.329 147.329 0 0 0 2.824-38.851c-1.305-21.432 22.967 13.391 22.967 13.391l11.674 10.64-2.535 3.147z"/><path fill="#92E3A9" stroke="#212527" stroke-linecap="round" stroke-linejoin="round" d="M307.82 297.45s-5.055 8.679-10.793 8.998c-5.738.319-24.956-18.24-28.994-15.413a14.689 14.689 0 0 0-5.237 7.6l17.184 20.384s12.584-10.762 17.639-10.443c5.055.319 15.924 10.443 15.924 10.443v-14.76s-3.34-10.168-5.723-6.809z"/><path fill="#FFE0C4" d="M315.152 219.52s7.074 20.778 5.677 26.068c0 0 6.588 39.383-9.108 42.56-12.387 2.462-24.637-9.455-29.312-14.684a14.473 14.473 0 0 1-2.87-4.909l-3.036-8.907s-6.178.456-9.942-7.844c-3.765-8.299 3.901-16.355 9.836-3.784 0 0 4.645-12.708 4.296-17.815-.349-5.107 6.345-3.861 7.727-8.907 0-.03 15.878 2.538 26.732-1.778z"/><path stroke="#212527" stroke-linecap="round" stroke-linejoin="round" d="M315.152 219.52s7.074 20.778 5.677 26.068c0 0 6.588 39.383-9.108 42.56-12.387 2.462-24.637-9.455-29.312-14.684a14.473 14.473 0 0 1-2.87-4.909l-3.036-8.907s-6.178.456-9.942-7.844c-3.765-8.299 3.901-16.355 9.836-3.784 0 0 4.645-12.708 4.296-17.815-.349-5.107 6.345-3.861 7.727-8.907 0-.03 15.878 2.538 26.732-1.778z"/><path fill="#FFE0C4" d="M314.393 249.174l8.379 10.564a1.992 1.992 0 0 1-.956 3.116l-5.951 2.097"/><path stroke="#212527" stroke-linecap="round" stroke-linejoin="round" d="M314.393 249.174l8.379 10.564a1.992 1.992 0 0 1-.956 3.116l-5.951 2.097M302.203 269.178s2.596 5.35 11.279.623"/><path fill="#fff" stroke="#212527" stroke-linecap="round" stroke-linejoin="round" d="M312.966 248.748c.258 5.26-2.323 9.637-5.753 9.789-3.431.152-6.422-3.982-6.68-9.226-.258-5.244 2.323-6.764 5.754-6.916 3.43-.152 6.421 1.094 6.679 6.353zM328.769 247.563c.258 5.259-1.807 9.621-4.554 9.743-2.748.121-5.283-4.028-5.541-9.287-.258-5.26 1.837-6.734 4.645-6.871 2.808-.137 5.192 1.155 5.45 6.415z"/><path stroke="#212527" stroke-linecap="round" stroke-linejoin="round" d="M300.563 241.104s3.735-5.472 10.353-1.292M318.779 239.796a7.753 7.753 0 0 1 4.554-2.554M300.564 249.281c-2.192.613-4.44 1-6.71 1.155-5.146-.502-19.172-7.327-19.172-7.327M318.597 247.152l-5.373.928"/><path fill="#212527" d="M309.945 249.388c-.152 1.627-1.124 2.858-2.186 2.767-1.063-.092-1.776-1.52-1.64-3.04.137-1.52 1.139-2.858 2.186-2.767 1.048.091 1.791 1.414 1.64 3.04zM323.03 247.609c-.152 1.52-.881 2.812-1.64 2.736-.759-.076-1.245-1.383-1.093-2.964.152-1.581.866-2.797 1.625-2.736.759.061 1.244 1.398 1.108 2.964z"/><path stroke="#212527" stroke-linecap="round" stroke-linejoin="round" d="M263.054 430.692c2.656-6.871 20.493-5.731 20.493-5.731M305.603 434.158c-18.899 4.56-39.468 7.828-42.185 1.399M338.225 424.963s-1.973.638-5.267 1.657"/><path fill="#FFF59D" stroke="#212527" stroke-linecap="round" stroke-linejoin="round" d="M726.515 709.294H59.779v-88.89s129.197-50.16 296.01-50.16c203.367.076 370.726 139.05 370.726 139.05z"/><path fill="#000" d="M451.803 595.111l-78.709-10.625-80.059 13.544 78.708 10.64 80.06-13.559z" opacity=".2"/><path fill="#fff" stroke="#212527" stroke-linecap="round" stroke-linejoin="round" d="M442.163 594.366l-73.137-9.88-74.397 12.586 73.137 9.88 74.397-12.586z"/><path fill="#fff" stroke="#212527" stroke-linecap="round" stroke-linejoin="round" d="M451.803 591.403l-73.137-9.88-74.397 12.586 73.137 9.88 74.397-12.586z"/><path fill="#000" d="M301.536 646.107c13.875 0 25.123-2.3 25.123-5.137 0-2.838-11.248-5.138-25.123-5.138-13.875 0-25.123 2.3-25.123 5.138 0 2.837 11.248 5.137 25.123 5.137z" opacity=".2"/><path fill="#fff" stroke="#212527" stroke-linecap="round" stroke-linejoin="round" d="M316.063 639.571c0 1.429-8.106 2.584-18.125 2.584s-18.11-1.155-18.11-2.584v-34.048c0-1.428 8.106-2.584 18.11-2.584 10.003 0 18.125 1.156 18.125 2.584v34.048z"/><path fill="#fff" stroke="#212527" stroke-linecap="round" stroke-linejoin="round" d="M316.063 605.523c0 1.429-8.106 2.584-18.125 2.584s-18.11-1.155-18.11-2.584c0-1.428 8.106-2.584 18.11-2.584 10.003 0 18.125 1.156 18.125 2.584zM313.878 636.35a1.987 1.987 0 0 1-2.004-1.672 1.935 1.935 0 0 1 .403-1.461 1.94 1.94 0 0 1 1.327-.728c.456 0 11.446-1.702 11.446-11.613 0-2.493-.668-4.18-1.973-5.031-2.444-1.52-7.013-.334-8.425.228a2.075 2.075 0 0 1-2.657-1.064 1.91 1.91 0 0 1 .019-1.497 1.92 1.92 0 0 1 1.09-1.026c.774-.304 7.59-2.827 12.235.152 2.504 1.611 3.779 4.377 3.779 8.238 0 10.64-9.775 14.759-14.952 15.459l-.288.015z"/><path fill="#212527" stroke="#212527" stroke-linecap="round" stroke-linejoin="round" d="M339.91 614.186c-1.199 1.155-2.019 2.249-1.806 2.462.212.213 1.366-.577 2.58-1.733 1.215-1.155 2.019-2.249 1.807-2.447-.213-.197-1.366.578-2.581 1.718z"/><path fill="#FDD835" stroke="#212527" stroke-linecap="round" stroke-linejoin="round" d="M346.438 603.742c-4.964 4.728-7.817 9.668-6.375 11.036 1.442 1.368 6.648-1.338 11.612-6.08l31.985-30.476c4.963-4.728 7.817-9.683 6.375-11.051-1.442-1.368-6.633 1.338-11.597 6.08l-32 30.491z"/><path fill="#212527" stroke="#212527" stroke-linecap="round" stroke-linejoin="round" d="M378.968 582.707l-1.32 1.261a35.943 35.943 0 0 1-2.718-2.386c-.88-.866-1.73-1.718-2.504-2.584l1.32-1.262c.775.867 1.61 1.733 2.505 2.584a48.656 48.656 0 0 0 2.717 2.387z"/><path stroke="#212527" stroke-linecap="round" stroke-linejoin="round" d="M386.103 567.674s-2.216-1.368-7.286 2.371c-5.07 3.739-9.791 10.199-12.144 9.987"/><path fill="#FFE0C4" stroke="#212527" stroke-linecap="round" stroke-linejoin="round" d="M324.503 630.602s3.689-8.922 3.689-13.482c0-4.56 9.593-19.928 16.698-22.633 7.104-2.706 31.028-13.999 32.773-9.424 1.746 4.575-9.017 10.245-11.278 11.309a49.144 49.144 0 0 0-7.074 5.396s10.944-2.189 12.144-5.655c1.199-3.465 4.554-8.086 6.375-5.122 1.822 2.964.987 10.503-1.852 16.294v3.907s3.112 4.56-.273 8.344l-2.611 2.691s4.554 4.56-1.639 8.36c0 0 2.838 4.043-2.262 8.071 0 0-10.748 5.122-17.533 6.734-6.786 1.611-12.721 11.324-12.721 11.324l-14.436-26.114zM116.643 476.093l17.73-39.626-11.416-33.197-1.138-38.076 31.24-17.541 27.582-4.651 11.249 6.521 4.675 10.853s14.027 28.393 11.856 33.85c-2.171 5.457-3.78 10.64-3.78 10.64s6.619 14.744 10.535 19.426c3.916 4.681-8.228 1.839-9.655 10.275-1.426 8.436.274 30.825-10.14 31.844-10.413 1.018-16.698-2.219-17.654 6.581-.956 8.801-11.643 31.145-11.643 31.145l-49.441-28.044z"/><path fill="#212527" stroke="#212527" stroke-linecap="round" stroke-linejoin="round" d="M203.624 317.679c-1.518-5.107-16.136 1.991-17.654 12.935 0 0-1.867-16.72-6.694-18.316-4.22-1.383-10.049 6.202-7.939 15.2 0 0-15.772-8.299-20.858-6.368-3.764 1.428-5.085 8.785 3.036 15.2 0 0-49.304-10.975-46.42 32.026 0 0-27.112 20.231 23.043 77.702 0 0 11.901-2.644 15.18-4.56 1.898-1.109 17.761-13.68 17.761-13.68-4.554-1.626-12.478-6.277-14.634-11.886-2.732-7.098.926-15.58 7.59-16.72 3.992-.684 6.254 1.094 9.108 4.286 0 0-6.573-8.314-6.163-11.536.516-4.028 10.444-8.3 11.173-12.297.334-1.885-4.084-5.594-2.915-7.159 5.951-7.95 34.383 1.261 31.468-25.096-2.914-26.356 7.044-22.572 4.918-29.731z"/><path fill="#212527" d="M202.576 402.8c0 2.082-.409 3.785-1.077 3.8-.668.015-1.23-1.657-1.291-3.739-.06-2.083.41-3.785 1.063-3.8.653-.016 1.245 1.687 1.305 3.739z"/><path stroke="#212527" stroke-linecap="round" stroke-linejoin="round" d="M197.598 395.322s1.73-5.336 5.206-5.685"/><path stroke="#7F7F7F" stroke-linecap="round" stroke-linejoin="round" d="M160.346 354.266c17.032 1.352 2.945-23.682 2.945-23.682M117.144 365.986s13.403-19.517 38.086-12.692M183.678 343.078c1.67 8.664 0 20.247-19.886 21.645M180.277 333.457a32.457 32.457 0 0 1 1.792 4.074"/><path fill="#212527" stroke="#212527" stroke-linecap="round" stroke-linejoin="round" d="M198.676 709.293s15.362-158.415-2.854-188.313c-18.216-29.899-72.667-64.98-92.143-49.78-67.581 52.987-67.809 98.237-72.105 238.062l167.102.031z"/><path fill="#212527" stroke="#212527" stroke-linecap="round" stroke-linejoin="round" d="M183.844 515.279s21.48 5.655 33.396 38c10.976 29.686 30.922 68.826 44.235 88.327a9.701 9.701 0 0 0 9.533 3.983c5.859-.927 17.032-1.642 27.734-7.463 9.912-5.396 18.671-11.309 29.692-9.698 11.021 1.611 17.928 11.871 16.151 26.691-1.7 14.136-65.167 50.905-102.647 50.905-30.572 0-58.519-84.025-67.854-109.075-9.336-25.05-19.082-80.013 9.76-81.67z"/><path stroke="#7F7F7F" stroke-linecap="round" stroke-linejoin="round" d="M172.536 518.654a17.249 17.249 0 0 1 9.624-3.375M165.052 530.479a29.137 29.137 0 0 1 2.383-5.776M196.444 649.95a481.25 481.25 0 0 1-24.045-53.017c-5.814-15.611-11.795-42.819-8.501-61.499"/><path fill="#212527" stroke="#212527" stroke-linecap="round" stroke-linejoin="round" d="M183.131 509.67s8.486-12.388 0-22.633c-8.485-10.245-47.209-32.376-61.691-26.919a8.518 8.518 0 0 0-5.026 4.42 8.535 8.535 0 0 0-.287 6.691s29.115 1.277 67.004 38.441z"/><path stroke="#7F7F7F" stroke-linecap="round" stroke-linejoin="round" d="M178.426 506.16a192.544 192.544 0 0 1 3.628 3.481M126.069 473.51c10.065 3.04 26.338 10.199 45.692 26.721M115.095 471.199c1.706.13 3.401.384 5.07.76M269.93 666.412s0-8.877-4.66-11.309c-4.66-2.432-.85 11.309-5.51 22.633M220.732 569.467s3.826.395 7.211 37.559"/><path fill="#212527" stroke="#212527" stroke-linecap="round" stroke-linejoin="round" d="M163.003 427.727l3.248.608a32.167 32.167 0 0 0 3.173 13.193c3.036 5.655 7.347 6.734 17.472 17.739 9.442 10.244 13.784 3.572 14.33 2.614a7.596 7.596 0 0 1-5.92 4.56c-10.398 1.018-16.698-2.219-17.655 6.582-1.669-6.81-7.104-15.003-11.4-25.248a44.59 44.59 0 0 1-3.248-20.048z"/><path fill="#212527" d="M167.435 421.329c1.199-7.007-6.072-21.28-2.262-17.966 3.81 3.313 8.774 15.534 14.709 20.185 5.936 4.651 5.374 15.55 13.86 10.975a16.309 16.309 0 0 1 12.144-1.52c-.193.489-.33.999-.41 1.52-1.412 8.481.273 30.825-10.14 31.844-3 .223-6.01.289-9.017.197-5.89-6.171-14.3-15.337-17.518-20.657-5.207-8.527-2.55-17.571-1.366-24.578z" opacity=".3"/><path stroke="#212527" stroke-linecap="round" stroke-linejoin="round" d="M203.549 441.589s-5.328-2.325-5.222-5.669"/></svg>
