<?xml version="1.0" encoding="UTF-8"?>
<svg xmlns="http://www.w3.org/2000/svg" fill="none" viewBox="0 0 760 760" width="1920" height="1920"><path fill="#fff" d="M603.744 177.11H206.492c-13.54 0-24.517 10.977-24.517 24.518v258.096c0 13.541 10.977 24.518 24.517 24.518h397.252c13.541 0 24.518-10.977 24.518-24.518V201.628c0-13.541-10.977-24.518-24.518-24.518z"/><mask id="a" style="mask-type:luminance" width="448" height="308" x="181" y="177" maskUnits="userSpaceOnUse"><path fill="#fff" d="M603.744 177.11H206.492c-13.54 0-24.517 10.977-24.517 24.518v258.096c0 13.541 10.977 24.518 24.517 24.518h397.252c13.541 0 24.518-10.977 24.518-24.518V201.628c0-13.541-10.977-24.518-24.518-24.518z"/></mask><g mask="url(#a)"><path fill="#3BC372" d="M228.684 177.11v307.132h-22.192a24.521 24.521 0 0 1-24.517-24.518V201.628a24.518 24.518 0 0 1 24.517-24.518h22.192z"/></g><path stroke="#212527" stroke-miterlimit="10" d="M603.744 177.11H206.492c-13.54 0-24.517 10.977-24.517 24.518v258.096c0 13.541 10.977 24.518 24.517 24.518h397.252c13.541 0 24.518-10.977 24.518-24.518V201.628c0-13.541-10.977-24.518-24.518-24.518z"/><path stroke="#212527" stroke-linecap="round" stroke-linejoin="round" d="M338.185 370.241v-1.368M488.239 370.241v-1.368M345.572 370.241v-54.796M345.572 363.402h3.755M345.572 356.547h3.755M345.572 349.691h3.755M345.572 342.836h3.755M345.572 335.996h3.755M345.572 329.141h3.755M345.572 322.301h3.755M345.572 315.445h3.755"/><path fill="#212527" d="M472.766 329.141h-8.315v41.1h8.315v-41.1z"/><path fill="#3BC372" d="M463.539 359.967h-8.314v10.275h8.314v-10.275z"/><path fill="#212527" d="M454.313 357.914h-8.314v12.327h8.314v-12.327z"/><path fill="#FDD835" d="M445.071 335.996h-8.314v34.261h8.314v-34.261z"/><path fill="#212527" d="M435.845 349.691h-8.314v20.551h8.314v-20.551z"/><path fill="#3BC372" d="M426.603 353.127h-8.314v17.115h8.314v-17.115z"/><path fill="#212527" d="M417.362 356.547h-8.315v13.695h8.315v-13.695z"/><path fill="#FDD835" d="M408.135 322.301h-8.314v47.956h8.314v-47.956z"/><path fill="#212527" d="M398.909 363.402h-8.314v6.856h8.314v-6.856z"/><path fill="#3BC372" d="M389.667 349.691h-8.314v20.551h8.314v-20.551z"/><path fill="#212527" d="M380.441 336.178h-8.315v34.261h8.315v-34.261z"/><path fill="#FDD835" d="M371.2 342.836h-8.315v27.406h8.315v-27.406z"/><path fill="#212527" d="M361.973 356.547h-8.314v13.695h8.314v-13.695z"/><path stroke="#212527" stroke-linecap="round" stroke-linejoin="round" d="M338.185 370.242h150.054"/><path fill="#fff" stroke="#212527" stroke-linecap="round" stroke-linejoin="round" d="M326.679 205.2a1.845 1.845 0 0 1 1.699 1.136 1.845 1.845 0 0 1 0 1.407 1.851 1.851 0 0 1-.996.996c-.223.092-.462.14-.703.14a1.856 1.856 0 0 1-1.84-1.84 1.84 1.84 0 0 1 1.84-1.839z"/><path stroke="#212527" stroke-linecap="round" stroke-linejoin="round" d="M259.115 284.498h197.524M259.115 284.498v-1.945M269.511 284.498v-1.945M279.893 284.498v-1.945M290.29 284.498v-1.945M300.687 284.498v-1.945M311.083 284.498v-1.945M321.48 284.498v-1.945M331.877 284.498v-1.945M342.274 284.498v-1.945M352.67 284.498v-1.945M363.067 284.498v-1.945M373.464 284.498v-1.945M383.861 284.498v-1.945M394.258 284.498v-1.945M404.655 284.498v-1.945M415.051 284.498v-1.945M425.448 284.498v-1.945M435.845 284.498v-1.945M446.242 284.498v-1.945M456.639 284.498v-1.945M259.115 284.499v-77.475M259.115 269.01h4.94M259.115 253.506h4.94M259.115 238.018h4.94M259.115 222.514h4.94M259.115 207.024h4.94M274.71 222.514l-10.397 46.496M285.107 248.855l-10.397-26.341M295.503 238.018l-10.397 10.837M305.9 265.91l-10.397-27.892M316.282 222.514L305.9 265.91M326.679 207.024l-10.397 15.489M337.076 276.747l-10.397-69.723M347.472 272.096l-10.397 4.651M357.869 270.545l-10.397 1.55M368.266 265.908l-10.397 4.636M378.662 259.707l-10.396 6.202M389.059 262.808l-10.396-3.101M399.456 269.01l-10.396-6.201M409.853 236.467l-10.397 32.543M420.25 231.814l-10.397 4.652M430.647 225.613l-10.397 6.202M441.043 231.815l-10.397-6.202M451.425 238.016l-10.382-6.202"/><path fill="#fff" stroke="#212527" stroke-linecap="round" stroke-linejoin="round" d="M264.313 267.17a1.828 1.828 0 0 1 1.311.549 1.824 1.824 0 0 1 .528 1.321 1.837 1.837 0 0 1-3.678 0 1.835 1.835 0 0 1 1.128-1.727c.225-.095.467-.143.711-.143zM274.71 220.674a1.834 1.834 0 0 1 1.699 1.135 1.85 1.85 0 0 1 0 1.408 1.835 1.835 0 0 1-1.699 1.135 1.848 1.848 0 0 1-1.301-.538 1.848 1.848 0 0 1-.538-1.301 1.835 1.835 0 0 1 1.839-1.839zM285.107 247.016a1.834 1.834 0 0 1 1.699 1.135 1.838 1.838 0 0 1-3 2.004 1.837 1.837 0 0 1 0-2.601 1.848 1.848 0 0 1 1.301-.538zM295.503 236.178a1.836 1.836 0 0 1 1.839 1.824 1.837 1.837 0 0 1-3.139 1.3 1.838 1.838 0 0 1-.399-2.002 1.826 1.826 0 0 1 1.699-1.122zM305.9 264.07a1.84 1.84 0 0 1 1.839 1.84 1.837 1.837 0 0 1-3.678 0 1.84 1.84 0 0 1 1.839-1.84zM316.312 220.674a1.84 1.84 0 1 1 0 3.68 1.84 1.84 0 0 1 0-3.68zM337.076 274.906a1.84 1.84 0 1 1-.002 3.679 1.84 1.84 0 0 1 .002-3.679zM347.472 270.272a1.82 1.82 0 0 1 1.839 1.824 1.843 1.843 0 0 1-1.839 1.839 1.836 1.836 0 0 1-1.839-1.839 1.835 1.835 0 0 1 1.839-1.824zM357.869 268.721a1.82 1.82 0 0 1 1.839 1.824 1.834 1.834 0 0 1-1.135 1.699 1.84 1.84 0 0 1-2.543-1.699 1.839 1.839 0 0 1 1.839-1.824zM368.266 264.07a1.84 1.84 0 0 1 1.839 1.84 1.837 1.837 0 0 1-3.678 0 1.848 1.848 0 0 1 1.135-1.7c.223-.092.462-.14.704-.14zM378.662 257.867a1.84 1.84 0 0 1 1.84 1.839 1.841 1.841 0 0 1-3.135 1.291 1.841 1.841 0 0 1-.544-1.291 1.84 1.84 0 0 1 1.839-1.839zM389.12 260.969a1.84 1.84 0 0 1 1.84 1.839 1.843 1.843 0 0 1-1.84 1.824 1.842 1.842 0 0 1-1.839-1.824 1.846 1.846 0 0 1 .539-1.301 1.837 1.837 0 0 1 1.3-.538zM399.456 267.17a1.84 1.84 0 0 1 1.824 1.87 1.839 1.839 0 0 1-3.678 0 1.84 1.84 0 0 1 1.839-1.84l.015-.03zM409.853 234.611a1.838 1.838 0 0 1 1.3 3.14 1.838 1.838 0 0 1-3.139-1.3 1.84 1.84 0 0 1 1.839-1.84zM420.25 229.977a1.837 1.837 0 0 1 1.3 3.139 1.838 1.838 0 0 1-3.139-1.3 1.84 1.84 0 0 1 1.839-1.839zM430.647 223.773a1.85 1.85 0 0 1 1.3.539 1.835 1.835 0 0 1 .539 1.301 1.855 1.855 0 0 1-1.839 1.839 1.84 1.84 0 0 1 0-3.679zM441.043 229.977a1.84 1.84 0 0 1 1.839 1.839 1.851 1.851 0 0 1-1.839 1.839 1.84 1.84 0 0 1 0-3.678zM451.44 236.178a1.84 1.84 0 0 1 0 3.678 1.857 1.857 0 0 1-1.824-1.839 1.837 1.837 0 0 1 1.824-1.839z"/><path fill="#FFE886" d="M491.386 414.701H269.618c-5.835 0-10.564 4.73-10.564 10.564v30.355c0 5.834 4.729 10.564 10.564 10.564h221.768c5.834 0 10.564-4.73 10.564-10.564v-30.355c0-5.834-4.73-10.564-10.564-10.564z"/><path fill="#212527" d="M612.743 203.513h-76.745v3.07h76.745v-3.07zM612.743 214.639h-76.745v3.07h76.745v-3.07zM612.743 225.766h-76.745v3.07h76.745v-3.07zM612.743 236.877h-76.745v3.07h76.745v-3.07zM612.743 248.004h-76.745v3.07h76.745v-3.07zM612.743 313.271h-76.745v3.071h76.745v-3.071zM612.743 324.398h-76.745v3.071h76.745v-3.071zM612.743 335.525h-76.745v3.071h76.745v-3.071zM612.743 346.65h-76.745v3.071h76.745v-3.071zM612.743 357.777h-76.745v3.071h76.745v-3.071zM612.743 420.203h-76.745v3.071h76.745v-3.071zM612.743 431.33h-76.745v3.071h76.745v-3.071zM612.743 442.457h-76.745v3.07h76.745v-3.07zM612.743 453.584h-76.745v3.07h76.745v-3.07zM612.743 464.709h-76.745v3.07h76.745v-3.07z"/><path fill="#fff" d="M612.743 203.513h-76.745v3.07h76.745v-3.07zM612.743 214.639h-76.745v3.07h76.745v-3.07zM612.743 225.766h-76.745v3.07h76.745v-3.07zM612.743 236.877h-76.745v3.07h76.745v-3.07zM612.743 248.004h-76.745v3.07h76.745v-3.07zM612.743 313.271h-76.745v3.071h76.745v-3.071zM612.743 324.398h-76.745v3.071h76.745v-3.071zM612.743 335.525h-76.745v3.071h76.745v-3.071zM612.743 346.65h-76.745v3.071h76.745v-3.071zM612.743 357.777h-76.745v3.071h76.745v-3.071zM612.743 420.203h-76.745v3.071h76.745v-3.071zM612.743 431.33h-76.745v3.071h76.745v-3.071zM612.743 442.457h-76.745v3.07h76.745v-3.07zM612.743 453.584h-76.745v3.07h76.745v-3.07zM612.743 464.709h-76.745v3.07h76.745v-3.07z" opacity=".3"/><path fill="#fff" d="M496.25 427.469H265.62v3.07h230.63v-3.07zM496.25 439.006H265.62v3.07h230.63v-3.07zM496.25 450.559H265.62v3.07h230.63v-3.07z"/><path fill="#212527" d="M282.553 345.192l-18.073 16.872a24.723 24.723 0 0 1-6.634-17.732 24.715 24.715 0 0 1 7.85-17.228 23.862 23.862 0 0 1 16.872-6.642l-.015 24.73z"/><path fill="#FF5252" d="M282.553 345.192L304.79 334.4a24.744 24.744 0 0 1-24.947 35.269 24.745 24.745 0 0 1-15.363-7.605l18.073-16.872z"/><path fill="#212527" d="M282.553 345.192v-24.746a23.958 23.958 0 0 1 22.238 13.954l-22.238 10.792z"/><path fill="#fff" d="M282.553 345.192l-18.073 16.872a24.723 24.723 0 0 1-6.634-17.732 24.715 24.715 0 0 1 7.85-17.228 23.862 23.862 0 0 1 16.872-6.642l-.015 24.73z" opacity=".3"/><path fill="#fff" stroke="#212527" stroke-linecap="round" stroke-miterlimit="10" d="M512.438 664.011s3.04 8.558 1.368 7.6a10.28 10.28 0 0 1-4.196-5.062 11.116 11.116 0 0 0-3.815-4.757l-3.921-3.04s3.663-1.52 5.928-.441c2.264 1.079 4.636 5.7 4.636 5.7z"/><path fill="#fff" stroke="#212527" stroke-linecap="round" stroke-miterlimit="10" d="M514.429 660.576s5.259 10.199 4.317 11.02c-.943.821-1.52.729-3.496-1.11s-4.378-7.6-4.378-7.6l-4.302-4.56s6.217-2.097 7.859 2.25z"/><path fill="#FFE0C4" stroke="#212527" stroke-linecap="round" stroke-linejoin="round" d="M492.054 647.246s10.975 1.855 13.498 2.22c2.523.364 5.73 3.45 8.284 5.396 2.554 1.945 10.64 8.405 9.834 10.275-.805 1.869-3.845.167-6.596-1.931-2.752-2.097-4.804-4.271-8.74-3.556a24.03 24.03 0 0 0-7.524 2.948 48.73 48.73 0 0 0 5.684 5.564c2.539 1.945 5.716 5.912 4.424 6.779-1.292.866-3.162 1.307-6.004-1.52-2.843-2.827-12.252-6.384-14.805-9.713-5.913-7.737-13.133-8.026-13.133-8.026l12.586-10.032 2.492 1.596z"/><path fill="#CCA4EF" d="M490.109 645.331l-51.832-22.602-.167-.076-.669-.304s-.198-8.907-.578-19.654v-.258c-.273-8.482-.669-18.042-1.14-25.202 0-.288 0-.577-.076-.881-.121-1.748-.243-3.329-.395-4.697l-.182-1.839c-.578-5.077-1.52-13.224-2.797-22.101a30.44 30.44 0 0 0-.259-1.52c-1.672-11.218-3.952-23.408-6.931-32.087a.936.936 0 0 0 0-.198 43.08 43.08 0 0 0-1.839-4.666c-.122-.319-.289-.608-.426-.912l-4.028-.882c-1.352-.304-3.04-.653-4.788-1.018h-.136c-6.704-1.444-15.58-3.238-20.764-3.967h-.364a33.098 33.098 0 0 0-1.718-.198h-.35c0-.137-.212-.654-.501-1.383-1.079-2.66-3.922-8.254-9.379-10.488a12.977 12.977 0 0 0-5.836-.943.122.122 0 0 0-.092 0h-.152l-1.793.137-3.557.274c-6.399.501-11.248.821-13.574.973H354.16a4.21 4.21 0 0 0-.623.243c-1.687.836-6.232 4.18-8.33 16.248-.137.73-.197 1.186-.197 1.186l-1.612.441-5.958 1.52-38.38 10.64s-2.356 9.12-5.776 22.663l-.091.38-6.415 25.415-.456 1.884c-7.706 30.567-16.416 65.619-18.559 76a3.314 3.314 0 0 0 1.277 3.36c5.016 3.724 22.177 14.166 61.119 18.513 0 0-1.626 12.419-.897 13.042h96.718l-1.262-15.428-.638-4.165-.76-4.894-1.186-7.6-1.033-6.612.653.121.563.091 55.282 11.963 12.51-10.519zM352.838 628.17a69.963 69.963 0 0 1-5.168 11.75c-1.156 2.174-2.022 3.694-2.022 3.694l-42.56-11.385h-.198l19.213-59.28.091-.198 30.674 55.389s-.03 0-.03.03z"/><mask id="b" style="mask-type:luminance" width="224" height="194" x="267" y="489" maskUnits="userSpaceOnUse"><path fill="#fff" d="M490.109 645.331l-51.832-22.602-.167-.076-.669-.304s-.198-8.907-.578-19.654v-.258c-.273-8.482-.669-18.042-1.14-25.202 0-.288 0-.577-.076-.881-.121-1.748-.243-3.329-.395-4.697l-.182-1.839c-.578-5.077-1.52-13.224-2.797-22.101a30.44 30.44 0 0 0-.259-1.52c-1.672-11.218-3.952-23.408-6.931-32.087a.936.936 0 0 0 0-.198 43.08 43.08 0 0 0-1.839-4.666c-.122-.319-.289-.608-.426-.912l-4.028-.882c-1.352-.304-3.04-.653-4.788-1.018h-.136c-6.704-1.444-15.58-3.238-20.764-3.967h-.364a33.098 33.098 0 0 0-1.718-.198h-.35c0-.137-.212-.654-.501-1.383-1.079-2.66-3.922-8.254-9.379-10.488a12.977 12.977 0 0 0-5.836-.943.122.122 0 0 0-.092 0h-.152l-1.793.137-3.557.274c-6.399.501-11.248.821-13.574.973H354.16a4.21 4.21 0 0 0-.623.243c-1.687.836-6.232 4.18-8.33 16.248-.137.73-.197 1.186-.197 1.186l-1.612.441-5.958 1.52-38.38 10.64s-2.356 9.12-5.776 22.663l-.091.38-6.415 25.415-.456 1.884c-7.706 30.567-16.416 65.619-18.559 76a3.314 3.314 0 0 0 1.277 3.36c5.016 3.724 22.177 14.166 61.119 18.513 0 0-1.626 12.419-.897 13.042h96.718l-1.262-15.428-.638-4.165-.76-4.894-1.186-7.6-1.033-6.612.653.121.563.091 55.282 11.963 12.51-10.519zM352.838 628.17a69.963 69.963 0 0 1-5.168 11.75c-1.156 2.174-2.022 3.694-2.022 3.694l-42.56-11.385h-.198l19.213-59.28.091-.198 30.674 55.389s-.03 0-.03.03z"/></mask><g mask="url(#b)"><path fill="#000" d="M427.181 589.807v40.568l55.89 22.39-5.609 3.025-56.498-12.16-1.627-16.72 1.581-27.026 6.263-10.077z" opacity=".3"/></g><path stroke="#212527" stroke-linecap="round" stroke-linejoin="round" d="M426.375 537.41l.259 20.247s4.195 16.248 3.374 21.872c-.821 5.624-6.08 16.979-9.12 20.353l-1.52 27.026 2.371 25.338"/><path fill="#212527" d="M388.253 401.584a23.755 23.755 0 0 1 9.12 10.64 43.782 43.782 0 0 1 2.584 13.376c.61 6.598.803 13.229.578 19.851-.547 12.16-3.253 24.518-.608 36.48 1.748 7.904 6.992 12.814 6.992 22.162l-16.279-2.007s-5.031-10.64-16.067-12.874l-.744-1.9s8.618.699 15.2-15.61c6.581-16.31 4.803-34.413 4.803-34.413v-18.316l-5.579-17.389z"/><path fill="#FFE0C4" d="M354.251 479.393l1.11 22.693s18.589 32.604 24.806 33.547c6.217.942 0-33.44-2.599-38.213-2.599-4.773-4.56-16.143-4.56-16.143l-18.757-1.884z"/><path fill="#FFE0C4" d="M351.91 408.164c-1.611-.988-16.431-1.641-18.468 3.542-2.948 7.6 1.87 28.88 1.125 28.789-3.541-.107-9.12-1.399-8.314 4.925.805 6.323 5.639 12.418 9.12 12.95l3.45.532A34.488 34.488 0 0 0 354.692 480c13.68 8.785 23.803 9.895 28.546 2.173a61.448 61.448 0 0 0 10.092-25.11c4.56-44.612-6.855-54.614-6.855-54.614s-32.969 6.703-34.565 5.715z"/><path fill="#212527" d="M336.285 441.453s34.2-16.158 36.297-36.267c0 0 9.622 21.401 24.776 29.533 0 0 11.279-37.741-23.605-35.537 0 0-25.202-14.714-41.755.167-16.552 14.881-12.372 55.738-24.502 79.663-12.13 23.925-53.96 40.614-18.346 80.013l9.682-36.754 46.117-13.877s1.687-12.784 10.746-15.96l-.441-12.008s-12.251-8.056-16.446-21.524c0 0-7.478-.212-11.537-9.53-4.058-9.318 2.569-11.795 9.014-7.919z"/><g stroke="#212527" stroke-linecap="round" stroke-linejoin="round" opacity=".2"><path d="M364.359 401.432a76.365 76.365 0 0 1-31.251 35.826M351.849 397.418a254.28 254.28 0 0 1-23.073 38.562M324.186 455.422c-.821 10.123-5.64 19.486-11.112 28.044-5.472 8.557-11.719 16.72-15.929 25.931-4.21 9.211-6.247 20.018-2.827 29.579M330.509 458.264a140.928 140.928 0 0 1-6.339 55.206"/></g><path fill="#CCA4EF" d="M298.832 522.271l.563-.167-.548.197-8.937 38.791-8.71 34.853 9.12-37.422 8.512-36.252z"/><path fill="#fff" d="M298.832 522.271l.563-.167-.548.197-8.937 38.791-8.71 34.853 9.12-37.422 8.512-36.252z" opacity=".5"/><path fill="#212527" d="M381.824 534.645a1.623 1.623 0 0 1-1.338.562h-.091c-4.271-.212-16.553-17.1-17.951-19.03-7.357-10.108-7.6-11.066-8.36-18.711l-.137-1.52c-.471-4.484-.729-8.862-.866-12.084 0-.988 0-1.839-.076-2.569.714.365 1.52.684 2.143 1.003V484.835c.137 3.04.38 6.976.79 10.959l.152 1.52c.715 7.357.776 7.6 7.98 17.693 8.178 11.354 14.532 17.738 16.28 18.118a1.003 1.003 0 0 1 1.261 0 1.021 1.021 0 0 1 .445.713 1.037 1.037 0 0 1-.232.807z"/><path fill="#212527" d="M382.477 530.98a1.03 1.03 0 0 1-1.018.943 1.064 1.064 0 0 1-.942-1.171c0-.136 1.52-15.2-1.019-25.171a45.587 45.587 0 0 0-5.107-12.266 8.487 8.487 0 0 1-1.657-4.15v-.745-.456c0-.608 0-1.185-.091-1.763.693.053 1.389.053 2.082 0 0 .395 0 .806.092 1.201.091.395 0 .699 0 1.049v.897a8.908 8.908 0 0 0 1.261 2.918 45.92 45.92 0 0 1 5.335 12.798c2.63 10.291 1.14 25.293 1.064 25.916zM366.32 526.482a1.067 1.067 0 0 0-1.52-.365 22.635 22.635 0 0 0-4.955 5.792 49.122 49.122 0 0 0-5.168 11.05l-11.081-24.928c.228-1.626 1.839-8.786 3.268-14.881a21.995 21.995 0 0 1 7.174-10.959 1.047 1.047 0 0 0 0-1.52 1.074 1.074 0 0 0-1.143-.375 1.08 1.08 0 0 0-.377.193 23.861 23.861 0 0 0-7.888 12.16c-1.627 6.9-3.329 15.276-3.329 15.276v.395l13.406 30.096h.441l.593-2.159a57.403 57.403 0 0 1 5.745-13.041 23.679 23.679 0 0 1 4.317-5.214 1.053 1.053 0 0 0 .662-1.09 1.046 1.046 0 0 0-.145-.43z"/><path fill="#212527" d="M401.933 539.903l.335-.121-.623-3.8c-.152-.943-3.694-23.028-11.75-35.66-8.056-12.631-14.273-12.16-14.546-12.16a1.08 1.08 0 0 0-.447 1.814c.183.176.422.282.675.299 0 0 5.304-.213 12.555 11.127 5.502 8.633 9.029 22.8 10.549 30.278a36.023 36.023 0 0 0-7.6-7.965 8.32 8.32 0 0 0-6.521-1.201 1.05 1.05 0 0 0-.075 1.886c.233.124.504.157.759.09a6.63 6.63 0 0 1 4.849 1.064c2.614 1.52 7.858 8.604 9.652 11.127l2.188 3.222zM373.053 609.367a.489.489 0 0 1-.455-.289.515.515 0 0 1 .197-.699l32.3-17.875a.546.546 0 0 1 .699.304.515.515 0 0 1-.182.623l-32.285 17.86a.625.625 0 0 1-.274.076zM389.849 604.002a.563.563 0 0 1-.503-.479.48.48 0 0 1 .116-.373.484.484 0 0 1 .159-.121l17.526-9.12a.518.518 0 0 1 .194-.072.516.516 0 0 1 .391.108.495.495 0 0 1 .129.162.53.53 0 0 1-.228.729l-17.51 9.12a.56.56 0 0 1-.274.046zM316.616 550.407a.526.526 0 0 1-.471-.334 220.822 220.822 0 0 0-13.68-24.852.518.518 0 0 1 .152-.715.527.527 0 0 1 .395-.058.522.522 0 0 1 .319.241 223.978 223.978 0 0 1 13.817 25.049.548.548 0 0 1-.273.7l-.259-.031zM389.652 564.298a.486.486 0 0 1-.532-.38 157.056 157.056 0 0 0-9.257-27.557.518.518 0 0 1 .943-.426 155.07 155.07 0 0 1 9.348 27.846.518.518 0 0 1-.426.593l-.076-.076z"/><path fill="#212527" d="M424.187 507.389c.06.862.136 1.911.228 3.147a27.177 27.177 0 0 1-.669-.836c-2.326-3.116-19.319-4.94-30.856-5.442-.806 0-1.611-.076-2.341-.076h-.091a1.015 1.015 0 0 1-.912-1.064c.012-.135.043-.268.091-.395a1.034 1.034 0 0 1 .988-.593l1.87.076c5.806.274 21.933 1.171 29.472 4.135.775.27 1.519.621 2.22 1.048zM430.16 572.568c.137.745.228 1.52.35 2.204l-.532-.319a1.043 1.043 0 0 1-.32-1.52s.076-.121.122-.137a.609.609 0 0 1 .38-.228zM395.2 434.203v-.79c0-1.976-.152-3.983-.258-5.959v-.38l-.821 1.52-.198.35-.744 1.337v2.767c.121 5.837-.183 11.962-.654 17.86-.182 2.432-.426 4.803-.654 7.098a55.002 55.002 0 0 1-9.424 23.606v.091a7.433 7.433 0 0 1-1.352 1.748 8.984 8.984 0 0 1-2.964 2.037l-.669.258a5.893 5.893 0 0 1-.851.243c-.412.091-.828.157-1.247.198a4.448 4.448 0 0 1-.653 0h-2.083a22.196 22.196 0 0 1-3.724-.669 43.72 43.72 0 0 1-10.366-4.56c-.654-.395-1.338-.79-2.022-1.231a.432.432 0 0 1-.137-.091l-.79-.502a33.885 33.885 0 0 1-15.398-20.383l-.136-.76-4.226-.654c-3.04-.471-7.478-6.201-8.208-12.038a3.721 3.721 0 0 1 .471-3.04c.867-1.049 3.116-.912 5.062-.79.504.066 1.011.102 1.52.106.597.038 1.196.038 1.793 0l-1.246-1.87h-.486l-1.384-.212c-2.204-.137-4.666-.289-6.308.942-.132.076-.246.18-.334.304a.557.557 0 0 0-.228.167 5.683 5.683 0 0 0-1.246 3.451v.197a.1.1 0 0 0 0 .076c.026.355.087.706.182 1.049a20.577 20.577 0 0 0 4.56 10.184 9.73 9.73 0 0 0 5.411 3.694l2.782.425a36.16 36.16 0 0 0 15.99 20.946l.137.091h.076c.334.213.638.441.973.638l.851.532.669.411c.342.224.697.427 1.064.608l.319.152.638.334a45.738 45.738 0 0 0 10.291 3.998c.577.152 1.155.289 1.763.41a14.16 14.16 0 0 0 1.824.228H375.744a6.21 6.21 0 0 0 .745-.091h.426c.142-.035.279-.086.41-.152.145-.021.288-.057.426-.106a11.255 11.255 0 0 0 6.323-5.077c4.925-8.087 8.557-14.607 10.245-25.582.258-2.599.456-5.183.608-7.782.273-5.107.395-10.26.273-15.337z"/><path fill="#212527" d="M370.88 439.599c0 1.702-.654 3.04-1.52 3.04-.867 0-1.52-1.384-1.52-3.04 0-1.657.669-3.04 1.52-3.04s1.52 1.352 1.52 3.04zM388.603 440.692c0 1.703-.669 3.04-1.52 3.04s-1.52-1.383-1.52-3.04c0-1.656.638-3.04 1.52-3.04s1.505 1.384 1.52 3.04zM358.72 430.539a1.124 1.124 0 0 1-.517-.228 1.079 1.079 0 0 1-.137-1.52 12.888 12.888 0 0 1 5.405-3.524 12.882 12.882 0 0 1 6.436-.458 1.045 1.045 0 0 1 .882 1.2 1.065 1.065 0 0 1-1.201.882 10.64 10.64 0 0 0-9.789 3.298 1.136 1.136 0 0 1-1.079.35zM391.917 434.385a1.102 1.102 0 0 1-.73-.456 7.7 7.7 0 0 0-7.995-3.693 1.078 1.078 0 0 1-1.277-.791 1.012 1.012 0 0 1 .1-.778 1.002 1.002 0 0 1 .63-.468 9.775 9.775 0 0 1 10.275 4.56 1.063 1.063 0 0 1-.228 1.52 1.078 1.078 0 0 1-.775.106zM376.382 457.595a1.067 1.067 0 0 1-.803-1.164 1.062 1.062 0 0 1 1.062-.934s2.766.335 3.602-1.52c.426-.881.167-1.52-.365-2.508a9.484 9.484 0 0 1-1.079-4.165 48.38 48.38 0 0 1 1.034-8.496 1.05 1.05 0 1 1 2.052.44 46.106 46.106 0 0 0-.988 8.041 7.24 7.24 0 0 0 .881 3.283c.415.654.662 1.399.721 2.17a4.725 4.725 0 0 1-.386 2.254c-1.459 3.085-5.533 2.629-5.731 2.599zM366.32 464.496a10.291 10.291 0 0 1-6.353-3.298 1.07 1.07 0 0 1 .136-1.52 1.026 1.026 0 0 1 .787-.274 1.025 1.025 0 0 1 .733.395 9.777 9.777 0 0 0 3.474 2.151 9.785 9.785 0 0 0 4.05.54 1.062 1.062 0 0 1 1.125.972 1.046 1.046 0 0 1-.942 1.14 13.841 13.841 0 0 1-3.01-.106z"/><path stroke="#212527" stroke-linecap="round" stroke-linejoin="round" d="M423.396 508.379s15.625 45.494 13.269 113.666l53.444 23.286-12.647 10.473-56.498-12.16"/><path fill="#FDD835" stroke="#000" d="M382.851 532.524c.075-.17.126-.345.158-.522l6.74 10.695-1.623 9.164-4.95.886-8.148-6.564.867-13.464c2.083.802 3.584 1.112 4.66 1.08.598-.017 1.089-.142 1.479-.368a1.95 1.95 0 0 0 .817-.907z"/><path fill="#FDD835" stroke="#000" d="M388.026 628.785l-4.551-75.328 3.807-4.772 18.415 74.348-6.028 16.105-11.643-10.353zM377.068 532.926v3.622l-14.109-8.068a13.454 13.454 0 0 1 5.128-4.171l8.981 8.617zM382.324 538.425l-1.939-2.985 1.646-11.657c.173-.049.415-.114.709-.182a15.759 15.759 0 0 1 2.383-.374c.913-.067 1.863-.037 2.698.184.727.192 1.344.522 1.788 1.039l-7.285 13.975z"/><path stroke="#212527" stroke-linecap="round" stroke-linejoin="round" d="M369.892 430.16a9.452 9.452 0 0 1 8.007 12.231 9.45 9.45 0 0 1-8.187 6.586 9.454 9.454 0 0 1-10.232-10.442 9.451 9.451 0 0 1 1.102-3.519 9.455 9.455 0 0 1 5.637-4.534 9.436 9.436 0 0 1 3.673-.322zM391.142 432.515c4.651.487 7.98 5.107 7.417 10.291-.562 5.183-4.788 8.998-9.439 8.496-4.651-.501-7.98-5.122-7.417-10.305.562-5.183 4.788-8.983 9.439-8.482zM358.902 438.565l-23.575-1.536M378.556 437.76l3.891.41M302.313 632.518c-10.823-1.11-21.067 11.613-21.067 11.613M278.692 635.162s14.561-8.132 27.01-1.778M436.666 622.045s-9.029 4.013-11.081 12.16M341.058 391.141c6.08-4.879 26.478-4.697 32.512 9.773"/><path fill="#000" d="M360.134 646.182l2.097-11.035 17.632-7.037h-15.428l16.127-9.47-17.084 3.405s-33.182-53.383-47.896-75.559c-1.976-2.964-3.602-5.366-4.788-7.007l4.317 16.552.623 2.387 1.019 3.906 2.128 8.147-10.443-12.372 3.998 14.515-20.231 57.153-8.056 3.115h-.137l-2.751 1.065 10.929 1.003-7.95 5.989 15.2-2.691 102.706 23.849 1.049-3.785-43.061-12.13zm-12.464-6.247c-1.156 2.174-2.022 3.694-2.022 3.694l-42.56-11.385h-.198l19.867-58.961c.471.928 28.287 51.574 30.111 54.872l-5.198 11.78z" opacity=".3"/><path stroke="#212527" stroke-linecap="round" stroke-linejoin="round" d="M273.417 623.715l23.758-94.012M330.205 668.951l-.669-.076"/><path fill="#FFE0C4" stroke="#212527" stroke-linecap="round" stroke-linejoin="round" d="M441.712 656.213c-5.381-3.754-11.415-3.465-16.537-3.283-3.679.122-12.282 3.542-20.87 5.685a5.516 5.516 0 0 1-1.642.076c0 .836-1.52 7.478-2.173 11.005.901.002 1.799-.105 2.675-.319a4.41 4.41 0 0 1 2.219.136 32.71 32.71 0 0 0 5.943 1.277c3.39.487 9.82-.213 12.16 2.645a35.693 35.693 0 0 0 6.78 5.958c2.006 1.52 4.377 3.162 6.992 2.828 2.158-.274-.563-2.022-1.186-2.6a45.508 45.508 0 0 1-5.001-6.338c-.517-.684-2.234-3.496-3.116-3.663.864.17 1.737.291 2.615.365 1.185.091 2.386 1.155 3.936 2.371a39.176 39.176 0 0 0 4.15 3.04c.638.471 8.238 4.773 7.828 1.52-.137-1.003-1.854-2.235-2.508-2.903a60.84 60.84 0 0 0-11.02-8.892l6.202 1.672a30.106 30.106 0 0 1 3.146 2.143c.562.471 1.201.988 1.885 1.52 1.14.881 4.271 2.675 5.715 1.976 2.326-1.11-4.818-7.965-5.943-8.847-1.125-.881-7.479-4.651-7.783-4.894l-1.322-.669-.213-.167a56.207 56.207 0 0 1 8.968 4.469c2.326 1.809 4.834 5.001 7.418 3.268 2.584-1.733-3.937-5.624-9.318-9.379z"/><path stroke="#212527" stroke-linecap="round" stroke-linejoin="round" d="M322.727 573.221l-20.414 59.28 100.852 25.84-3.405 12.114a377.095 377.095 0 0 1-68.4-1.368l-1.033-.137"/><path stroke="#212527" stroke-linecap="round" stroke-linejoin="round" d="M314.336 557.49l38.502 70.665-4.804 11.081M645.65 682.404h-531.3"/><path fill="#fff" stroke="#212527" stroke-linecap="round" stroke-linejoin="round" d="M557.262 679.166h-69.859v3.253h69.859v-3.253zM611.009 563.799H460.408v97.128h150.601v-97.128z"/><path fill="#212527" stroke="#212527" stroke-linecap="round" stroke-linejoin="round" d="M610.994 563.799H468.616v97.128h142.378v-97.128z"/><path fill="#fff" stroke="#212527" stroke-linecap="round" stroke-linejoin="round" d="M525.935 608.928h32.954l1.2 73.781h-32.953l-1.201-73.781z"/><path fill="#212527" stroke="#212527" stroke-linecap="round" stroke-linejoin="round" d="M561.929 607.59h-32.954v74.981h32.954V607.59z"/><path stroke="#212527" stroke-linecap="round" stroke-linejoin="round" d="M562.704 661.154v-51.345h-35.918"/><path fill="#fff" stroke="#212527" stroke-linecap="round" stroke-linejoin="round" d="M459.359 677.434H358.477v5.274h100.882v-5.274z"/><path fill="#fff" stroke="#212527" stroke-linecap="round" stroke-linejoin="round" d="M510.796 677.434H384.56v5.274h126.236v-5.274z"/><path fill="#3BC372" d="M160.087 610.629a26.167 26.167 0 0 0 0-21.158c-5.001-11.522-19.289-12.16-19.289-12.16s4.225 4.256 4.377 14.242c.152 9.986 5.624 17.966 14.912 19.076zM153.003 616.877s-5.244-13.285-15.762-16.143c-10.519-2.857-18.727 5.624-25.247 3.299 0 0 15.26 21.188 41.009 12.844zM192.797 603.166s4.423-20.08-18.833-23.135c0 0 2.173 1.52 3.617 8.269 1.444 6.749 2.144 14.03 15.216 14.866zM192.554 635.907s2.386-18.24 29.473-15.397c0 0-3.542 1.641-6.08 7.6-2.539 5.958-5.244 12.221-23.393 7.797zM205.079 595.536s5.745-18.772 25.84-15.003c.015 0-2.144 20.855-25.84 15.003z"/><path fill="#fff" d="M160.087 610.629a26.167 26.167 0 0 0 0-21.158c-5.001-11.522-19.289-12.16-19.289-12.16s4.225 4.256 4.377 14.242c.152 9.986 5.624 17.966 14.912 19.076zM153.003 616.877s-5.244-13.285-15.762-16.143c-10.519-2.857-18.727 5.624-25.247 3.299 0 0 15.26 21.188 41.009 12.844zM192.797 603.166s4.423-20.08-18.833-23.135c0 0 2.173 1.52 3.617 8.269 1.444 6.749 2.144 14.03 15.216 14.866zM192.554 635.907s2.386-18.24 29.473-15.397c0 0-3.542 1.641-6.08 7.6-2.539 5.958-5.244 12.221-23.393 7.797zM205.079 595.536s5.745-18.772 25.84-15.003c.015 0-2.144 20.855-25.84 15.003z" opacity=".3"/><path fill="#212527" d="M160.892 650.65h40.326l-5.411 30.856h-29.413l-5.502-30.856z"/><path stroke="#212527" stroke-linecap="round" stroke-linejoin="round" d="M183.434 654.314l13.436-45.22 14.988-29.731M222.026 587.236l-17.799 7.251M188.602 594.486l7.812 16.143M202.601 631.271l-14.668 7.905M155.025 599.199l28.409 64.129M164.844 621.36l-29.625-12.708"/></svg>
