<?xml version="1.0" encoding="UTF-8"?>
<svg xmlns="http://www.w3.org/2000/svg" fill="none" viewBox="0 0 825 735" width="1920" height="1710.5454545455"><path fill="#B3F6CE" d="M68.295 630.188h711.512v103.99H68.295z"/><path fill="#FFE0C4" d="M578.973 449.474s6.282 46.769 6.282 50.113c0 3.345 1.539 32.188 6.795 47.937 5.255 15.75 14.156 92.53 14.156 94.919 0 2.389 10.016 31.021 19.571 30.083 9.556-.938 7.627-18.138 4.76-25.287-2.866-7.149-5.928-18.616-5.928-18.616s6.884-88.478 5.928-103.731c-.955-15.254-5.308-38.647-5.308-38.647l3.822-35.391-50.078-1.38z"/><path fill="#212527" d="M625.264 673.414a8.64 8.64 0 0 1-5.663-2.637c-7.644-6.919-14.315-26.083-14.315-28.312 0-3.08-9.007-79.223-14.157-94.636-5.308-16.068-6.83-45.407-6.83-48.22 0-2.814-4.052-33.852-6.123-49.955a.89.89 0 0 1 .035-.38.884.884 0 0 1 .195-.328.99.99 0 0 1 .673-.3l50.113 1.433a.934.934 0 0 1 .637.301.908.908 0 0 1 .213.69l-3.805 35.178c.354 1.894 4.336 24.066 5.309 38.63.938 14.988-5.503 98.334-5.91 103.696.371 1.362 3.22 11.785 5.857 18.367 2.353 5.893 3.769 17.077.318 22.757a7.373 7.373 0 0 1-5.822 3.751l-.725-.035zm-45.318-223.017c.938 7.079 6.087 46.009 6.087 49.194 0 2.796 1.469 31.852 6.742 47.654 5.167 15.519 14.245 92.105 14.245 95.202 0 1.61 6.353 20.385 13.749 27.039a6.612 6.612 0 0 0 4.849 2.141 5.675 5.675 0 0 0 4.495-2.902c3.114-5.132 1.769-15.767-.461-21.235-2.849-7.078-5.928-18.598-5.963-18.704a.895.895 0 0 1 0-.301c0-.885 6.884-88.478 5.946-103.607-.938-15.13-5.203-38.311-5.309-38.541a1.284 1.284 0 0 1 0-.248l3.716-34.364-48.096-1.328z"/><path fill="#212527" d="M625.741 672.509c8.052-.796 7.946-13.165 5.999-21.234l-19.837 3.645-3.079-4.106c3.61 9.096 10.37 22.35 16.917 21.695z"/><path fill="#212527" d="M625.263 673.41c-7.626 0-14.581-15.536-17.27-22.331a.905.905 0 0 1 .389-1.098.886.886 0 0 1 1.15.231l2.743 3.68 19.288-3.539a.9.9 0 0 1 1.026.673c1.434 5.981 1.965 14.616-1.309 19.199a7.279 7.279 0 0 1-2.363 2.213 7.269 7.269 0 0 1-3.087.972h-.567zm-13.36-17.677c4.035 8.706 9.184 16.315 13.75 15.926a5.617 5.617 0 0 0 4.194-2.425c2.601-3.68 2.495-11.024 1.203-16.97l-18.987 3.539-.16-.07z"/><path fill="#FFE0C4" d="M518.365 451.862l8.104 49.636s-.477 9.538 1.434 43.425 3.822 85.894 3.822 85.894-19.023 20.049-22.42 22.916c-3.398 2.866-9.078 11.927 1.893 11.927s21.96-2.867 26.738-6.212c4.778-3.344 13.36-10.971 14.794-11.926 1.433-.956 2.849-3.823 2.849-9.06 0-5.238-1.894-13.361-1.894-18.138 0-4.778 12.387-70.145 12.387-84.939 0-14.793-1.433-46.769-1.433-46.769l2.919-34.365-49.193-2.389z"/><path fill="#212527" d="M511.199 666.542c-3.858 0-6.229-1.08-7.078-3.238-1.327-3.54 2.566-8.547 4.548-10.246 3.061-2.619 19.819-20.173 22.101-22.58-.177-4.76-1.999-53.529-3.804-85.504-1.805-31.976-1.469-42.328-1.434-43.425l-8.086-49.548a.882.882 0 0 1 .902-1.026l49.211 2.389a.904.904 0 0 1 .798.605.803.803 0 0 1 .034.351l-2.849 34.364c0 .213 1.433 32.047 1.433 46.699 0 9.502-5.043 39.461-8.724 61.332-1.981 11.768-3.68 21.943-3.68 23.606.121 2.859.423 5.708.902 8.529a72.06 72.06 0 0 1 .991 9.609c0 4.778-1.203 8.441-3.256 9.803-.495.337-2.123 1.77-4.017 3.292-3.273 2.76-7.75 6.529-10.758 8.618-5.256 3.698-16.723 6.37-27.234 6.37zm8.211-213.744l7.945 48.556v.177c0 .106-.442 9.945 1.433 43.337 1.876 33.391 3.805 85.398 3.823 85.911a.84.84 0 0 1-.248.655c-.779.814-19.147 20.102-22.491 23.004-2.247 1.929-4.866 6.017-4.035 8.282.637 1.769 3.274 2.088 5.309 2.088 11.431 0 22.031-3.115 26.225-6.034 2.937-2.071 7.379-5.805 10.617-8.53 2.106-1.769 3.539-3.026 4.194-3.415 1.132-.761 2.46-3.397 2.46-8.335a72.93 72.93 0 0 0-.974-9.36 67.527 67.527 0 0 1-.92-8.848c0-1.77 1.557-11.078 3.716-23.907 3.663-21.801 8.689-51.671 8.689-61.032 0-14.616-1.416-46.415-1.434-46.734l2.796-33.621-47.105-2.194z"/><path fill="#212527" d="M537.937 659.45c4.76-3.326 13.36-10.971 14.793-11.926 1.434-.956 2.849-3.823 2.849-9.06-.04-2.003-.206-4-.495-5.982-1.77 2-3.769 4.353-5.698 6.937-5.733 7.627-18.616 12.882-18.616 12.882l-15.147-4.795c-2.902 2.955-5.309 5.309-6.317 6.229-3.345 2.866-9.078 11.927 1.893 11.927s21.96-2.867 26.738-6.212z"/><path fill="#212527" d="M511.199 666.547c-3.858 0-6.229-1.08-7.078-3.239-1.327-3.539 2.566-8.547 4.548-10.245.884-.761 2.99-2.832 6.264-6.176a.884.884 0 0 1 .902-.212l14.847 4.689c1.911-.832 12.9-5.751 17.943-12.475 1.77-2.283 3.645-4.637 5.751-6.99a.889.889 0 0 1 .924-.258.893.893 0 0 1 .616.736c.287 2.017.452 4.05.495 6.087 0 4.778-1.203 8.441-3.256 9.803-.495.336-2.123 1.77-4.017 3.292-3.273 2.76-7.75 6.529-10.759 8.617-5.202 3.699-16.669 6.371-27.18 6.371zm4.672-18.032c-3.097 3.15-5.114 5.132-5.999 5.893-2.247 1.928-4.866 6.016-4.035 8.281.637 1.77 3.274 2.088 5.309 2.088 11.431 0 22.031-3.114 26.225-6.034 2.937-2.07 7.379-5.804 10.617-8.529 2.106-1.77 3.539-3.026 4.194-3.416 1.132-.76 2.46-3.397 2.46-8.334a37.584 37.584 0 0 0-.248-3.911c-1.575 1.77-3.026 3.628-4.353 5.397-5.804 7.733-18.457 12.953-18.988 13.166a1.01 1.01 0 0 1-.601 0l-14.581-4.601zM533.283 16.98s-9.432.884-16.209 20.35c-6.777 19.465-9.733 51.016-8.264 55.44 1.469 4.423 15.041 12.386 28.012 15.324 12.971 2.937 29.481 2.654 49.548-1.168 20.066-3.822 31.268-16.227 31.268-18.58 0-2.354-6.194-39.815-20.049-62.802-13.856-22.986-52.503-20.934-64.306-8.564z"/><path fill="#212527" d="M556.269 110.96a88.277 88.277 0 0 1-19.642-2c-12.511-2.849-26.985-10.865-28.649-15.926-1.663-5.06 1.681-37.16 8.246-56.006C522.471 19.102 531 16.5 532.858 16.148c6.618-6.708 20.722-10.335 34.489-8.849 13.767 1.487 25.003 7.84 30.984 17.696 14.263 23.694 20.173 61.315 20.173 63.261 0 2.85-11.643 15.555-31.975 19.465a163.38 163.38 0 0 1-30.26 3.239zm-22.898-93.079c-.088 0-9.007 1.203-15.466 19.766-6.83 19.465-9.661 50.645-8.263 54.856 1.397 4.212 14.864 11.909 27.374 14.758 13.042 2.955 29.587 2.548 49.176-1.185 19.589-3.734 30.419-15.767 30.543-17.696.124-1.929-6.123-39.425-19.925-62.359-7.663-12.705-21.872-16.032-29.658-16.881-13.396-1.487-27.057 2.017-33.232 8.494a.816.816 0 0 1-.549.247zM518.136 251.585s-15.059 25.765-22.775 70.782c-7.715 45.017-2.742 137.229-2.742 137.229h147.686s1.363-98.157-6.812-143.599c-8.176-45.442-24.774-64.377-24.774-64.377l-90.583-.035z"/><path fill="#212527" d="M640.305 460.442H492.618a.903.903 0 0 1-.884-.849c0-.92-4.902-92.849 2.743-137.424 7.644-44.575 22.738-70.782 22.898-71.029a.888.888 0 0 1 .76-.443h90.601a.92.92 0 0 1 .655.301c.177.195 16.846 19.642 24.969 64.801 8.122 45.159 6.848 142.785 6.83 143.758a.885.885 0 0 1-.885.885zm-146.873-1.769h145.971c.106-9.857.849-99.98-6.813-142.555-7.485-41.585-22.208-61.05-24.314-63.704h-89.627c-1.982 3.539-15.36 28.861-22.421 70.003-7.237 42.151-3.238 126.895-2.76 136.256h-.036z"/><path fill="#fff" d="M547.173 125.38s-42.044 16.899-42.752 18.987c-.708 2.088 7.485 38.417 7.485 38.417s-2.406 17.696 0 31.852a72.554 72.554 0 0 0 7.273 22.473s-3.114 10.618-1.044 14.511c2.07 3.893 27.322 8.688 49.424 8.264 22.101-.425 41.159-6.919 41.159-8.3 0-1.38 1.027-13.484 1.027-13.484s22.827-93.697 22.473-96.458c-.354-2.76-49.087-18.332-49.087-18.332l-35.958 2.07z"/><path fill="#212527" d="M565.346 260.791c-21.04 0-45.619-4.424-47.99-8.848-2.035-3.734.266-12.688.867-14.829a74.723 74.723 0 0 1-7.184-22.438c-2.283-13.431-.266-30.082 0-31.852-1.982-8.847-8.14-36.612-7.432-38.735.707-2.124 23.906-11.732 43.265-19.465h.283l35.958-2.071a1.06 1.06 0 0 1 .318 0c22.491 7.185 49.353 16.316 49.707 19.059.354 2.742-18.687 81.116-22.491 96.794-.336 4.035-1.009 12.21-1.009 13.272 0 2.689-21.093 8.847-42.027 9.184l-2.265-.071zm-60.164-116.065c-.177 2.389 4.494 24.384 7.52 37.868a.949.949 0 0 1 0 .319c0 .177-2.371 17.695 0 31.533a71.92 71.92 0 0 0 7.078 22.173c.118.216.15.469.089.708-.85 2.884-2.672 10.989-1.115 13.837 1.77 3.221 25.995 8.193 48.663 7.84 20.597-.319 38.24-6.035 40.275-7.68.088-2.248.991-12.812 1.026-13.29 8.954-36.771 22.137-92.016 22.473-96.157-2.353-2.389-30.666-12.033-48.326-17.696l-35.657 2.071c-15.182 6.193-39.814 16.51-41.956 18.474h-.07z"/><path fill="#fff" d="M550.678 118.744s-6.778 2.071-8.848 6.194c-2.07 4.123-2.654 17.695-3.539 23.004-.885 5.308-1.77 12.086-1.77 12.086l17.997-11.785 23.287 15.041s6.795-30.083 7.379-34.807c.584-4.725-.301-5.893-1.77-7.963-1.468-2.071-7.078-4.424-7.963-4.424-.884 0-24.773 2.654-24.773 2.654z"/><path fill="#212527" d="M577.805 164.133a.941.941 0 0 1-.478-.141l-22.809-14.741-17.501 11.485a.892.892 0 0 1-.956 0 .871.871 0 0 1-.407-.867s.885-6.866 1.77-12.122c.283-1.663.531-4.211.796-6.901.637-6.282 1.345-13.378 2.831-16.351 2.195-4.424 9.078-6.547 9.379-6.635h.159c2.442-.284 23.96-2.672 24.774-2.672 1.274 0 7.078 2.548 8.689 4.795 1.61 2.247 2.548 3.539 1.911 8.582-.584 4.707-7.079 33.622-7.379 34.896a.893.893 0 0 1-.531.619c-.08.028-.164.046-.248.053zm-23.287-16.81a.789.789 0 0 1 .477.141l22.226 14.351c1.292-5.715 6.565-29.392 7.078-33.48.513-4.087-.159-5.308-1.557-7.273-1.398-1.964-6.53-4.052-7.308-4.123-.779-.07-15.077 1.593-24.562 2.655-.725.23-6.494 2.194-8.246 5.715-1.345 2.672-2.052 9.91-2.636 15.732-.283 2.849-.531 5.308-.814 7.078-.602 3.539-1.186 7.75-1.522 10.139l16.368-10.723a.848.848 0 0 1 .496-.212z"/><path fill="#FFE0C4" d="M548.625 112.514l.584 17.695s4.725 16.811 5.309 17.997c.584 1.185 21.234-24.473 21.234-24.473l3.539-34.807s-12.988 10.033-16.527 12.988c-3.539 2.955-14.139 10.6-14.139 10.6z"/><path fill="#212527" d="M554.588 149.13h-.106a1.082 1.082 0 0 1-.761-.531c-.602-1.185-4.583-15.324-5.309-18.138a.94.94 0 0 1 0-.212l-.584-17.696a.868.868 0 0 1 .354-.743c.107 0 10.618-7.68 14.157-10.617 3.539-2.938 16.421-12.9 16.545-12.989a.887.887 0 0 1 .973 0 .862.862 0 0 1 .443.85l-3.539 34.807a.923.923 0 0 1-.177.46c-19.235 23.677-21.412 24.809-21.996 24.809zm-4.494-19.04c1.539 5.503 3.963 13.944 4.883 16.793 2.973-2.814 13.361-15.36 19.908-23.5l3.291-32.489c-3.539 2.796-12.121 9.414-14.864 11.697-3.185 2.654-11.856 8.954-13.82 10.369l.602 17.13z"/><path fill="#212527" d="M570.957 100.393l-21.058 26.631-1.274-14.51 22.332-12.121z"/><path fill="#212527" d="M549.863 127.913h-.265a.907.907 0 0 1-.619-.779l-1.274-14.493a.889.889 0 0 1 .46-.867l22.331-12.121a.887.887 0 0 1 1.098.212.89.89 0 0 1 0 1.115l-21.005 26.614a.898.898 0 0 1-.726.319zm-.353-14.882l1.026 11.696 17.023-21.482-18.049 9.786z"/><path fill="#FFE0C4" d="M558.942 31.434s-20.35 16.209-28.012 22.402c-7.663 6.194-10.618 8.264-10.618 8.264s4.424 21.518 5.309 27.711c.885 6.193 10.016 21.235 14.156 23.588 4.141 2.354 7.662 3.256 10.016 2.655 2.353-.602 20.934-12.971 24.473-15.626 3.539-2.654 5.025-11.502 5.025-11.502a29.22 29.22 0 0 0 11.202-9.431c4.424-6.477 2.654-15.325-1.487-16.21-4.14-.884-9.131 3.823-9.131 3.823s-15.342-17.395-20.049-24.774c-4.707-7.379-.884-10.9-.884-10.9z"/><path fill="#212527" d="M548.253 117.12a19.136 19.136 0 0 1-8.848-2.938c-4.424-2.53-13.696-17.925-14.599-24.243-.902-6.317-5.308-27.445-5.308-27.658a.877.877 0 0 1 .354-.902s3.026-2.124 10.617-8.21c7.591-6.088 28.03-22.421 28.03-22.421a.884.884 0 0 1 1.15 1.327c-.159.16-3.185 3.22 1.026 9.803 4.212 6.583 16.545 20.757 19.465 23.996 1.593-1.31 5.627-4.23 9.237-3.54a5.745 5.745 0 0 1 3.893 3.84 15.264 15.264 0 0 1-1.875 13.732 30.08 30.08 0 0 1-11.149 9.556c-.371 1.91-1.928 9.095-5.308 11.59-3.38 2.495-22.12 15.112-24.774 15.785a7.726 7.726 0 0 1-1.911.283zm-26.968-54.626c.708 3.433 4.406 21.624 5.202 27.198.903 6.3 9.998 20.827 13.732 23.004 3.734 2.176 7.202 3.097 9.361 2.566 2.159-.531 20.403-12.67 24.154-15.484 2.672-2 4.283-8.565 4.672-10.936a.843.843 0 0 1 .531-.654 28.917 28.917 0 0 0 10.83-9.131 13.718 13.718 0 0 0 1.681-12.086 4.048 4.048 0 0 0-2.619-2.76c-3.539-.78-8.299 3.538-8.353 3.538a.937.937 0 0 1-.637.23.868.868 0 0 1-.637-.3c-.619-.708-15.43-17.52-20.119-24.88a12.388 12.388 0 0 1-2.425-8.423c-5.857 4.742-19.182 15.36-25.18 20.155-5.999 4.795-9.078 7.149-10.193 7.963z"/><path fill="#212527" d="M544.555 88.042h-.142l-8.547-1.486a.891.891 0 0 1-.637-.425.957.957 0 0 1 0-.76l6.087-15.626-2.548-7.361a.885.885 0 0 1 1.222-1.076.867.867 0 0 1 .442.51l2.654 7.662c.07.194.07.407 0 .601L537.282 85l7.485 1.291a.887.887 0 0 1 .49 1.567.89.89 0 0 1-.649.203l-.053-.018zM544.431 95.073a21.649 21.649 0 0 1-3.345-.248.884.884 0 0 1-.341-1.597.901.901 0 0 1 .66-.155c.106 0 11.095 1.876 18.049-6.193a.882.882 0 0 1 .966-.286.892.892 0 0 1 .522.46.892.892 0 0 1-.161.993 21.231 21.231 0 0 1-16.35 7.026zM562.25 60.916a.884.884 0 0 1-.495-.141c-5.734-3.822-13.856-.832-13.927-.797a.883.883 0 0 1-1.15-.513.873.873 0 0 1 .017-.674.874.874 0 0 1 .496-.458c.372-.142 9.06-3.362 15.555.973a.888.888 0 0 1 .339.986.885.885 0 0 1-.835.624zM525.32 61.519a.885.885 0 0 1-.584-.23.888.888 0 0 1-.088-1.24c4.211-4.848 11.608-1.769 11.926-1.769a.92.92 0 0 1 .478 1.168.9.9 0 0 1-1.15.478s-6.547-2.654-9.909 1.22a.873.873 0 0 1-.673.373zM535.937 69.196c0 2.124-.849 3.84-1.911 3.84s-1.929-1.77-1.929-3.84.867-3.84 1.929-3.84 1.911 1.7 1.911 3.84zM556.428 69.196c0 2.124-.849 3.84-1.911 3.84s-1.911-1.77-1.911-3.84.849-3.84 1.911-3.84 1.911 1.7 1.911 3.84z"/><path fill="#fff" d="M514.313 358.502l.283-19.907h54.662l1.132 19.341-7.007-.283v-14.298h-43.177v15.147h-5.893z"/><path fill="#212527" d="M520.205 359.403h-5.892a.902.902 0 0 1-.885-.903l.283-19.907a.903.903 0 0 1 .885-.867h54.732a.882.882 0 0 1 .885.831l1.132 19.341a.89.89 0 0 1-.265.673.935.935 0 0 1-.655.265l-7.078-.283a.884.884 0 0 1-.849-.885v-13.413H521.09v14.263a.882.882 0 0 1-.885.885zm-4.99-1.77h4.106V343.37a.884.884 0 0 1 .884-.884h43.177a.9.9 0 0 1 .885.884v13.449l5.185.212-1.026-17.536h-52.945l-.266 18.138z"/><path fill="#A3B2BA" d="M514.313 358.502l.283-19.907h54.662l1.132 19.341-7.007-.283v-14.298h-43.177v15.147h-5.893z"/><path fill="#212527" d="M520.205 359.403h-5.892a.902.902 0 0 1-.885-.903l.283-19.907a.903.903 0 0 1 .885-.867h54.732a.882.882 0 0 1 .885.831l1.132 19.341a.89.89 0 0 1-.265.673.935.935 0 0 1-.655.265l-7.078-.283a.884.884 0 0 1-.849-.885v-13.413H521.09v14.263a.882.882 0 0 1-.885.885zm-4.99-1.77h4.106V343.37a.884.884 0 0 1 .884-.884h43.177a.9.9 0 0 1 .885.884v13.449l5.185.212-1.026-17.536h-52.945l-.266 18.138z"/><path fill="#FFE0C4" d="M527.815 311.749s13.148 16.262 13.484 18.333l2.424 14.156s-3.805 2.424-5.185 2.07a14.144 14.144 0 0 1-3.804-2.406s-11.75 1.769-13.148 1.769a6.735 6.735 0 0 1-4.831-5.521c0-2.778-3.114-22.827-3.114-22.827l14.174-5.574z"/><path fill="#212527" d="M538.804 347.249a2.011 2.011 0 0 1-.478 0 12.811 12.811 0 0 1-3.857-2.354c-2.283.337-11.573 1.77-12.883 1.77a7.531 7.531 0 0 1-3.858-2.31 7.524 7.524 0 0 1-1.857-4.096c0-2.141-2.035-15.784-3.097-22.685a.888.888 0 0 1 .549-.974l14.156-5.521a.886.886 0 0 1 1.009.266c3.114 3.857 13.307 16.598 13.678 18.739.372 2.142 2.407 14.157 2.407 14.157a.87.87 0 0 1-.389.885 13.503 13.503 0 0 1-5.38 2.123zm-4.07-4.212a.83.83 0 0 1 .566.213 13.218 13.218 0 0 0 3.539 2.229 9.713 9.713 0 0 0 4-1.663 3926.132 3926.132 0 0 1-2.318-13.59c-.284-1.256-6.707-9.733-12.9-17.412l-12.9 5.043c.548 3.627 3.008 19.713 3.008 22.261a6.012 6.012 0 0 0 3.946 4.636c.973 0 8.317-1.026 13.024-1.77l.035.053z"/><path fill="#fff" d="M504.421 144.367s-12.564 86.478-12.564 90.619c0 4.141 21.784 82.302 21.784 82.302l14.156-5.539-9.679-60.165 1.044-14.51s-7.963-18.333-8.3-29.056a242.669 242.669 0 0 1 1.027-25.234l-7.468-38.417z"/><path fill="#212527" d="M513.641 318.172a.965.965 0 0 1-.389-.088.918.918 0 0 1-.461-.567c-.884-3.185-21.818-78.302-21.818-82.532 0-4.229 12.068-87.221 12.581-90.76a.871.871 0 0 1 .85-.743.854.854 0 0 1 .902.708l7.397 38.417a.657.657 0 0 1 0 .265A239.537 239.537 0 0 0 511.677 208c.336 10.422 8.14 28.525 8.228 28.72.027.134.027.272 0 .407l-1.044 14.421 9.768 60.077a.92.92 0 0 1-.566.973l-14.157 5.539-.265.035zm-9.078-168.532c-4.477 30.879-11.821 82.302-11.821 85.345 0 3.044 15.254 58.75 21.483 81.117l12.599-4.92-9.556-59.457a.787.787 0 0 1 0-.194l1.027-14.316c-.92-2.123-7.963-18.881-8.282-29.162a239.657 239.657 0 0 1 1.027-25.234l-6.477-33.179z"/><path fill="#fff" d="M606.312 176.22l-19.023 75.365-30.082 63.704 14.156 5.521 48.769-76.427s21.447-92.724 21.748-96.865c.301-4.141-26.968-12.104-26.968-12.104"/><path fill="#212527" d="M571.381 321.622h-.318l-14.157-5.538a.855.855 0 0 1-.495-.496.828.828 0 0 1 0-.708l30.082-63.615 18.952-75.224a.904.904 0 0 1 1.044-.672.884.884 0 0 1 .637 1.079l-19.023 75.383-29.728 62.926 12.617 4.919 48.291-75.684c7.414-32.064 21.447-93.308 21.73-96.529.142-1.858-11.909-6.99-26.349-11.183a.903.903 0 0 1-.446-1.408.877.877 0 0 1 .597-.327.877.877 0 0 1 .345.036c8.423 2.442 27.977 8.618 27.605 13.024-.372 4.406-20.916 93.149-21.801 96.936a.784.784 0 0 1-.106.283l-48.769 76.409a.846.846 0 0 1-.708.389z"/><path fill="#FFE0C4" d="M557.207 315.163s-13.13 16.245-13.484 18.315l-2.424 14.156s3.804 2.425 5.185 2.088a14.605 14.605 0 0 0 3.804-2.424s11.768 1.77 13.148 1.77a6.758 6.758 0 0 0 4.831-5.539c0-2.761 3.114-22.827 3.114-22.827l-14.174-5.539z"/><path fill="#212527" d="M546.219 350.7a13.867 13.867 0 0 1-5.397-2.23.865.865 0 0 1-.39-.902l2.425-14.156c.353-2.142 10.617-14.882 13.66-18.74a.891.891 0 0 1 1.009-.265l14.157 5.538a.905.905 0 0 1 .566.956c-1.08 6.919-3.115 20.544-3.115 22.685a7.557 7.557 0 0 1-5.715 6.424c-1.31 0-10.618-1.345-12.883-1.681a13.188 13.188 0 0 1-3.857 2.336 2.03 2.03 0 0 1-.46.035zm-3.946-3.415a9.754 9.754 0 0 0 3.999 1.645 12.93 12.93 0 0 0 3.45-2.229c.196-.154.442-.229.691-.212 4.707.69 12.05 1.769 13.023 1.769a6.036 6.036 0 0 0 3.947-4.654c0-2.53 2.459-18.616 3.025-22.261l-12.917-5.043c-6.194 7.68-12.6 16.174-12.9 17.43-.301 1.752-1.805 11.095-2.318 13.555z"/><path fill="#A3B2BA" d="M597.146 357.106l-108.155-2.531s-8.636 85.381-6.813 92.017c1.823 6.636 11.361 7.574 11.361 7.574h99.094a8.441 8.441 0 0 0 9.751-6.583 31.866 31.866 0 0 0 1.15-13.626l-6.388-76.851z"/><path fill="#212527" d="M593.943 455.068a10.202 10.202 0 0 1-1.522-.106h-98.882c-.513 0-10.264-1.168-12.21-8.228-1.77-6.654 6.423-88.779 6.777-92.265a.904.904 0 0 1 .903-.796l108.155 2.53a.868.868 0 0 1 .849.814l6.37 76.781c.625 4.679.22 9.438-1.185 13.944a9.144 9.144 0 0 1-9.255 7.326zm-1.345-1.858a7.57 7.57 0 0 0 8.848-5.928 31.094 31.094 0 0 0 1.15-13.218l-6.317-76.091-106.527-2.495c-2.991 29.693-8.158 85.788-6.76 90.795 1.628 5.911 10.511 6.937 10.618 6.937h98.988z"/><path fill="#212527" d="M584.706 406.297l-95.166-1.77a.874.874 0 0 1-.621-.271.893.893 0 0 1-.246-.631.9.9 0 0 1 .884-.867l95.167 1.769c.232.014.45.114.61.282a.918.918 0 0 1 .257.621.888.888 0 0 1-.885.867z"/><path fill="#687E88" d="M602.349 447.51a31.866 31.866 0 0 0 1.15-13.626l-6.353-76.78s-9.555 89.91-4.548 96.989a8.441 8.441 0 0 0 9.751-6.583z"/><path fill="#212527" d="M593.943 455.069a10.337 10.337 0 0 1-1.522-.106.908.908 0 0 1-.549-.354c-5.043-7.078 3.398-88.372 4.389-97.609a.934.934 0 0 1 .885-.778.868.868 0 0 1 .867.814l6.37 76.78c.624 4.679.22 9.438-1.185 13.945a9.153 9.153 0 0 1-9.255 7.308zm-.796-1.77a7.482 7.482 0 0 0 8.334-5.998 31.083 31.083 0 0 0 1.15-13.219l-5.591-67.385c-3.469 34.825-6.831 80.568-3.893 86.585v.017z"/><path fill="#FFE0C4" d="M458.289 340.031s-.354 19.465-.496 25.022c-.141 5.556-13.979 19.129-13.979 19.129l-2.849-42.47 17.324-1.681z"/><path fill="#212527" d="M443.814 385.06h-.318a.885.885 0 0 1-.567-.778l-2.778-42.576a.883.883 0 0 1 .797-.937l17.323-1.77a.934.934 0 0 1 .691.248.903.903 0 0 1 .283.655s-.354 19.465-.496 25.039c-.141 5.574-12.794 18.297-14.245 19.73a.87.87 0 0 1-.299.276.864.864 0 0 1-.391.113zm-1.911-42.469l2.654 39.638c4.371-4.495 12.246-13.36 12.387-17.129.124-4.742.407-19.978.478-24.031l-15.519 1.522z"/><path fill="#FFE0C4" d="M451.706 345.94s-.318 12.086-.371 14.281c-.053 2.194-4.778 14.156-5.645 15.501-.867 1.345-2.159-1.433-2.071-4.459.089-3.026.797-9.591.797-9.591l-3.15-15.466"/><path fill="#212527" d="M445.195 376.943c-.129.014-.26.014-.389 0-1.522-.46-2.142-3.539-2.071-5.645 0-2.813.69-8.547.797-9.52l-3.133-15.342a.903.903 0 0 1 .691-1.044.89.89 0 0 1 .665.129.885.885 0 0 1 .379.561l3.149 15.466a.748.748 0 0 1 0 .283s-.725 6.565-.796 9.503a8.21 8.21 0 0 0 .637 3.539c1.292-2.548 5.309-12.953 5.309-14.67l.371-14.262a.905.905 0 0 1 .921-.868.891.891 0 0 1 .615.284.888.888 0 0 1 .234.637l-.372 14.262c0 2.354-4.866 14.511-5.786 15.926a1.412 1.412 0 0 1-1.221.761z"/><path fill="#E3C4FF" d="M452.645 135.023s7.751 22.244 8.547 40.859c.796 18.616.708 86.921 1.115 103.36.407 16.439-4.017 60.784-4.017 60.784l-17.324 1.77-3.84-73.543 11.697-98.688 3.822-34.542z"/><path fill="#212527" d="M440.965 342.612a.886.886 0 0 1-.584-.212.878.878 0 0 1-.23-.69l-3.84-73.543 11.715-98.847 3.804-34.453a.903.903 0 0 1 .779-.797.918.918 0 0 1 .938.602c0 .212 7.803 22.579 8.6 41.089.46 11.024.619 39.302.761 64.252.106 17.413.194 32.436.354 39.125.424 16.298-3.982 60.466-4.017 60.908a.905.905 0 0 1-.797.796l-17.324 1.77h-.159zm12.104-203.392l-3.362 30.365-11.715 98.706 3.805 72.463 15.678-1.54c.566-5.804 4.336-44.911 3.946-59.952-.159-6.724-.247-21.748-.354-39.16-.141-24.933-.3-53.193-.761-64.182-.584-13.678-5.025-29.516-7.237-36.7z"/><path fill="#fff" d="M321.591 625.44l-10.617 10.954s-19.908 17.182-20.863 20.598c-.956 3.415 6.14 12.705 24.88 6.299 18.739-6.406 20.615-11.113 25.835-12.705 5.22-1.593 11.308-2.283 12.582-17.377 1.274-15.094-31.817-7.769-31.817-7.769z"/><path fill="#212527" d="M303.188 666.383a16.368 16.368 0 0 1-11.59-3.893 6.257 6.257 0 0 1-2.372-5.733c.974-3.539 17.696-18.138 21.129-21.04l10.617-10.901a.848.848 0 0 1 .443-.247c.92-.195 22.579-4.902 30.206 1.769a7.897 7.897 0 0 1 2.186 3.148c.46 1.213.615 2.52.45 3.806-1.238 14.688-7.078 16.351-12.156 17.838l-1.044.247a18.551 18.551 0 0 0-5.008 2.725 77.862 77.862 0 0 1-20.792 9.963 37.623 37.623 0 0 1-12.069 2.318zm18.864-40.133l-10.476 10.759c-7.68 6.618-20.067 17.907-20.651 20.226a4.766 4.766 0 0 0 1.894 3.963c2.035 1.929 8.246 5.893 21.854 1.257a76.684 76.684 0 0 0 20.385-9.768 20.527 20.527 0 0 1 5.485-2.955l1.062-.301c4.796-1.38 9.75-2.814 10.883-16.298a6.112 6.112 0 0 0-2.035-5.468c-6.53-5.715-25.942-1.929-28.401-1.415z"/><path fill="#fff" d="M439.939 627.776l13.52 12.386s18.952 18.298 19.73 21.837c.779 3.539-6.83 12.387-25.198 4.937-18.368-7.45-19.978-12.21-25.11-14.068-5.132-1.858-11.166-2.902-11.626-18.032-.46-15.13 28.684-7.06 28.684-7.06z"/><path fill="#212527" d="M460.909 670.649a35.823 35.823 0 0 1-13.254-2.955 77.841 77.841 0 0 1-20.226-11.006 18.374 18.374 0 0 0-4.867-2.991l-1.026-.372c-5.026-1.769-10.723-3.733-11.166-18.474a8.403 8.403 0 0 1 3.168-7.273c7.485-5.857 25.853-.831 26.631-.601a.942.942 0 0 1 .372.194l13.519 12.387c3.203 3.079 19.2 18.598 19.979 22.155a6.29 6.29 0 0 1-2.69 5.61 15.816 15.816 0 0 1-10.44 3.326zm-36.312-44.238c-3.875 0-7.609.619-9.98 2.459a6.675 6.675 0 0 0-2.477 5.822c.407 13.519 5.308 15.218 9.98 16.864l1.062.371a19.914 19.914 0 0 1 5.308 3.239 76.435 76.435 0 0 0 19.819 10.829c13.36 5.309 19.766 1.77 21.907 0a4.788 4.788 0 0 0 2.106-3.857c-.531-2.354-12.228-14.281-19.465-21.235l-13.342-12.298a65.275 65.275 0 0 0-14.918-2.141v-.053z"/><path fill="#212527" d="M320.583 290.126l-1.522 29.321s-2.636 162.056-.867 176.212c1.77 14.157 4.176 117.215 4.176 117.215l-3.202 6.831.177 9.078s3.839 2.265 12.864 3.804c7.04.916 14.156 1.106 21.235.566l3.946-18.031 24.367-234.36L406 587.11l5.149 49.388s7.751 1.079 12.139-1.77c4.388-2.849 17.412-4.282 17.412-4.282s1.221-13.36.921-18.138c-.301-4.778-1.947-7.821-1.894-9.98.053-2.159 7.981-215.885 7.981-215.885l-3.132-97.326-123.993 1.009z"/><path fill="#212527" d="M414.529 637.577a29.051 29.051 0 0 1-3.539-.195.885.885 0 0 1-.761-.796l-5.15-49.389-23.234-198.402-23.659 226.503-3.946 18.138a.884.884 0 0 1-.796.69c-7.127.543-14.29.347-21.376-.584-9.096-1.539-13.007-3.805-13.166-3.911a.922.922 0 0 1-.442-.743l-.177-9.078a.944.944 0 0 1 0-.389l3.132-6.636c-.124-5.22-2.46-103.129-4.176-116.932-1.77-14.156.761-169.771.867-176.389l1.522-29.339a.886.886 0 0 1 .884-.849l124.028-1.08a.954.954 0 0 1 .885.867l3.132 97.326c0 2.194-7.927 213.762-7.981 215.885.07 1.108.285 2.203.638 3.256a31.835 31.835 0 0 1 1.256 6.654c.301 4.777-.885 17.695-.938 18.261a.852.852 0 0 1-.779.797c-.123 0-12.829 1.398-17.005 4.14a17.5 17.5 0 0 1-9.219 2.195zm-2.548-1.876c1.946.159 7.52.442 10.865-1.77 3.963-2.619 14.156-3.999 17.058-4.335.248-2.831 1.115-13.272.867-17.271a29.905 29.905 0 0 0-1.203-6.317 13.657 13.657 0 0 1-.69-3.752c0-2.141 7.91-213.708 7.98-215.885l-3.167-96.423-122.347 1.062-1.469 28.472c0 1.593-2.619 162.038-.867 176.123 1.752 14.086 4.159 116.278 4.176 117.304a.742.742 0 0 1-.088.389l-3.114 6.654.176 8.352a46.653 46.653 0 0 0 12.14 3.539 100.577 100.577 0 0 0 20.279.602l3.804-17.395 24.526-234.412a.92.92 0 0 1 .885-.797.906.906 0 0 1 .885.779l24.243 206.347 5.061 48.734z"/><path fill="#A3B2BA" d="M320.193 297.772a300.174 300.174 0 0 0 65.473 6.619 336.298 336.298 0 0 0 59.316-6.459l-.283-8.848-124.028 1.079-.478 7.609z"/><path fill="#212527" d="M381.455 305.311a303.739 303.739 0 0 1-61.456-6.671.882.882 0 0 1-.69-.92l.389-7.627a.882.882 0 0 1 .885-.85l124.028-1.079a.957.957 0 0 1 .884.867l.284 8.848a.872.872 0 0 1-.708.885 336.092 336.092 0 0 1-59.475 6.476l-4.141.071zm-60.341-8.246a297.987 297.987 0 0 0 64.447 6.441 334.928 334.928 0 0 0 58.395-6.282l-.23-7.273-122.347 1.062-.265 6.052z"/><path fill="#fff" d="M401.01 294.436l-17.541.677.387 10.026 17.541-.677-.387-10.026z"/><path fill="#212527" d="M383.862 306.015a.9.9 0 0 1-.601-.23.84.84 0 0 1-.284-.619l-.389-10.016a.881.881 0 0 1 .234-.636.902.902 0 0 1 .616-.284l17.536-.69a.923.923 0 0 1 .92.849l.389 10.034a.898.898 0 0 1-.849.92l-17.554.672h-.018zm.531-10.051l.319 8.246 15.766-.601-.318-8.264-15.767.619zM331.996 308.299l-.424-20.385 9.714.885 1.77 16.793"/><path fill="#212527" d="M331.997 309.184a.887.887 0 0 1-.885-.867l-.425-20.385a.901.901 0 0 1 .283-.673.912.912 0 0 1 .673-.23l9.732.885a.886.886 0 0 1 .797.796l1.769 16.793a.888.888 0 1 1-1.769.177l-1.682-16.067-8.016-.726.407 19.465a.87.87 0 0 1-.527.834.861.861 0 0 1-.34.069l-.017-.071zM427.781 307.804l-.424-20.385 9.715.885 1.769 16.793"/><path fill="#212527" d="M427.764 308.691a.9.9 0 0 1-.884-.867l-.425-20.385a.833.833 0 0 1 .283-.673.806.806 0 0 1 .672-.23l9.733.885a.906.906 0 0 1 .796.779l1.77 16.793a.886.886 0 0 1-.796.973.882.882 0 0 1-.974-.779l-1.681-16.067-8.016-.726.407 19.465a.893.893 0 0 1-.246.631.892.892 0 0 1-.621.272l-.018-.071z"/><path fill="#E3C4FF" d="M347.727 123.083s-42.735 15.572-42.912 21.96c-.177 6.388 15.767 145.104 15.767 145.104s71.49 13.254 124.028-1.08l6.158-104.846s5.202-47.087 1.769-49.158c-3.433-2.07-48.627-18.792-48.627-18.792l-56.183 6.812z"/><path fill="#212527" d="M386.322 296.548a412.63 412.63 0 0 1-65.898-5.538.906.906 0 0 1-.726-.779c-.637-5.663-15.926-138.839-15.767-145.209.177-6.672 36.259-20.156 43.496-22.775a.428.428 0 0 1 .195 0l56.289-6.848a.849.849 0 0 1 .407 0c1.858.673 45.354 16.793 48.787 18.864 3.433 2.07.177 35.692-1.398 50.025l-6.247 104.811a.883.883 0 0 1-.655.813c-18.367 5.008-39.195 6.636-58.483 6.636zm-64.943-7.078c7.22 1.256 73.33 12.122 122.382-1.009l6.176-104.244c2.478-22.314 3.964-46.486 2.194-48.379-2.565-1.558-32.542-12.812-48.22-18.616l-55.971 6.795c-17.501 6.388-42.133 17.147-42.239 21.128-.159 5.946 14.493 133.867 15.678 144.237v.088z"/><path fill="#fff" d="M361.495 108.555s-8.458 1.947-9.414 3.168c-.956 1.221-7.821 13.466-7.821 13.466l16.563 42.717 26.118-23.535 28.012 21.889s.266-32.931-1.009-42.929c-1.274-9.998-2.884-8.848-7.078-13.555-4.194-4.707-6.742-3.911-6.742-3.911l-38.629 2.69z"/><path fill="#212527" d="M360.823 168.787h-.213a.885.885 0 0 1-.619-.53l-16.563-42.735a.902.902 0 0 1 0-.743c.708-1.274 6.919-12.387 7.91-13.59.991-1.204 7.273-2.867 9.892-3.54h.141l38.541-2.672c.69-.177 3.451-.442 7.538 4.194a31.011 31.011 0 0 0 2.619 2.495c2.69 2.531 3.822 3.858 4.796 11.502 1.274 9.928 1.044 41.709 1.026 43.054a.884.884 0 0 1-1.433.69l-27.393-21.394-25.588 23.004a.89.89 0 0 1-.654.265zm-15.59-43.531l15.926 41.143 25.181-22.686a.88.88 0 0 1 1.132 0l26.543 20.774c0-7.078 0-32.524-1.026-41-.938-7.326-1.982-8.299-4.265-10.44-.743-.708-1.592-1.505-2.619-2.655-3.662-4.141-5.786-3.645-5.804-3.645h-.194l-38.559 2.69a36.781 36.781 0 0 0-8.848 2.831c-.584.832-4.724 8.087-7.467 12.988z"/><path fill="#FFE0C4" d="M357.708 98.82l.407 19.589s9.201 16.103 11.891 20.226c2.69 4.123 13.696 22.119 14.351 20.898.655-1.221 20.262-36.753 20.987-40.151.726-3.397-2.654-28.313-2.654-28.313s-18.156 15.926-24.774 16.74c-6.618.814-20.208-8.989-20.208-8.989z"/><path fill="#212527" d="M384.269 160.473c-1.062 0-2.584-1.77-12.564-17.501a326.265 326.265 0 0 0-2.442-3.857c-2.672-4.088-11.537-19.607-11.927-20.262a.896.896 0 0 1-.106-.425l-.407-19.588a.925.925 0 0 1 .478-.815.901.901 0 0 1 .92 0c.142 0 13.537 9.503 19.66 8.848 5.149-.584 19.235-12.121 24.225-16.527a.85.85 0 0 1 .885-.16.833.833 0 0 1 .566.708c.354 2.566 3.38 25.216 2.654 28.667-.442 2.088-7.255 15.183-20.243 38.93l-.832 1.504a1.054 1.054 0 0 1-.832.531l-.035-.053zM359 118.163c1.044 1.858 9.255 16.174 11.75 19.978l2.459 3.876c2.725 4.317 8.742 13.873 10.83 16.262l.372-.69c16.934-30.879 19.836-37.303 20.066-38.4.478-2.247-1.132-16.456-2.459-26.437-4.265 3.663-18.138 15.218-23.925 15.926-5.786.708-15.713-5.645-19.465-8.14l.372 17.625z"/><path fill="#212527" d="M381.154 109.349l-15.926 20.757-7.113-11.697-.407-19.589 23.446 10.529z"/><path fill="#212527" d="M365.229 130.99a.884.884 0 0 1-.708-.424l-7.078-11.697a.97.97 0 0 1-.124-.443l-.407-19.588a.877.877 0 0 1 .396-.767.884.884 0 0 1 .86-.065l23.447 10.529a.897.897 0 0 1 .493.591.89.89 0 0 1-.157.754l-15.926 20.774a.87.87 0 0 1-.796.336zM359 118.161l6.299 10.387 14.475-18.863-21.146-9.485.372 17.961z"/><path fill="#FFE0C4" d="M345.569 53.096s-4.92-1.77-6.371 5.733c-1.451 7.503 6.813 12.617 6.813 12.617l-.442-18.35z"/><path fill="#212527" d="M346.012 72.33a.956.956 0 0 1-.478-.124c-.354-.23-8.742-5.628-7.202-13.538a8.237 8.237 0 0 1 3.539-5.946 5.307 5.307 0 0 1 4.07-.46.883.883 0 0 1 .584.815l.442 18.35a.848.848 0 0 1-.442.796.957.957 0 0 1-.513.106zm-1.628-18.51a3.292 3.292 0 0 0-1.77.46 6.677 6.677 0 0 0-2.601 4.725c-.956 4.919 2.849 8.847 5.025 10.617l-.389-15.926-.265.124z"/><path fill="#FFE0C4" d="M345.481 33.507s.442 29.852.531 37.94c.088 8.086 5.149 16.615 8.051 24.472 2.902 7.857 14.97 21.235 22.774 19.89 7.804-1.345 20.562-13.13 25.747-20.757 5.185-7.627 6.724-19.093 6.724-19.093s11.06-6.23 10.618-13.396a13.788 13.788 0 0 0-5.309-10.405l-.743-18.35s-4.973-11.644-25.747-14.157c-20.775-2.512-40.275 6.69-40.275 6.69l-2.371 7.166z"/><path fill="#212527" d="M375.687 116.78c-8.529 0-19.766-13.236-22.456-20.562-.814-2.177-1.769-4.37-2.778-6.707-2.584-5.928-5.309-12.05-5.309-18.05-.088-8.086-.531-37.938-.531-37.938a.949.949 0 0 1 0-.301l2.372-7.078a.848.848 0 0 1 .46-.531c.194-.089 19.996-9.184 40.699-6.76 21.04 2.46 26.243 14.157 26.455 14.599.008.106.008.212 0 .318l.726 17.926a14.793 14.793 0 0 1 5.308 10.812c.425 6.937-8.67 12.776-10.617 13.997-.336 2.194-2.088 12.068-6.813 19.04-5.202 7.663-18.049 19.713-26.331 21.129a7.72 7.72 0 0 1-1.185.106zm-29.322-83.169c0 2.283.443 30.083.531 37.798 0 5.627 2.672 11.59 5.185 17.377.973 2.23 1.982 4.565 2.814 6.795 2.937 7.963 14.828 20.509 21.783 19.323 7.715-1.327 20.261-13.147 25.163-20.385 4.901-7.237 6.582-18.598 6.6-18.722a.895.895 0 0 1 .443-.654c.106 0 10.617-6.035 10.157-12.564a12.72 12.72 0 0 0-4.92-9.715.937.937 0 0 1-.389-.708l-.743-18.173c-.637-1.274-6.211-11.22-24.951-13.396-18.739-2.176-36.789 5.309-39.478 6.441l-2.195 6.583z"/><path fill="#212527" d="M363.672 51.36a.834.834 0 0 1-.443-.125c-8.157-4.795-12.386-1.238-12.616-1.08a.904.904 0 0 1-1.257 0 .862.862 0 0 1-.125-.968.868.868 0 0 1 .214-.27c.212-.195 5.308-4.6 14.687.885a.89.89 0 0 1 .401 1 .887.887 0 0 1-.861.647v-.09zM389.754 52.688a.918.918 0 0 1-.548-.177c-7.238-5.61-12.935-1.22-13.166-1.026a.878.878 0 0 1-.651.192.88.88 0 0 1-.596-.325.892.892 0 0 1-.192-.651.876.876 0 0 1 .325-.596s7.078-5.468 15.377.99a.904.904 0 0 1 .159 1.257.932.932 0 0 1-.708.336zM362.946 78.699a.924.924 0 0 1-.69-.319.882.882 0 0 1-.177-.778l4.848-20.42-1.645-4.478a.89.89 0 0 1 .017-.688.871.871 0 0 1 .505-.468.883.883 0 0 1 1.141.555l1.77 4.707c.044.168.044.345 0 .513l-4.654 19.571 9.113-.3a.901.901 0 0 1 .92.849.869.869 0 0 1-.849.902l-10.281.354h-.018zM374.342 86.77a23.217 23.217 0 0 1-7.238-1.168.886.886 0 0 1-.513-1.132.886.886 0 0 1 1.132-.531c.514.194 12.67 4.636 19.324-5.627a.886.886 0 0 1 1.221-.266.9.9 0 0 1 .265 1.239 16.152 16.152 0 0 1-14.191 7.485zM384.853 60.686c0 2.053-1.079 3.698-2.283 3.663-1.203-.036-2.123-1.77-2.07-3.787.053-2.017 1.079-3.698 2.283-3.663 1.203.035 2.123 1.681 2.07 3.787zM358.752 59.68c0 2.054-1.079 3.7-2.282 3.664-1.204-.035-2.124-1.77-2.071-3.787.053-2.017 1.08-3.698 2.283-3.663 1.203.035 2.07 1.717 2.07 3.787z"/><path fill="#212527" d="M364.362 4.681a59.086 59.086 0 0 0-21.642 11.432c-4.512 3.769-8.848 8.087-9.502 11.201-1.434 6.795 23.588 13.06 31.073 11.714 7.485-1.344 24.774-8.653 24.774-8.653s-1.77 8.034.389 8.406a44.087 44.087 0 0 0 9.042-1.009s-1.114 6.813-.23 8.706c1.139 2 2.435 3.905 3.876 5.698 0 0 1.256 11.22 2.495 11.573l1.221.336s2.424-8.954 3.397-10.157c.973-1.203 5.309-1.77 5.309-1.77s5.857-20.969 4.459-27.233c-1.398-6.264-12.387-12.387-12.387-12.387l-5.875-1.398a29.584 29.584 0 0 0-29.923-8.264l-6.476 1.805z"/><path fill="#212527" d="M405.91 64.933a.567.567 0 0 1-.248 0l-1.238-.336c-.531-.16-1.77-.495-3.097-12.068a43.356 43.356 0 0 1-3.84-5.68c-.743-1.629-.319-5.752 0-7.981a34.278 34.278 0 0 1-8.14.778 1.771 1.771 0 0 1-1.186-.796c-.973-1.433-.584-4.884-.23-7.078-4.424 1.77-17.182 6.937-23.464 8.069-6.282 1.133-25.181-3.061-30.489-8.6a4.53 4.53 0 0 1-1.558-4.158c.602-2.814 3.894-6.76 9.804-11.68A59.258 59.258 0 0 1 364.06 3.831l6.565-1.876a30.65 30.65 0 0 1 30.596 8.317l5.609 1.327c.08.028.157.063.23.106.46.248 11.378 6.459 12.829 13.024 1.451 6.565-4.229 26.809-4.477 27.676a.862.862 0 0 1-.743.637 10.616 10.616 0 0 0-4.742 1.398 63.686 63.686 0 0 0-3.221 9.838.937.937 0 0 1-.424.549.889.889 0 0 1-.372.106zm-.832-2.035h.213c.69-2.53 2.406-8.511 3.309-9.626.902-1.115 3.822-1.77 5.308-1.982.903-3.362 5.486-20.828 4.3-26.242-1.185-5.415-10.776-11.184-11.891-11.821l-5.733-1.38a.884.884 0 0 1-.478-.284 28.95 28.95 0 0 0-28.968-7.839l-6.547 1.77a58.117 58.117 0 0 0-21.235 11.219c-6.972 5.822-8.847 9.042-9.201 10.617a2.934 2.934 0 0 0 1.097 2.566c4.955 5.096 23.004 9.166 28.967 8.105 7.309-1.328 24.42-8.53 24.597-8.6a.869.869 0 0 1 1.192.524c.05.157.054.325.011.484-.725 3.345-.884 6.92-.3 7.344a42.313 42.313 0 0 0 8.706-1.009.937.937 0 0 1 .796.23.914.914 0 0 1 .248.779c-.443 2.725-.832 7.078-.301 8.193a44.072 44.072 0 0 0 3.787 5.52c.095.131.155.283.177.443a52.355 52.355 0 0 0 1.946 10.99z"/><path fill="#FFE0C4" d="M432.365 221.872s6.105-2.583 6.972-3.663c.867-1.079 9.414-13.448 11.644-14.775 2.23-1.328 18.138-1.416 18.138-1.416s9.237-6.335 9.679-2.495c.443 3.84-8.724 7.733-10.387 8.511-1.663.779-8.582 3.062-8.582 3.062s14.598-2.088 16.81-3.115c2.212-1.026 21.235-5.184 20.651-2.459-.584 2.725-7.857 6.636-7.857 6.636s-16.881 15.182-20.774 17.27c-3.893 2.088-33.339 5.415-33.339 5.415l-2.955-12.971z"/><path fill="#212527" d="M435.321 235.729a.885.885 0 0 1-.867-.691l-2.938-12.97a.871.871 0 0 1 .513-1.009 32.403 32.403 0 0 0 6.601-3.398c.177-.212.655-.867 1.327-1.769 4.477-6.247 8.848-12.175 10.617-13.183 2.248-1.31 15.094-1.522 18.333-1.54 1.575-1.079 7.078-4.618 9.591-3.539a2.138 2.138 0 0 1 1.221 1.77c.442 3.786-5.751 7.078-10.458 9.201l-.283.142a49.961 49.961 0 0 0 7.343-1.61c1.77-.797 18.811-4.937 21.394-2.849a1.381 1.381 0 0 1 .496 1.398c-.673 2.902-6.76 6.37-8.211 7.078-1.398 1.256-17.023 15.271-20.863 17.324-3.84 2.052-32.454 5.308-33.622 5.521l-.194.124zm-1.929-13.343l2.601 11.485c8.689-.991 29.268-3.54 32.241-5.221 3.769-2.017 20.439-16.987 20.598-17.147l.177-.123c2.513-1.363 6.565-4.053 7.326-5.787-2.495-.796-17.094 2.141-19.324 3.185-2.229 1.044-15.554 2.973-17.058 3.185a.881.881 0 0 1-.897-1.305.906.906 0 0 1 .49-.411s6.883-2.283 8.494-3.026l.442-.195c8.512-3.857 9.556-6.299 9.432-7.396 0-.319-.142-.354-.195-.39-1.115-.495-5.078 1.434-8.087 3.54a1.258 1.258 0 0 1-.495.159c-6.07 0-16.227.424-17.696 1.309-1.468.885-7.733 9.467-10.033 12.67-.69.973-1.186 1.664-1.363 1.876a26.538 26.538 0 0 1-6.653 3.592z"/><path fill="#E3C4FF" d="M421.961 221.592l13.466-1.009 1.416 18.97-14.9 2.619.018-20.58z"/><path fill="#212527" d="M421.942 243.057a.899.899 0 0 1-.884-.885v-20.58a.88.88 0 0 1 .814-.884l13.466-1.009a.823.823 0 0 1 .637.212.845.845 0 0 1 .318.602l1.398 18.97a.882.882 0 0 1-.725.937l-14.882 2.619-.142.018zm.903-20.651v18.705l13.059-2.283-1.274-17.289-11.785.867z"/><path fill="#E3C4FF" d="M326.334 131.841s-30.772 9.502-32.878 14.864c-2.106 5.362 22.296 122.099 22.721 124.116.425 2.018 4.778 5.539 7.255 5.114 2.478-.424 99.591-25.835 102.139-28.719 2.548-2.885-1.77-26.137-1.77-26.137l-77.86 3.309-6.654-60.695"/><path fill="#212527" d="M323.025 276.858a10.127 10.127 0 0 1-7.698-5.839c-.265-1.168-24.951-118.914-22.703-124.648 2.247-5.733 30.259-14.386 33.444-15.377a.926.926 0 0 1 1.15.619c.035.117.047.238.035.359a.935.935 0 0 1-.654.792c-11.75 3.627-30.896 10.723-32.312 14.333-1.77 5.167 21.447 117.657 22.756 123.603.337 1.54 4.23 4.778 6.229 4.442 5.875-1.009 98.37-25.747 101.661-28.472 1.345-1.54.142-13.573-1.77-24.597l-77.152 3.203a.862.862 0 0 1-.617-.204.862.862 0 0 1-.303-.575l-6.724-60.713a.887.887 0 0 1 .787-.982.887.887 0 0 1 .982.787l6.636 59.882 77.011-3.274a.885.885 0 0 1 .902.726c.726 3.946 4.229 23.818 1.54 26.879-2.69 3.061-101.749 28.862-102.634 29.021l-.566.035z"/><path fill="#fff" d="M381.756 381.646a.883.883 0 0 1-.814-.956l1.309-16.386a.834.834 0 0 1 .425-.672l18.456-11.184a.885.885 0 0 1 1.204.301.87.87 0 0 1-.301 1.221l-18.05 10.936-1.274 15.926a.86.86 0 0 1-.303.612.877.877 0 0 1-.652.202z"/><path fill="#FFE0C4" d="M810.851 372.545s2.619 28.313 1.964 30.596c-.655 2.283-7.485 16.598-9.449 17.572-1.964.973-14.316-2.265-16.262-2.92a48.243 48.243 0 0 1-5.539-2.601l6.176-43.62s17.589 2.601 23.11.973z"/><path fill="#212527" d="M802.127 421.76c-4.565 0-15.2-3.097-15.307-3.132a49.947 49.947 0 0 1-5.68-2.655.9.9 0 0 1-.46-.902l6.194-43.62a.836.836 0 0 1 .336-.584.922.922 0 0 1 .672-.177c.177 0 17.448 2.566 22.721 1.009a.96.96 0 0 1 .761.106.906.906 0 0 1 .372.655c.442 4.76 2.583 28.614 1.928 30.932-.654 2.318-7.467 16.899-9.891 18.102a3.972 3.972 0 0 1-1.646.266zm-19.607-7.079a38.81 38.81 0 0 0 4.849 2.248c2.973.991 14.156 3.68 15.607 2.99 1.451-.69 8.193-14.245 8.99-17.04.424-1.54-.903-18.351-1.894-29.269-5.645 1.026-18.12-.584-21.571-1.062l-5.981 42.133z"/><path fill="#212527" d="M803.047 411.831h-.23l-18.227-4.884a.888.888 0 0 1-.637-1.079.92.92 0 0 1 1.098-.637l17.2 4.618.513-6.866a34.087 34.087 0 0 1-4.194-3.061c-2.407-2.053-4.583-8.759-4.831-9.52a.902.902 0 0 1 .584-1.115.878.878 0 0 1 .668.067.88.88 0 0 1 .429.517c.619 1.929 2.584 7.237 4.3 8.706a31.837 31.837 0 0 0 4.424 3.167.924.924 0 0 1 .442.832l-.654 8.459a.87.87 0 0 1-.372.654.92.92 0 0 1-.513.142z"/><path fill="#FFD8D8" d="M809.329 155.421s14.156 103.271 14.156 119.781c0 16.51-9.98 98.086-9.98 98.086a19.199 19.199 0 0 1-15.2 3.911l-8.689-1.769-2.601-49.919-6.07-36.029 22.562-123.284s4.3-12.918 5.822-10.777z"/><path fill="#212527" d="M801.649 378.423a18.053 18.053 0 0 1-3.539-.354l-8.671-1.769a.85.85 0 0 1-.707-.814l-2.619-49.919-6.07-35.94a1.681 1.681 0 0 1 0-.301l22.615-123.249c1.77-5.309 4.211-11.484 6.14-11.768a1.332 1.332 0 0 1 1.31.602.76.76 0 0 1 .159.389c.566 4.212 14.156 103.537 14.156 119.905 0 16.369-9.891 97.326-9.997 98.21a.785.785 0 0 1-.301.549 20.282 20.282 0 0 1-12.476 4.459zm-11.219-3.68l8.016 1.592a18.342 18.342 0 0 0 14.157-3.539c.725-5.893 9.945-81.93 9.945-97.626 0-15.378-12.511-107.943-13.98-118.666a52.395 52.395 0 0 0-4.264 9.98l-22.509 123.002 6.052 35.886 2.583 49.371z"/><path fill="#212527" d="M799.402 368.072a18.438 18.438 0 0 1-8.087-1.769.903.903 0 0 1 .885-1.557c.372.23 9.591 5.22 19.819-3.38a.903.903 0 0 1 1.465.765.873.873 0 0 1-.315.597 21.067 21.067 0 0 1-13.767 5.344zM803.047 288.668a.905.905 0 0 1-.708-.354c-2.601-3.539-11.395-17.695-11.767-18.297a.877.877 0 0 1 .031-.984.89.89 0 0 1 .921-.348.881.881 0 0 1 .552.394c.089.16 9.131 14.776 11.679 18.174a.903.903 0 0 1-.177 1.238.862.862 0 0 1-.531.177zM803.047 305.603a.901.901 0 0 1-.69-.336c-5.68-6.99-14.156-31.357-14.475-32.383a.934.934 0 0 1 .593-1.177.934.934 0 0 1 1.177.593c0 .248 8.688 25.11 14.156 31.852a.863.863 0 0 1 .085.978.87.87 0 0 1-.226.261.839.839 0 0 1-.62.212z"/><path fill="#fff" d="M773.178 667.069s3.857 25.853 3.539 32.029c-.319 6.176-13.891 9.644-18.138 10.034-4.247.389-7.326 1.15-10.033-.779a37.163 37.163 0 0 0-6.565-3.539l-1.257-26.95s22.81-3.079 32.454-10.795z"/><path fill="#212527" d="M752.934 710.497a8.145 8.145 0 0 1-4.973-1.415 37.416 37.416 0 0 0-6.37-3.38.864.864 0 0 1-.566-.779l-1.151-27.021a.888.888 0 0 1 .761-.902c.23 0 22.651-3.15 31.994-10.618a.853.853 0 0 1 .867-.141.86.86 0 0 1 .548.69c.16 1.062 3.876 26.03 3.54 32.223-.443 6.99-14.9 10.494-18.935 10.865l-1.964.195a35.127 35.127 0 0 1-3.751.283zm-10.158-6.211a35.644 35.644 0 0 1 6.212 3.345c1.999 1.433 4.282 1.168 7.449.831l2-.212c5.026-.46 17.005-4.141 17.324-9.202.318-5.061-2.442-24.773-3.256-30.383-9.237 6.424-26.809 9.361-30.826 9.963l1.097 25.658z"/><path fill="#fff" d="M776.645 699.098a43.612 43.612 0 0 0-.159-5.15 43.756 43.756 0 0 1-16.439 8.618 31.268 31.268 0 0 1-18.315-2.088l.177 4.406a37.158 37.158 0 0 1 6.565 3.539c2.708 1.929 5.787 1.168 10.033.779 4.247-.39 17.749-3.929 18.138-10.104z"/><path fill="#212527" d="M752.933 710.496a8.138 8.138 0 0 1-4.972-1.416 37.425 37.425 0 0 0-6.371-3.38.872.872 0 0 1-.566-.778l-.177-4.407a.867.867 0 0 1 .372-.76.87.87 0 0 1 .849-.089 30.415 30.415 0 0 0 17.696 2.035 42.6 42.6 0 0 0 16.067-8.441.927.927 0 0 1 .903-.124.906.906 0 0 1 .531.744c.175 1.763.234 3.537.177 5.308-.443 6.99-14.9 10.494-18.935 10.865l-1.964.195a35.413 35.413 0 0 1-3.61.248zm-10.157-6.211a35.528 35.528 0 0 1 6.211 3.344c2 1.433 4.283 1.168 7.45.832l2-.213c5.025-.46 17.005-4.14 17.324-9.201.066-1.12.066-2.243 0-3.362a43.305 43.305 0 0 1-15.449 7.75 31.719 31.719 0 0 1-17.589-1.628l.053 2.478z"/><path fill="#fff" d="M696.378 667.461a125.54 125.54 0 0 1-18.138 11.201c-7.715 3.539-16.987 6.937-15.448 11.962 1.54 5.026 36.665 15.431 49.017 17.36 12.351 1.928 31.657 8.104 36.276-3.079 4.618-11.184-.39-23.535-.39-23.535l-51.317-13.909z"/><path fill="#212527" d="M735.026 712.287a91.695 91.695 0 0 1-16.758-2.23c-2.336-.46-4.548-.884-6.583-1.203-11.378-1.769-47.919-12.086-49.724-17.979-1.628-5.308 6.123-8.706 13.625-12.015l2.283-1.026a125.979 125.979 0 0 0 17.979-11.095.888.888 0 0 1 .761-.142l51.317 13.891a.876.876 0 0 1 .584.531c.212.513 5.096 12.812.371 24.207-2.212 5.415-7.556 7.061-13.855 7.061zm-38.541-43.867a121.65 121.65 0 0 1-17.961 11.024c-.743.354-1.522.69-2.283 1.026-6.476 2.867-13.82 6.105-12.67 9.875 1.257 4.052 34.453 14.598 48.309 16.757 2.07.319 4.3.761 6.671 1.221 11.75 2.301 25.057 4.884 28.649-3.769 3.982-9.609.549-20.279-.23-22.473l-50.485-13.661z"/><path fill="#fff" d="M748.084 704.888a24.282 24.282 0 0 0 1.098-3.38 76.357 76.357 0 0 1-40.842-.088 370.667 370.667 0 0 1-44.026-15.272 4.35 4.35 0 0 0-1.522 4.46c1.557 5.008 36.665 15.43 49.017 17.359 12.351 1.929 31.657 8.105 36.275-3.079z"/><path fill="#212527" d="M735.026 712.281a91.693 91.693 0 0 1-16.758-2.229c-2.336-.46-4.548-.885-6.583-1.204-11.378-1.769-47.919-12.086-49.724-17.978a5.18 5.18 0 0 1 1.769-5.309.887.887 0 0 1 .974-.177 365.75 365.75 0 0 0 43.902 15.218 75.784 75.784 0 0 0 40.364.106.92.92 0 0 1 .867.23.872.872 0 0 1 .23.85 23.624 23.624 0 0 1-1.133 3.539c-2.265 5.309-7.609 6.954-13.908 6.954zm-70.393-25.074a3.084 3.084 0 0 0-.903 3.132c1.257 4.052 34.454 14.599 48.309 16.757 2.071.319 4.3.761 6.671 1.221 11.75 2.301 25.057 4.884 28.65-3.769.23-.566.442-1.15.637-1.769a77.991 77.991 0 0 1-39.798-.513 371.576 371.576 0 0 1-43.566-15.059zM659.996 328.13a721.622 721.622 0 0 0-5.308 84.939c0 44.911 12.21 116.206 15.129 127.938 2.92 11.733 23.005 83.983 23.925 86.921.92 2.937 3.433 32.223 3.433 32.223s-4.406 2.938-4.406 5.309.495 6.335.495 6.335 14.156 10.741 24.898 15.625c10.741 4.884 29.799.496 29.799.496a35.568 35.568 0 0 0 12.688-2.938c6.83-2.92 12.209-6.335 14.156-11.714 1.946-5.38 1.964-14.157 1.964-18.563 0-4.406-4.406-64.447-5.857-90.335-1.451-25.889-4.459-47.318-4.459-47.318s19.836-107.394 21.482-124.506c1.646-17.111 3.911-63.491 3.911-63.491l.973-5.858-132.823 4.937z"/><path fill="#212527" d="M731.593 690.732a34.736 34.736 0 0 1-13.874-2.389c-10.617-4.867-24.915-15.625-25.056-15.732a.887.887 0 0 1-.354-.584c0-.176-.496-3.999-.496-6.476s3.132-4.919 4.353-5.804c-.708-8.459-2.566-29.233-3.327-31.516-1.167-3.539-21.234-75.843-23.942-86.973-2.902-11.591-15.165-83.169-15.165-128.151a728.01 728.01 0 0 1 5.309-85.098.867.867 0 0 1 .832-.761l132.911-4.849a.963.963 0 0 1 .708.301.889.889 0 0 1 .212.726l-.991 5.857c0 .372-2.265 46.486-3.893 63.421-1.628 16.934-20.651 120.028-21.465 124.47.248 1.911 2.991 22.756 4.371 47.282.743 12.954 2.194 34.383 3.539 53.282 1.345 18.898 2.389 34.895 2.389 37.16 0 4.336 0 13.343-2.017 18.864-2.248 6.211-8.671 9.679-14.634 12.227a36.74 36.74 0 0 1-12.953 3.009 82.217 82.217 0 0 1-16.457 1.734zm-37.55-19.306c2.088 1.575 14.758 10.9 24.437 15.307 10.334 4.689 29.039.477 29.216.424h.194a34.85 34.85 0 0 0 12.387-2.866c7.981-3.416 12.068-6.76 13.679-11.202 1.911-5.22 1.911-14.032 1.911-18.262 0-2.158-1.115-18.297-2.371-36.983-1.257-18.687-2.761-40.346-3.539-53.299-1.451-25.552-4.371-47.088-4.389-47.3a.748.748 0 0 1 0-.283c.195-1.062 19.854-107.554 21.482-124.435 1.628-16.882 3.876-62.979 3.893-63.439l.814-4.901L660.811 329a734.205 734.205 0 0 0-5.309 84.124c0 44.859 12.228 116.189 15.112 127.727 3.132 12.563 23.004 84.177 23.907 86.849.991 2.991 3.362 31.233 3.539 32.436a.908.908 0 0 1-.39.814c-1.539 1.026-3.999 3.203-3.999 4.619-.071 1.893.248 4.831.372 5.857z"/><path fill="#fff" d="M747.89 688.907a.904.904 0 0 1-.885-.868c0-.159-.248-15.66-1.398-36.948a.905.905 0 0 1 .85-.938.863.863 0 0 1 .849.507.86.86 0 0 1 .071.343c1.15 21.234 1.398 36.842 1.398 37.001a.874.874 0 0 1-.241.636.867.867 0 0 1-.626.267h-.018zM745.873 641.215a.9.9 0 0 1-.885-.831c-.407-6.548-.885-13.006-1.38-19.2-1.38-16.598-5.61-40.186-9.697-62.996-4.69-26.242-9.131-51.016-8.848-63.067.478-22.208.973-86.708.973-87.398a.905.905 0 0 1 .531-.814l22.456-9.768a.923.923 0 0 1 1.167.46.88.88 0 0 1-.46 1.168l-21.924 9.538c0 6.494-.513 65.757-.974 86.85-.265 11.891 4.159 36.576 8.848 62.713 4.088 22.862 8.335 46.486 9.697 63.173.513 6.193.974 12.67 1.398 19.235a.883.883 0 0 1-.831.937h-.071z"/><path fill="#FFD8D8" d="M683.39 146.113s-32.56 14.971-32.56 18.351c0 3.38 6.229 169.877 6.229 169.877s-5.662 3.397 5.663 6.211c11.325 2.813 46.981 9.626 79.24 1.769 32.259-7.856 51.512-7.91 54.343-15.271 2.831-7.361-4.53-37.939-4.53-37.939s19.253-128.487 17.554-133.584c-1.699-5.096-48.185-19.606-48.185-19.606s-34.984-10.423-77.754 10.192z"/><path fill="#212527" d="M708.677 346.801a204.867 204.867 0 0 1-46.167-5.415c-4.92-1.221-7.45-2.76-7.733-4.671a3.247 3.247 0 0 1 .313-1.615c.242-.502.61-.933 1.067-1.252-.442-11.697-6.211-166.055-6.211-169.382 0-3.326 23.128-14.581 33.073-19.146 42.557-20.527 78.019-10.458 78.373-10.352 7.857 2.442 47.035 14.917 48.787 20.173 1.752 5.255-15.395 119.869-17.501 133.831.655 2.708 7.273 30.967 4.459 38.293-2.035 5.309-10.617 6.901-26.402 9.821-7.768 1.469-17.447 3.274-28.56 5.999a141.876 141.876 0 0 1-33.498 3.716zm29.676-212.629a125.525 125.525 0 0 0-54.573 12.741c-15.254 7.078-31.428 15.501-32.065 17.607 0 3.273 6.176 168.107 6.247 169.735a.885.885 0 0 1-.443.779c-.265.177-1.061.814-.973 1.398.089.583.708 1.769 6.406 3.22 4.353 1.097 43.513 10.37 78.816 1.77 11.166-2.743 20.863-4.548 28.667-6.017 14.581-2.725 23.393-4.371 25.074-8.724 2.69-7.078-4.495-37.16-4.565-37.408a.707.707 0 0 1 0-.336c7.662-51.477 18.792-129.337 17.554-133.248-1.009-3.025-25.305-12.015-47.619-19.093a90.513 90.513 0 0 0-22.526-2.424z"/><path fill="#FFE0C4" d="M681.85 26.244s-13.466 27.41-12.493 30.79l.956 3.363-9.627 24.526 8.176 7.22 16.368 17.306.478 11.077 7.202.956.495 11.537 50.981-8.653.478-28.861s-24.526 2.406-28.313-4.813c-3.787-7.22 6.742-39.426 7.22-49.052.478-9.627-8.176-15.396-14.918-17.802-6.742-2.407-27.003 2.406-27.003 2.406z"/><path fill="#212527" d="M693.405 133.905a.916.916 0 0 1-.566-.195.836.836 0 0 1-.318-.654l-.46-10.795-6.477-.867a.867.867 0 0 1-.761-.831l-.478-10.742-16.173-17.076-8.123-7.078a.906.906 0 0 1-.23-.99l9.503-24.261-.867-3.08c-1.009-3.539 10.281-26.773 12.546-31.409a.97.97 0 0 1 .602-.478c.831-.194 20.526-4.83 27.428-2.371 7.803 2.796 15.925 9.149 15.501 18.669a126.227 126.227 0 0 1-3.274 16.987c-2.796 12.104-6.299 27.145-3.981 31.48 2.919 5.486 20.845 4.991 27.498 4.336a.994.994 0 0 1 .691.23c.178.18.279.42.283.673l-.478 28.861a.887.887 0 0 1-.743.849l-50.981 8.671-.142.071zm-6.848-14.156l6.477.849a.901.901 0 0 1 .761.849l.442 10.529 49.282-8.352.443-27.145c-5.097.425-24.562 1.557-28.313-5.309-2.619-4.919.814-19.677 3.84-32.719a129.306 129.306 0 0 0 3.273-16.81c.549-10.76-10.829-15.66-14.315-16.917-5.911-2.106-23.164 1.77-26.031 2.335-6.476 13.237-12.811 27.889-12.263 29.782l.956 3.362a.885.885 0 0 1 0 .566l-9.396 23.96 7.715 6.795 16.404 17.377a.968.968 0 0 1 .247.567l.478 10.281z"/><path fill="#212527" d="M693.406 12.726s-12.51.478-13.961 9.627c-1.452 9.148 6.741 12.493 9.148 12.015 2.407-.478 22.597.478 18.28 1.451-4.318.973-16.351 1.911-16.847 3.84-.495 1.929-8.175 11.555-5.768 14.44a21.544 21.544 0 0 0 7.697 4.795s-2.884 20.686-5.768 30.79c-2.885 10.104-15.926 2.885-17.324 2.407-1.398-.478-1.912 9.609-1.912 13.466 0 3.858-3.857 10.618.956 15.395 4.813 4.778 15.926 2.407 17.802-.477 1.875-2.885 8.653-11.556 8.175-19.253-.478-7.698 1.433-31.746 1.433-31.746s8.176-8.175 11.078 2.884c2.902 11.06-1.451 23.005-1.451 23.005s9.131 11.059 21.641 12.51c12.511 1.451 18.28-1.451 22.12-10.617s22.101-17.147 22.101-38.31c0-21.165-15.926-39.922-25.021-42.31-9.095-2.39-26.933-2.903-26.933-2.903s4.814-8.653-2.884-8.653c-7.697 0-22.562 7.644-22.562 7.644z"/><path fill="#212527" d="M675.976 124.632a12.138 12.138 0 0 1-8.689-3.008c-3.822-3.804-2.725-8.582-1.769-12.387.313-1.157.515-2.343.601-3.539 0-.513 0-12.705 2-14.156a1.182 1.182 0 0 1 1.079-.177l.938.407c2.247 1.008 8.229 3.698 12.086 1.893a5.948 5.948 0 0 0 3.168-4.105 304.624 304.624 0 0 0 5.644-29.959 20.776 20.776 0 0 1-7.396-4.813c-1.964-2.353.601-6.901 3.857-12.174a22.66 22.66 0 0 0 1.77-3.044c.425-1.77 4.229-2.477 12.157-3.539l1.415-.195a99.944 99.944 0 0 0-13.979-.389 9.36 9.36 0 0 1-7.078-2.902 10.95 10.95 0 0 1-3.097-10.122c1.451-9.201 12.865-10.246 14.581-10.352 1.77-.902 15.378-7.715 22.845-7.715a4.991 4.991 0 0 1 4.672 2.088c1.203 2.053.3 4.955-.407 6.618 4.37.16 18.014.832 25.782 2.867 10.104 2.654 25.676 22.402 25.676 43.177 0 14.51-8.317 23.004-14.988 29.817-3.22 3.291-5.999 6.14-7.202 9.007-4.035 9.573-10.281 12.599-23.004 11.13-12.723-1.468-21.836-12.386-22.226-12.829a.91.91 0 0 1-.141-.867c0-.106 4.194-11.909 1.415-22.562-.76-2.902-1.928-4.6-3.539-5.025-2.318-.62-5.061 1.61-5.857 2.335-.336 2.779-1.964 24.013-1.575 31.092.389 7.078-4.955 14.935-7.556 18.668l-.778 1.115c-1.115 1.77-4.601 3.132-8.477 3.539-.64.068-1.284.104-1.928.106zm-6.99-31.48a53.573 53.573 0 0 0-1.15 12.387 19.145 19.145 0 0 1-.655 3.999c-.832 3.539-1.77 7.645 1.345 10.759a11.52 11.52 0 0 0 9.255 2.407c3.539-.372 6.476-1.681 7.184-2.743.212-.319.478-.708.796-1.15 2.478-3.54 7.645-10.989 7.238-17.554-.478-7.663 1.362-30.879 1.451-31.852a.83.83 0 0 1 .247-.549c.16-.16 4.053-4.017 7.804-2.99 2.212.601 3.805 2.707 4.743 6.281 2.619 10.052-.496 20.687-1.292 23.11 1.769 1.894 10.015 10.618 20.739 11.821 11.944 1.381 17.501-1.238 21.235-10.05 1.344-3.186 4.246-6.123 7.591-9.556 6.441-6.583 14.475-14.794 14.475-28.578 0-21.394-15.926-39.267-24.349-41.461-8.848-2.354-26.543-2.849-26.738-2.867a.85.85 0 0 1-.743-.442.879.879 0 0 1 0-.867c.637-1.133 2.035-4.424 1.044-6.123-.478-.814-1.54-1.22-3.15-1.22-7.397 0-22.049 7.52-22.19 7.608a.958.958 0 0 1-.372 0c-.124 0-11.803.566-13.112 8.848a9.27 9.27 0 0 0 2.566 8.582 7.811 7.811 0 0 0 5.521 2.442c.194 0 19.465-.424 19.925 1.77 0 .46 0 1.062-1.274 1.345-1.274.283-3.345.584-5.468.885-3.539.513-10.034 1.468-10.741 2.388a15.93 15.93 0 0 1-1.911 3.54c-1.77 2.778-5.309 8.564-4 10.121a20.82 20.82 0 0 0 7.309 4.53.905.905 0 0 1 .583.956c0 .212-2.937 20.863-5.804 30.914a7.758 7.758 0 0 1-4.105 5.309c-4.601 2.123-11.113-.797-13.572-1.894l-.425-.106z"/><path fill="#212527" d="M680.789 60.31a.884.884 0 0 1-.655-.283 5.731 5.731 0 0 0-7.75-1.044.903.903 0 0 1-1.239-.177.885.885 0 0 1 .177-1.238 7.555 7.555 0 0 1 10.104 1.256.867.867 0 0 1-.637 1.486zM677.905 65.617c0 2-.779 3.54-1.77 3.54s-1.77-1.611-1.77-3.54.761-3.539 1.77-3.539 1.77 1.557 1.77 3.54z"/><path fill="#fff" d="M686.398 131.942l-3.008 14.157s30.932-7.291 45.531-9.874c14.599-2.584 32.223-.425 32.223-.425s-4.3-12.9-11.166-15.466c-6.865-2.566-48.538 1.31-63.58 11.608z"/><path fill="#212527" d="M683.39 146.998a.886.886 0 0 1-.867-1.062l3.008-14.156a.87.87 0 0 1 .336-.496c15.431-10.617 57.139-14.421 64.377-11.696 7.237 2.725 11.52 15.466 11.696 16.014a.864.864 0 0 1-.937 1.15c-.177 0-17.696-2.088-31.958.425-14.263 2.513-45.177 9.803-45.478 9.874l-.177-.053zm3.805-14.528l-2.637 12.475c6.123-1.451 31.498-7.326 44.239-9.573 12.157-2.159 26.543-1.026 31.038-.602-1.274-3.255-5.008-11.661-10.157-13.59-6.831-2.566-47.548 1.363-62.483 11.29zM738.565 254.234a.933.933 0 0 1-.478-.142.86.86 0 0 1-.382-.558.877.877 0 0 1 .134-.663c10.618-16.085 15.661-42.469 15.714-42.717a.904.904 0 0 1 1.053-.716.9.9 0 0 1 .717 1.053c0 .265-5.309 26.968-15.926 43.336a.85.85 0 0 1-.832.407zM727.257 278.012a.905.905 0 0 1-.69-.336.857.857 0 0 1-.165-.302.87.87 0 0 1 .289-.937 77.019 77.019 0 0 0 8.459-8.723.898.898 0 0 1 1.256 0 .858.858 0 0 1 .305.6.853.853 0 0 1-.217.638 78.937 78.937 0 0 1-8.688 8.936.83.83 0 0 1-.549.124zM739.166 265.186a.863.863 0 0 1-.801-.499.864.864 0 0 1 .129-.934c8.37-10.211 16.81-22.12 16.899-22.244a.918.918 0 0 1 1.239-.212.904.904 0 0 1 .212 1.239c-.088.124-8.565 12.068-16.988 22.331a.89.89 0 0 1-.69.319z"/><path fill="#fff" d="M574.385 247.334l-12.121-17.323s31.232 2.512 34.984 1.769c3.751-.743 24.561-5.415 24.561-5.415l34.984 49.955-49.972 16.244-32.436-45.23z"/><path fill="#212527" d="M606.839 293.357a.927.927 0 0 1-.725-.372l-32.436-45.123-12.122-17.324a.876.876 0 0 1 0-.938.852.852 0 0 1 .832-.442c8.653.69 31.746 2.335 34.719 1.681l24.561-5.415a.863.863 0 0 1 .92.354l34.967 49.954a.867.867 0 0 1 .106.779.913.913 0 0 1-.566.566l-49.955 16.227-.301.053zm-31.71-46.539l32.047 44.61 48.22-15.66-33.958-48.504-23.977 5.309c-3.345.743-26.544-.974-33.374-1.487l11.042 15.732z"/><path fill="#FFE0C4" d="M612.661 289.839s-5.698-5.928-6.759-8.458c-1.062-2.53-3.168-15.431-4.23-16.917-1.061-1.486-6.547-7.184-8.67-9.715-2.124-2.53-4.23-10.369-6.548-8.034a8.57 8.57 0 0 0-2.335 8.654c1.061 2.76 2.123 6.14 2.548 6.989.424.85-12.263-15.023-12.263-15.023s-1.911 13.112-.85 16.492c1.062 3.38 6.141 19.253 7.185 21.412 1.044 2.158 20.296 15.642 21.358 16.279 1.062.638 10.564-11.679 10.564-11.679z"/><path fill="#212527" d="M602.133 302.382a1.032 1.032 0 0 1-.496-.16c-.177-.106-20.438-14.156-21.695-16.651-1.256-2.495-6.512-19.147-7.237-21.482-1.079-3.539.619-15.519.814-16.882a.869.869 0 0 1 .655-.725.916.916 0 0 1 .92.3c2.778 3.54 6.476 8.07 9.06 11.255-.265-.797-.566-1.593-.849-2.354a9.406 9.406 0 0 1 2.512-9.608 2.058 2.058 0 0 1 1.77-.655c1.628.265 2.76 2.548 4.052 5.202a21.492 21.492 0 0 0 2.018 3.539c.955 1.133 2.636 2.973 4.246 4.743 1.982 2.141 3.858 4.176 4.46 5.025.601.85 1.256 3.663 2.459 9.397.708 3.256 1.416 6.618 1.77 7.697a46.67 46.67 0 0 0 6.583 8.176.888.888 0 0 1 0 1.167c-7.91 10.441-10.122 12.016-11.042 12.016zm-27.128-52.874c-.566 4.406-1.291 11.838-.601 14.05 1.168 3.769 6.122 19.217 7.078 21.234.938 1.77 17.696 13.767 20.704 15.714a85.34 85.34 0 0 0 9.254-10.617c-1.451-1.558-5.485-5.964-6.405-8.176a65.783 65.783 0 0 1-1.947-7.998 62.49 62.49 0 0 0-2.194-8.742c-.531-.761-2.46-2.849-4.3-4.866-1.84-2.017-3.345-3.627-4.318-4.795a20.497 20.497 0 0 1-2.229-3.911c-.761-1.54-2.035-4.123-2.761-4.229 0 0-.177 0-.265.159a7.716 7.716 0 0 0-2.124 7.715c.513 1.327 1.009 2.778 1.451 4.035.443 1.256.85 2.477 1.044 2.866a.917.917 0 0 1-.301 1.186c-.3.195-.495.319-1.238-.407-1.257-1.256-3.964-4.618-10.848-13.218z"/><path fill="#FFE0C4" d="M586.666 262.356s2.531 10.618 2.743 11.839c.212 1.221 5.079 6.335 5.079 6.335"/><path fill="#212527" d="M594.488 281.417a.904.904 0 0 1-.637-.265c-1.522-1.593-5.079-5.433-5.309-6.813-.159-.973-1.77-8.14-2.743-11.785a.907.907 0 0 1 .655-1.062.854.854 0 0 1 .67.102.86.86 0 0 1 .392.553c.106.442 2.548 10.617 2.76 11.909a33.679 33.679 0 0 0 4.849 5.875.855.855 0 0 1 .26.619.866.866 0 0 1-.26.619.8.8 0 0 1-.637.248z"/><path fill="#FFD8D8" d="M697.812 220.524l-2.831 25.464c-2.832 25.482-23.765 81.523-27.729 87.186-3.964 5.663-14.157 3.964-22.651 0-8.493-3.964-37.355-16.988-37.355-16.988a15.519 15.519 0 0 1-5.096-19.819c5.663-13.024 11.307-9.626 16.404-7.361 5.096 2.265 20.951 3.397 20.951 3.397s5.663-92.264 5.663-108.685c0-16.422 5.662-19.253 5.662-19.253a31.35 31.35 0 0 1 11.892-6.777"/><path fill="#212527" d="M658.687 337.649a36.19 36.19 0 0 1-14.457-3.68c-8.388-3.911-37.161-16.846-37.355-16.97a16.53 16.53 0 0 1-5.539-20.987c2.3-5.309 4.848-8.441 7.751-9.556 3.238-1.238 6.335.16 9.06 1.398l.778.354c4.212 1.876 16.351 2.973 19.748 3.238.584-9.573 5.61-92.388 5.61-107.73 0-15.342 5.061-19.376 5.999-19.96a32.264 32.264 0 0 1 12.174-6.919.88.88 0 0 1 1.097.584.85.85 0 0 1-.584 1.097 30.705 30.705 0 0 0-11.519 6.582.681.681 0 0 1-.23.16s-5.168 2.99-5.168 18.456c0 16.262-5.609 107.819-5.662 108.739a.904.904 0 0 1-.301.619.835.835 0 0 1-.297.172.834.834 0 0 1-.34.041c-.655 0-16.067-1.168-21.235-3.539l-.778-.354c-2.531-1.15-5.15-2.336-7.698-1.363-2.548.973-4.654 3.769-6.759 8.618-5.309 12.139 4.335 18.456 4.742 18.722.407.265 28.861 13.006 37.267 16.917 7.573 3.539 17.695 5.733 21.553.301 3.858-5.433 24.774-61.422 27.569-86.709l2.832-25.481a.89.89 0 1 1 1.769.195l-2.831 25.481c-2.937 25.747-23.694 81.63-27.923 87.593-2 2.884-5.398 3.981-9.273 3.981z"/><path fill="#212527" d="M639.505 313.107a.922.922 0 0 1-.743-.39c-3.539-5.308-.265-19.89-.124-20.509a.872.872 0 0 1 .717-.672.891.891 0 0 1 .345.017.89.89 0 0 1 .682.715.882.882 0 0 1-.01.347c-.92 3.982-2.742 15.201-.124 19.111a.905.905 0 0 1-.247 1.239c-.15.089-.321.138-.496.142zM615.174 318.859a.887.887 0 0 1-.797-.478c-3.893-7.556-4.866-13.962-2.919-19.005a12.843 12.843 0 0 1 6.795-7.078.902.902 0 0 1 1.132.531.882.882 0 0 1-.513 1.132 11.17 11.17 0 0 0-5.769 6.158c-1.769 4.548-.796 10.441 2.849 17.519a.862.862 0 0 1-.389 1.185.805.805 0 0 1-.389.036zM690.451 224.223a.885.885 0 0 1-.885-.849 58.441 58.441 0 0 0-.973-9.255.897.897 0 0 1 1.77-.301c.576 3.137.907 6.314.99 9.503a.873.873 0 0 1-.241.636.878.878 0 0 1-.626.266h-.035zM688.416 210.084a.884.884 0 0 1-.849-.672 90.988 90.988 0 0 0-14.157-29.676.896.896 0 0 1-.215-.668.886.886 0 0 1 1.613-.411 92.998 92.998 0 0 1 14.546 30.312.905.905 0 0 1-.637 1.08l-.301.035zM248.034 135.778a.96.96 0 0 1-.564-.191l-9.175-7.384a.88.88 0 0 1-.141-1.236.925.925 0 0 1 1.252-.122l9.175 7.383a.84.84 0 0 1 .289.922.836.836 0 0 1-.165.297.816.816 0 0 1-.671.331z"/><path fill="#FFE0C4" d="M199.651 189.574l21.506-34.552 2.726-21.688s1.026-10.158 1.362-11.178c.337-1.019-.672-20.334 1.771-21.002 2.442-.668 3.752 7.03 4.088 9.473.337 2.443.673 17.294.673 17.294s4.779-20.668 4.779-22.373c0-1.705 1.77-5.079 4.107-3.041 2.336 2.039-.354 9.491-.354 13.217a87.584 87.584 0 0 1-1.009 10.158s8.177-19.649 10.23-21.687c2.054-2.039 4.089 0 2.39 6.784-1.699 6.784-4.779 15.571-5.115 17.575l-.354 2.038a72.067 72.067 0 0 0 9.222-12.882c3.062-6.099 5.788-2.021 3.062 2.706-2.726 4.728-10.921 20.001-11.258 21.09a103.842 103.842 0 0 1-6.478 12.865 55.855 55.855 0 0 1-9.558 11.178l-15.4 35.906-16.39-11.881z"/><path fill="#212527" d="M216.453 203.208a.893.893 0 0 1-.516-.161l-15.933-12.083a.879.879 0 0 1-.337-.545.909.909 0 0 1 .113-.637l20.824-35.031 2.618-21.892c.172-1.79 1.034-10.49 1.378-11.564v-4.028c0-13.389.431-17.417 2.222-17.9a1.794 1.794 0 0 1 1.585.268c1.998 1.343 3.048 6.91 3.444 10.114.19 1.325.362 6.247.5 10.579 1.533-7.16 3.1-14.75 3.1-15.627.021-.882.25-1.745.667-2.513a5.293 5.293 0 0 1 1.727-1.89 2.61 2.61 0 0 1 1.601-.175 2.671 2.671 0 0 1 1.414.801c1.929 1.79 1.24 5.728.551 9.595a31.579 31.579 0 0 0-.586 4.547c0 1.181-.086 2.595-.224 4.009 2.567-6.157 6.339-14.947 7.716-16.379a2.38 2.38 0 0 1 1.355-.952 2.292 2.292 0 0 1 1.625.183c1.585.93 1.878 4.045.793 8.52-.896 3.741-2.188 8.109-3.221 11.6-.586 1.987-1.12 3.777-1.447 4.994a62.438 62.438 0 0 0 6.717-10.311c1.12-2.327 2.343-3.58 3.566-3.58a1.81 1.81 0 0 1 .999.244c.305.178.555.44.723.759a6.9 6.9 0 0 1 .38 3.211 6.81 6.81 0 0 1-1.121 3.018c-2.687 4.887-10.524 20.174-10.885 21.248-1.836 4.568-3.971 9-6.39 13.264a56.387 56.387 0 0 1-9.318 11.474l-14.865 36.392a.86.86 0 0 1-.568.519l-.207-.071zm-14.795-13.193l14.416 10.919 14.52-35.532a.812.812 0 0 1 .224-.322 56.382 56.382 0 0 0 9.129-11.17 109.714 109.714 0 0 0 6.235-12.942c.379-1.218 8.612-17.31 11.023-21.481.438-.63.733-1.355.865-2.121a5.378 5.378 0 0 0-.107-2.3c0-.144-.121-.144-.138-.144-.293 0-1.102.591-2.101 2.65a71.667 71.667 0 0 1-9.094 13.3.845.845 0 0 1-.465.282.815.815 0 0 1-.534-.067.877.877 0 0 1-.394-.391.934.934 0 0 1-.089-.558l.328-2.077c.172-1.02.878-3.437 1.722-6.498 1.033-3.58 2.325-7.822 3.204-11.51 1.136-4.689.378-6.336 0-6.533-.379-.197-.534.089-.896.483-1.361 1.414-6.717 14.106-9.766 21.785a.925.925 0 0 1-.417.562.86.86 0 0 1-.677.091.9.9 0 0 1-.541-.433.955.955 0 0 1-.087-.703c.52-3.378.847-6.785.981-10.204.082-1.631.289-3.253.62-4.851.534-3.079 1.189-6.891 0-7.93-.671-.59-1.033-.429-1.171-.358a3.56 3.56 0 0 0-1.005 1.221 3.696 3.696 0 0 0-.39 1.554c0 1.79-4.185 20.818-4.668 22.984a.914.914 0 0 1-.344.518.857.857 0 0 1-.586.162.844.844 0 0 1-.542-.278.915.915 0 0 1-.233-.581c0-.161-.327-15.161-.654-17.489-.62-4.582-1.723-8.234-2.704-8.95h-.19c-1.051 1.092-.982 12.065-.964 16.2.1 1.54.065 3.085-.104 4.618-.206.645-.827 6.248-1.292 11.188l-2.669 22.107a.68.68 0 0 1-.121.358l-20.324 34.441z"/><path fill="#FFE0C4" d="M225.192 145.807s5.01-14.36 7.514-20.724c2.505-6.365 5.969-15.036 6.896-9.347.927 5.688-1.87 12.364-3.122 16.041-1.253 3.676.618 10.405-1.269 15.712-1.17 3.26-3.115 6.141-5.644 8.359"/><path fill="#212527" d="M229.226 157.669a.873.873 0 0 1-.731-.362.867.867 0 0 1-.19-.667.875.875 0 0 1 .354-.598 20.337 20.337 0 0 0 6.053-8.318 24.866 24.866 0 0 0 .878-9.366 19.673 19.673 0 0 1 .53-6.998c.165-.488.384-1.03.603-1.609 1.5-3.869 3.749-9.728 2.871-14.664a4.608 4.608 0 0 0-.31-1.103c-1.372.904-4.279 7.721-5.706 11.066-2.779 6.527-8.375 21.427-8.429 21.571a.911.911 0 0 1-.835.586.93.93 0 0 1-.354-.061.915.915 0 0 1-.304-.183.873.873 0 0 1-.288-.628.878.878 0 0 1 .062-.347c0-.144 5.668-15.08 8.466-21.698 3.749-8.805 5.669-12.422 7.662-12.223 1.39.145 1.719 1.971 1.828 2.658.97 5.425-1.408 11.554-2.98 15.623a34.23 34.23 0 0 0-.585 1.573 18.194 18.194 0 0 0-.421 6.328 25.946 25.946 0 0 1-1.006 10.054 21.81 21.81 0 0 1-6.656 9.131.967.967 0 0 1-.512.235z"/><path fill="#FFE886" d="M155.865 146.725l24.999 64.915 19.585-24.686 19.27 13.527s-30.429 52.774-32.111 55.792c-1.682 3.018-10.809 4.404-13.839 3.035-3.031-1.368-13.857-20.58-13.857-20.58l-4.047-92.003z"/><path fill="#212527" d="M178.09 261.654a10.009 10.009 0 0 1-3.841-.624c-3.14-1.426-12.436-18.024-14.26-21.393a1.021 1.021 0 0 1-.123-.392l-3.999-93.418a.886.886 0 0 1 .181-.59.888.888 0 0 1 1.52.215l24.469 64.537 18.645-23.871a.865.865 0 0 1 1.193-.179l19.295 13.746c.178.129.303.32.351.537a.926.926 0 0 1-.088.639c-.316.535-30.45 53.644-32.117 56.693-1.508 2.638-7.033 4.1-11.226 4.1zm-16.47-22.659c4.139 7.488 11.349 19.504 13.348 20.413 2.877 1.302 11.366-.196 12.735-2.71 1.578-2.87 28.064-49.668 31.73-56.015l-17.961-12.8-19.084 24.442a.866.866 0 0 1-1.244.13.892.892 0 0 1-.265-.38l-23.065-60.882 3.806 87.802z"/><path fill="#FFE0C4" d="M43.652 342.654a162.653 162.653 0 0 0 7.78 69.498c12.655 37.102 14.943 52.524 12.32 68.74-2.622 16.215-11.95 24.675-11.933 57.759.018 33.083 7.27 92.2 7.04 96.13-.228 3.931-2.393 31.515-.81 40.539 1.585 9.024 14.416 19.917 18.411 18.613 3.996-1.305 12.515-15.264 12.814-22.156.3-6.891-7.55-29.963-7.287-35.886.264-5.922 21.526-107.216 24.448-117.474 2.922-10.259 6.618-26.862 6.618-26.862s-7.04 24.87-.158 59.257a337.55 337.55 0 0 1 5.157 83.705c-1.109 14.276-2.535 34.969-2.535 34.969a21.616 21.616 0 0 0 10.561 5.905c6.354 1.269 7.48-1.64 17.143 2.732 9.663 4.371 16.457 7.155 24.818 7.526 8.36.37 14.838-.829 13.077-5.288-1.76-4.459-18.657-13.184-23.391-17.837-4.735-4.653-14.926-19.388-14.785-22.402.141-3.014 17.337-101.965 17.478-116.33.14-14.365 10.771-76.09 12.602-106.141 1.83-30.052-5.949-88.675-5.949-88.675l-118.649-5.288-4.77 18.966z"/><path fill="#212527" d="M74.69 695.863a9.924 9.924 0 0 1-4.721-1.772c-5.76-3.543-12.681-11.285-13.826-17.822-1.339-7.653 0-28.345.563-37.203.124-1.772.194-2.958.23-3.543 0-1.098-.564-7.193-1.392-15.643-2.131-21.472-5.689-57.399-5.707-80.944 0-22.127 4.034-33.323 7.591-43.191a83.887 83.887 0 0 0 4.369-15.005c2.782-16.83-.089-32.863-12.224-68.632a166.463 166.463 0 0 1-7.732-70.349.197.197 0 0 1 0-.089l4.79-19.151a.898.898 0 0 1 .898-.655l118.711 5.315a.87.87 0 0 1 .846.761c0 .585 7.749 59.366 5.935 89.306-.968 16.033-4.403 41.03-7.45 63.086-2.73 19.771-5.072 36.831-5.143 43.546-.105 10.346-8.806 63.352-14.002 95.027-1.937 11.781-3.523 21.1-3.523 21.897-.105 2.392 9.547 16.883 14.531 21.826a77.57 77.57 0 0 0 9.828 7.086c6.499 4.235 12.628 8.221 13.773 11.179a3.737 3.737 0 0 1-.282 3.738c-1.567 2.232-6.164 3.171-13.65 2.852-8.63-.389-15.569-3.277-25.151-7.635-5.953-2.711-8.507-2.569-11.201-2.409-1.93.181-3.875.085-5.777-.284a22.282 22.282 0 0 1-11.061-6.2.87.87 0 0 1-.229-.674c0-.194 1.409-20.957 2.536-35.13a342.487 342.487 0 0 0-5.16-83.902 155.25 155.25 0 0 1-2.695-40.251 246.45 246.45 0 0 1-2.061 7.76c-3.188 11.249-24.2 112.584-24.429 117.863-.123 2.729 1.761 9.762 3.417 16.547 1.99 7.759 4.05 15.785 3.875 19.487-.3 6.909-8.807 21.56-13.421 23.031-.34.118-.697.178-1.057.177zM43.48 342.06a165.167 165.167 0 0 0 7.749 69.393c12.329 36.105 15.13 52.333 12.329 69.499a82.505 82.505 0 0 1-4.439 15.324c-3.522 9.744-7.485 20.763-7.485 42.518 0 23.456 3.523 59.331 5.689 80.767.88 8.858 1.462 14.669 1.409 15.944 0 .638-.123 1.914-.23 3.632-.563 8.858-1.901 29.408-.598 36.849 1.057 6.041 7.574 13.322 13.016 16.6a6.488 6.488 0 0 0 4.28 1.399c3.628-1.187 11.924-14.863 12.206-21.454.158-3.543-1.867-11.373-3.823-19.009-1.849-7.246-3.522-14.084-3.522-17.078.282-6.395 22.034-109.59 24.499-118.253 2.061-7.264 4.527-17.858 5.795-23.35.458-2.338.81-3.543.828-3.667a.871.871 0 0 1 .4-.531.866.866 0 0 1 .657-.089.921.921 0 0 1 .651 1.063s-.334 1.435-.828 3.65a146.632 146.632 0 0 0 .67 55.556 343.922 343.922 0 0 1 5.178 84.363c-1.022 13.092-2.307 31.783-2.501 34.741a20.725 20.725 0 0 0 9.863 5.403c1.74.341 3.52.425 5.284.248 2.8-.159 5.689-.318 12.029 2.569 9.406 4.27 16.187 7.087 24.517 7.476 6.552.284 10.973-.478 12.136-2.108a1.978 1.978 0 0 0 0-2.055c-.951-2.427-7.398-6.643-13.087-10.346a77.364 77.364 0 0 1-10.109-7.281c-4.351-4.305-15.218-19.488-15.059-23.173 0-.868 1.162-7.777 3.522-22.091 5.178-31.623 13.862-84.558 13.967-94.762 0-6.821 2.431-23.952 5.161-43.776 3.029-22.021 6.481-46.982 7.45-62.944 1.761-27.956-4.967-81.334-5.847-88.225l-117.266-5.315-4.492 18.513z"/><path fill="#fff" d="M139.662 668.166l-23.981-10.614-1.777 13.268 5.329 3.538 7.106 2.654h7.994l5.329 1.769 12.434 5.307 9.771 2.654h16.875l2.665-3.538-2.665-4.423-7.105-4.423-15.988-10.614h-5.329l-10.658 4.422z"/><path fill="#212527" d="M117.195 639.04a61.597 61.597 0 0 0 25.32 3.805 4.304 4.304 0 0 1-.349-1.487c.122-2.955 17.2-102.362 17.339-116.783.14-14.422 10.687-76.388 12.503-106.557 1.816-30.169-5.902-89.021-5.902-89.021l-117.711-5.309-4.75 19.128a165.117 165.117 0 0 0 7.718 69.77c12.555 37.247 14.826 52.73 12.224 69.008-2.602 16.279-11.857 24.773-11.84 57.986.018 33.212 7.212 92.56 6.985 96.505a77.724 77.724 0 0 0 22.963 1.646v-.602c.262-5.945 21.356-107.635 24.254-117.934 2.026-7.166 4.418-17.446 5.676-23.003a147.738 147.738 0 0 0 .733 55.544 342.768 342.768 0 0 1 5.116 84.031 180.634 180.634 0 0 0-.279 3.273z"/><path fill="#212527" d="M138.962 642.956a67.164 67.164 0 0 1-22.007-4 .892.892 0 0 1-.445-.353.876.876 0 0 1-.139-.55l.265-3.239a339.883 339.883 0 0 0-5.191-83.825 154.575 154.575 0 0 1-2.729-40.126c-.691 2.708-1.4 5.31-2.055 7.664-3.207 11.24-24.346 112.482-24.576 117.756a1.76 1.76 0 0 0 0 .301v.23a.886.886 0 0 1-.815.921 82.425 82.425 0 0 1-23.602-1.664.89.89 0 0 1-.655-.903c0-1.097-.567-7.186-1.4-15.629-2.144-21.452-5.723-57.364-5.741-80.869 0-22.107 4.057-33.293 7.637-43.152a83.381 83.381 0 0 0 4.394-14.992c2.8-16.814-.089-32.833-12.297-68.568a165.238 165.238 0 0 1-7.76-70.215l4.837-19.222a.853.853 0 0 1 .903-.654l119.425 5.309a.87.87 0 0 1 .851.762c0 .584 7.796 59.311 5.971 89.223-.975 16.019-4.43 40.993-7.495 63.029-2.747 19.753-5.103 36.798-5.174 43.506-.107 10.336-8.86 63.294-14.087 94.941-1.949 11.77-3.543 21.08-3.543 21.876.03.388.132.766.301 1.115a.873.873 0 0 1-.089.779.897.897 0 0 1-.673.425 65.353 65.353 0 0 1-4.111.124zm-20.766-5.434a63.24 63.24 0 0 0 23.583 3.54 2.623 2.623 0 0 1 0-.708c0-.867 1.17-7.77 3.544-22.071 5.21-31.594 13.945-84.481 14.051-94.676 0-6.814 2.445-23.93 5.192-43.736 3.047-22 6.52-46.939 7.495-62.887 1.772-27.93-4.997-81.259-5.883-88.144l-117.972-5.31-4.642 18.443a163.611 163.611 0 0 0 7.796 69.277c12.403 36.072 15.22 52.285 12.403 69.435a82.004 82.004 0 0 1-4.465 15.311c-3.544 9.734-7.53 20.744-7.53 42.479 0 23.416 3.544 59.276 5.723 80.693.762 7.628 1.311 13.027 1.4 15.133a81.41 81.41 0 0 0 21.546 1.522c.638-7.912 22.166-109.384 24.629-117.968 2.038-7.169 4.483-17.487 5.741-23.01a.904.904 0 0 1 1.045-.672.9.9 0 0 1 .691 1.044 145.706 145.706 0 0 0 .745 55.223 341.27 341.27 0 0 1 5.209 84.286l-.301 2.796z"/><path fill="#fff" d="M116.51 484.235h-.171a.745.745 0 0 1-.279-.138.854.854 0 0 1-.211-.25.994.994 0 0 1-.101-.665c0-.193 3.9-19.302 3.9-33.709 0-14.407-1.724-75.016-1.74-75.613a.997.997 0 0 1 .047-.339.907.907 0 0 1 .158-.292.787.787 0 0 1 .246-.201.704.704 0 0 1 .295-.081.746.746 0 0 1 .554.238.944.944 0 0 1 .254.605c0 .614 1.74 61.101 1.74 75.683 0 14.582-3.9 33.92-3.931 34.095a.895.895 0 0 1-.278.483.719.719 0 0 1-.483.184zM88.363 671.86a54.863 54.863 0 0 0-1.938-11.764c-3.429-2.476-8.727-5.268-14.402-4.092a48.226 48.226 0 0 0-14.402 4.917l-.171-.299a91.594 91.594 0 0 0 .497 14.768c1.526 8.938 14.042 19.842 17.934 18.543 3.892-1.3 12.19-15.207 12.482-22.073z"/><path fill="#212527" d="M75.3 695.863a10.488 10.488 0 0 1-4.866-1.755c-5.937-3.509-13.072-11.177-14.252-17.652a84.81 84.81 0 0 1-.545-14.932.873.873 0 0 1 .2-.532.927.927 0 0 1 .49-.31.988.988 0 0 1 .6 0 58.368 58.368 0 0 1 14.869-4.668c6.3-1.211 12.146 1.632 15.958 4.229a.93.93 0 0 1 .363.509 49.643 49.643 0 0 1 2.07 12.002c-.309 6.843-9.078 21.354-13.834 22.811a3.374 3.374 0 0 1-1.053.298zm-17.865-33.339a80.48 80.48 0 0 0 .526 13.687c1.09 5.983 7.807 13.195 13.417 16.441a6.871 6.871 0 0 0 4.412 1.386c3.74-1.175 12.291-14.722 12.581-21.249a51.199 51.199 0 0 0-1.942-11.195c-3.522-2.351-8.77-4.808-14.27-3.755a55.389 55.389 0 0 0-14.724 4.685zM169.906 686.741h-2.756c-8.601-.376-15.518-3.159-25.067-7.361-5.934-2.613-8.479-2.476-11.165-2.322a20.974 20.974 0 0 1-5.758-.274 22.514 22.514 0 0 1-11.024-5.977.824.824 0 0 1-.228-.649s.404-5.96.965-13.663a.887.887 0 0 1 .439-.666.85.85 0 0 1 .808 0l23.61 10.35c1.475-.478 7.461-2.477 10.428-3.706a14.697 14.697 0 0 1 6.46-.273c.198.032.381.121.526.256l.369.375a77.265 77.265 0 0 0 9.795 6.832c6.478 4.064 12.569 7.924 13.728 10.776a3.51 3.51 0 0 1-.281 3.604c-1.369 1.742-5.003 2.698-10.849 2.698zm-37.074-11.528c3.475.109 6.882.972 9.97 2.528 9.375 4.133 16.133 6.831 24.436 7.224 6.53.273 10.937-.461 12.095-2.032a1.856 1.856 0 0 0 0-1.981c-.948-2.357-7.373-6.405-13.043-9.991a75.59 75.59 0 0 1-10.076-7.002l-.175-.171a12.22 12.22 0 0 0-5.267.171c-3.423 1.434-10.532 3.757-10.866 3.859a.952.952 0 0 1-.649 0l-22.821-9.973c-.439 5.943-.773 10.674-.86 11.954a20.869 20.869 0 0 0 9.83 5.209c1.734.329 3.508.409 5.266.239.79 0 1.457-.034 2.16-.034z"/><path fill="#FFE886" d="M157.194 279.108c.669-2.398.669-10.268 1.021-11.991.351-1.723 5.278-22.666 5.278-22.666s-7.038-96.901-8.146-98.624c-1.109-1.723-33.57-13.696-33.57-13.696l-42.401.693S33.63 149.255 33.63 150.587c0 1.333 28.45 127.473 28.45 127.473s-14.71 31.975-19.143 47.802a129.2 129.2 0 0 0-4.434 30.838l26.603-18.901s15.834 12.932 25.617 18.403a201.612 201.612 0 0 0 19.705 9.451l14.779-14.424 8.797 14.424s6.404-.995 19.705-10.943c13.302-9.947 16.75-16.413 16.75-16.413l-13.266-59.189z"/><path fill="#212527" d="M134.533 365.563a.934.934 0 0 1-.766-.423l-8.391-13.296-14.253 13.56a.879.879 0 0 1-.962.177 206.876 206.876 0 0 1-20.043-9.417c-8.908-4.849-22.697-15.676-25.548-17.933l-26.385 18.374a.88.88 0 0 1-.926 0 .869.869 0 0 1-.481-.776 127.901 127.901 0 0 1 4.525-30.841c4.24-14.918 17.816-44.172 19.312-47.31-4.988-21.566-28.808-124.969-28.808-126.362 0-.793 0-1.975 46.945-18.497h.285l42.936-.688h.321c12.471 4.496 33.423 12.343 34.456 13.983 1.033 1.64 6.663 75.665 8.373 98.272a.743.743 0 0 1 0 .282c0 .194-4.988 20.807-5.344 22.465-.125.617-.214 2.345-.303 4.161a53.387 53.387 0 0 1-.695 7.583l13.451 58.49a.92.92 0 0 1 0 .617c-.16.265-3.741 6.701-17.21 16.576-13.469 9.874-20.079 10.985-20.364 11.021l-.125-.018zm-8.908-16.082h.107a.897.897 0 0 1 .642.423l8.64 13.772c1.782-.476 8.125-2.592 19.01-10.58 11.58-8.482 15.714-14.424 16.533-15.729l-13.54-58.349a.753.753 0 0 1 0-.441c.416-2.448.642-4.924.677-7.406.033-1.475.146-2.946.339-4.409.32-1.657 4.846-20.472 5.344-22.412-2.797-37.418-7.197-93.528-8.141-97.354-1.942-1.534-21.29-8.817-33.37-13.172l-42.615.67c-16.32 5.748-42.313 15.182-45.573 17.122 1.193 6.119 19.17 84.323 28.772 125.921a.873.873 0 0 1 0 .564c-.142.317-14.912 31.74-19.312 47.328a126.306 126.306 0 0 0-4.419 28.637l25.477-17.757a.915.915 0 0 1 1.087 0c.16.141 16.034 12.855 25.797 18.18a203.59 203.59 0 0 0 19.331 9.117l14.537-13.878a.934.934 0 0 1 .606-.247h.071z"/><path fill="#fff" d="M94.786 118.175s-11.872 1.784-14.246 4.818c-2.375 3.034-6.772 10.708-6.772 10.708s1.76 30.964 3.043 37.157c1.284 6.193 4.063 11.689 5.435 10.315 1.371-1.374 23.04-19.631 24.06-19.952 1.02-.322 27.806 12.046 30.514 13.42 2.709 1.374 4.749 1.374 4.415-2.766-.334-4.14-3.06-25.788-8.477-36.8a59.067 59.067 0 0 0-13.226-17.543l-24.746.643z"/><path fill="#212527" d="M80.749 183.189a1.353 1.353 0 0 1-.458 0c-2.29-.68-4.455-7.067-5.282-11.2-1.356-6.207-2.993-36.102-3.064-37.372a.91.91 0 0 1 .123-.519c.176-.304 4.455-7.674 6.85-10.734 2.394-3.059 13.575-4.973 14.825-5.152h.088l24.79-.68c.209.008.41.076.581.197a59.34 59.34 0 0 1 13.452 17.89c5.458 11.074 8.187 32.524 8.575 37.229.176 2.111-.212 3.453-1.198 4.133-1.338.912-3.186.161-4.472-.501-3.081-1.557-27.15-12.648-29.932-13.328-2.113 1.395-22.202 18.248-23.646 19.679a1.469 1.469 0 0 1-1.232.358zm-7.131-48.482c.176 3.077 1.76 31.075 3.028 36.835 1.268 5.761 3.257 9.339 4.05 9.822 1.655-1.449 22.889-19.679 24.333-20.144 1.443-.465 30.935 13.364 31.217 13.507 1.884.948 2.535.751 2.711.608.177-.143.599-.608.441-2.487-.317-3.864-3.046-25.708-8.399-36.585a59.395 59.395 0 0 0-12.765-17.085l-24.386.68c-3.24.483-11.867 2.183-13.628 4.49-2.112 2.791-5.845 9.142-6.62 10.43l.018-.071z"/><path fill="#FFE0C4" d="M152.582 31.788s5.5 11.59 5.5 20.44c0 8.85-1.375 14.645-.679 18.726.697 4.081 7.911 6.466 7.572 9.187-.339 2.72-6.893 7.066-6.893 7.066s-7.143 17.666-8.929 23.85c-1.786 6.183-8.929 4.752-12.393 4.081-3.465-.672-12.037-3.41-12.037-3.41s-2.411 15.334-2.411 17.366 3.786 5.794 3.429 17.666c-.357 11.872-2.75 38.477-6.179 42.558-3.429 4.081-8.929-3.409-9.643-6.13-.714-2.721-16.18-30.033-21.001-40.862-3.947-8.939-5.161-11.925-3.447-14.981a63.799 63.799 0 0 1 3.447-5.459 85.395 85.395 0 0 0 2.75-18.391 20.833 20.833 0 0 0-4.125-12.931s13.072-7.826 13.768-20.776c.697-12.95 11.019-18.055 21.43-24.185 10.411-6.13 29.841-13.815 29.841-13.815z"/><path fill="#212527" d="M117.322 192.332a4.066 4.066 0 0 1-.907-.106c-3.315-.777-6.524-5.618-7.083-7.897-.279-1.166-3.907-8.073-7.728-15.387-4.78-9.133-10.204-19.433-12.734-25.333-3.733-8.639-5.233-12.208-3.332-15.776 1.483-2.685 2.948-4.841 3.332-5.3a85.807 85.807 0 0 0 2.617-18.019 20.637 20.637 0 0 0-3.82-12.367.87.87 0 0 1-.21-.706.96.96 0 0 1 .419-.619c.122 0 12.385-7.755 13.031-20.068.645-12.314 9.629-17.896 19.188-23.602l2.129-1.272c10.03-6.095 29.184-13.957 29.376-14.027a.862.862 0 0 1 .645-.004.878.878 0 0 1 .471.445c.227.477 5.46 11.854 5.46 20.811 0 4.116-.279 7.49-.523 10.476a35.933 35.933 0 0 0-.157 8.109c.296 1.767 2.268 3.356 3.995 4.734 1.727 1.378 3.628 2.915 3.489 4.717-.349 2.81-5.391 6.554-6.891 7.614-.855 2.156-7.065 17.878-8.617 23.496-1.902 7.067-10.048 5.3-13.101 4.717-2.739-.547-8.583-2.385-10.903-3.127-.732 4.805-2.18 14.716-2.18 16.218.115.689.332 1.356.645 1.978a33.804 33.804 0 0 1 2.721 15.759c-.314 10.811-2.546 38.6-6.262 43.105a3.722 3.722 0 0 1-3.07 1.431zM89.585 91.635a22.769 22.769 0 0 1 3.646 12.702 86.247 86.247 0 0 1-2.721 18.62.699.699 0 0 1-.122.283s-1.745 2.385-3.315 5.3c-1.465 2.667-.436 5.299 3.49 14.132 2.494 5.795 7.901 16.112 12.664 25.21 4.762 9.098 7.571 14.486 7.885 15.794.471 1.89 3.366 6.041 5.791 6.589a1.96 1.96 0 0 0 1.18-.074c.377-.145.702-.402.931-.739 3.122-3.798 5.512-29.749 5.861-42.027a32.492 32.492 0 0 0-2.582-15.017 7.537 7.537 0 0 1-.785-2.667c0-2.085 2.268-16.871 2.355-17.507a.847.847 0 0 1 .402-.601.894.894 0 0 1 .732-.106c.087 0 8.391 2.721 11.67 3.392 4.745.954 9.787 1.307 11.095-3.533 1.744-6.113 8.495-23.196 8.722-23.92a.915.915 0 0 1 .314-.407c2.355-1.625 6.141-4.84 6.35-6.536.105-.813-1.413-2.014-2.756-3.092-1.989-1.59-4.222-3.374-4.623-5.847a37.291 37.291 0 0 1 .122-8.533c.262-2.95.523-6.307.523-10.334 0-7.279-3.785-16.589-4.954-19.292-3.681 1.537-19.59 8.25-28.347 13.568l-2.145 1.29c-9.089 5.458-17.689 10.599-18.282 22.188-.593 11.589-10.205 19.238-13.1 21.252v-.088z"/><path fill="#212527" d="M124.851 111.932a23.15 23.15 0 0 1-7.736-3.806 63.09 63.09 0 0 1-5.035-5.188s3.363 17.645 11.081 20.069l1.69-11.075z"/><path fill="#212527" d="M122.28 124.831h-.246c-8.117-2.587-11.623-20.035-11.763-20.826a.911.911 0 0 1 .078-.572.881.881 0 0 1 .402-.405.857.857 0 0 1 1.045.223 61.505 61.505 0 0 0 4.979 5.103 22.575 22.575 0 0 0 7.433 3.594.877.877 0 0 1 .503.379.919.919 0 0 1 .128.627l-1.753 11.087a.916.916 0 0 1-.403.61.857.857 0 0 1-.403.18zm-9.502-17.969c1.28 4.78 4.155 13.333 8.766 15.723l1.384-9.182a22.397 22.397 0 0 1-7.363-3.773c-.982-.845-1.963-1.833-2.787-2.678v-.09zM147.656 73.75c1.511 0 2.737-2.042 2.737-4.561 0-2.52-1.226-4.561-2.737-4.561-1.511 0-2.737 2.042-2.737 4.56 0 2.52 1.226 4.562 2.737 4.562zM149.631 91.99a10.456 10.456 0 0 1-4.673-1.137 9.843 9.843 0 0 1-3.571-3.076.8.8 0 0 1-.087-.633.845.845 0 0 1 .406-.509.929.929 0 0 1 .665-.093.887.887 0 0 1 .544.376c1.058 1.485 2.621 2.581 4.429 3.105a8.685 8.685 0 0 0 5.503-.224.977.977 0 0 1 .706.068.92.92 0 0 1 .279.218c.077.09.135.193.17.304a.837.837 0 0 1-.072.67.9.9 0 0 1-.23.264.95.95 0 0 1-.32.16 12.68 12.68 0 0 1-3.749.506zM142.238 60.956a.963.963 0 0 1-.407 0 1.011 1.011 0 0 1-.504-.577 1.055 1.055 0 0 1 .039-.781c1.122-2.17 2.892-3.896 5.041-4.913a10.355 10.355 0 0 1 6.855-.722.91.91 0 0 1 .352.142.963.963 0 0 1 .411.64c.023.13.021.265-.007.394a1.02 1.02 0 0 1-.402.647.936.936 0 0 1-.722.163 8.365 8.365 0 0 0-5.576.542c-1.752.817-3.197 2.215-4.112 3.978a.942.942 0 0 1-.41.404.892.892 0 0 1-.558.083zM123.622 57.413s-7.492 2.065-7.492 12.02c0 9.954-10.603 22.65-18.731 26.71-8.129 4.06-22.478-.676-30.995-21.956s-.954-49.326 13.288-58.354c21.117-13.391 40.873-9.278 53.473-7.907 12.599 1.371 23.502 7.55 25.888 14.086 2.385 6.535-4.772 12.002-14.65 20.247a219.176 219.176 0 0 1-20.781 15.154z"/><path fill="#212527" d="M92.383 97.464a18.106 18.106 0 0 1-6.47-1.247c-7.92-3.028-14.832-11.061-19.445-22.64C58.123 52.755 64.7 23.845 80.097 14.12c19.446-12.273 37.972-9.993 50.276-8.479l3.8.463c12.622 1.372 24.077 7.678 26.623 14.642 2.546 6.965-4.19 12.344-13.435 20.022l-1.485 1.229a219.148 219.148 0 0 1-20.877 15.176.684.684 0 0 1-.23.107c-.283 0-6.859 2.048-6.859 11.168 0 10.064-10.324 23.157-19.234 27.574a13.843 13.843 0 0 1-6.293 1.443zm21.85-91.29a60.031 60.031 0 0 0-33.217 9.459c-13.223 8.39-21.761 35.233-12.94 57.285 4.455 11.097 10.996 18.793 18.456 21.625a14.05 14.05 0 0 0 11.349-.107c8.255-4.168 18.243-16.69 18.243-25.989 0-9.743 6.912-12.469 8.008-12.843a219.846 219.846 0 0 0 20.63-14.98l1.485-1.229c9.016-7.481 14.956-12.469 12.905-18.026C156.818 14.974 146 9.167 133.997 7.867l-3.819-.446a125.942 125.942 0 0 0-15.945-1.246z"/><path fill="#212527" d="M64.576 69.068s-15.08-13.295-22.1-5.799c-7.02 7.496-10.06 34.086-3.023 42.607 7.037 8.521 34.158 8.185 37.841-.69 3.684-8.875 1.008-14.992 1.008-14.992S64.576 73.841 64.576 69.068z"/><path fill="#212527" d="M59.002 112.058c-8.382 0-17.215-2.092-20.99-6.505-7.623-8.862-4.48-36.015 3.161-43.885 7.641-7.87 23.573 5.176 24.332 5.672a.985.985 0 0 1 .307.674c0 3.279 8.4 14.179 14.054 20.613a.882.882 0 0 1 .144.212c.109.266 2.89 6.611-1.047 15.739-1.481 3.439-6.16 5.902-13.15 6.948-2.255.337-4.53.515-6.81.532zM47.64 60.871a6.909 6.909 0 0 0-2.794.471 6.802 6.802 0 0 0-2.354 1.55c-7.081 7.266-10.116 33.32-3.107 41.527 4.353 5.086 16.926 6.77 26.066 5.423 6.268-.921 10.55-3.066 11.76-5.884a19.283 19.283 0 0 0 1.101-14.18C76.506 87.67 64.62 73.828 63.862 68.51c-1.536-1.294-9.737-7.64-16.222-7.64z"/><path fill="#FFE886" d="M33.909 150.372S2.288 266.954 2.619 272.789c.332 5.834 12.111 7.115 18.498 7.115 6.387 0 28.934-56.922 28.934-56.922l-16.142-72.61z"/><path fill="#212527" d="M20.198 281.728c-1.923 0-18.949-.231-19.403-8.021-.332-5.892 30.083-117.656 31.376-122.448 0-.235.092-.461.256-.627a.87.87 0 0 1 .618-.26.87.87 0 0 1 .618.26.893.893 0 0 1 .256.627l16.099 72.564c.044.175.044.358 0 .532-3.828 9.601-23.16 57.373-29.82 57.373zm12.725-126.547C23.553 189.662 2.28 269.111 2.543 273.6c.297 5.023 11.676 6.354 17.655 6.354 3.635 0 17.095-28.394 28.072-55.971l-15.347-68.802z"/><path fill="#fff" d="M87.433 200.386l-6.368 81.618s15.746 6.465 27.992 4.973c12.247-1.492 38.7-2.984 38.7-2.984l11.757-88.012s-49.547 11.866-72.08 4.405z"/><path fill="#212527" d="M104.717 287.202c-11.688 0-24.327-5.028-24.918-5.33a.929.929 0 0 1-.556-.906l6.525-81.508a.961.961 0 0 1 .395-.675 1.023 1.023 0 0 1 .789-.106c22.57 7.301 72.783-4.371 73.285-4.495a.874.874 0 0 1 .431.006c.141.037.27.108.376.207a.89.89 0 0 1 .239.357.89.89 0 0 1 .048.425l-12.047 88.028a.864.864 0 0 1-.272.53.883.883 0 0 1-.553.234c-.286 0-27.231 1.51-39.601 2.984a35.374 35.374 0 0 1-4.141.249zm-23.628-6.68c3.03 1.137 16.744 5.969 27.554 4.69 11.276-1.35 34.528-2.7 38.974-2.949l11.76-86.038c-8.031 1.777-50.196 10.659-71.906 4.495l-6.382 79.802z"/><path fill="#FFE886" d="M19.665 251.066s39.078 20.814 44.81 20.141c0 0 2.691-1.364 3.023-3.083.332-1.718 10.12-35.162 11.797-35.428 1.678-.266 19.539-.691 22.562 1.364 3.024 2.055 5.069 2.728 3.705 5.119-1.363 2.392-4.037 2.055-6.046 2.055-2.01 0-7.428-2.391-10.486-.691-3.059 1.701-6.397 10.239-6.746 11.267-.35 1.027 12.128-3.756 15.501-3.065 3.373.691 12.811 10.239 12.461 12.967-.349 2.728-4.369 1.364-4.369 1.364s-6.064-4.092-7.078-4.092c-1.014 0-5.383.673-5.383.673s10.486 4.11 10.486 7.511-3.705 5.81-3.705 5.81 2.027 3.756-1.014 6.147c-3.04 2.391-9.087.691-10.783 1.027-1.695.337-5.05 6.484-9.42 8.858-4.369 2.373-12.478 1.771-12.478 1.771s-40.755-5.137-51.538-7.529C4.18 280.861-.538 275.405 4.862 259.356"/><path fill="#212527" d="M69.365 292.657c-1.582 0-2.666 0-2.79-.106-.444 0-41.654-5.142-52.529-7.509-6.06-1.308-9.774-3.534-11.693-6.891-2.31-4.064-2.061-9.807.782-18.093a.888.888 0 0 1 1.088-.455.88.88 0 0 1 .583 1.02c-2.613 7.668-2.915 13.11-.907 16.662 1.653 2.915 5.011 4.841 10.538 6.043 10.787 2.35 51.907 7.421 52.333 7.474 0 0 7.962.618 12.138-1.608a24.624 24.624 0 0 0 6.183-5.707c1.564-1.767 2.613-3.022 3.661-3.234.933-.11 1.875-.11 2.808 0 2.488.23 5.9.53 7.783-.918a4.007 4.007 0 0 0 .782-5.018.897.897 0 0 1 .302-1.167s3.359-2.173 3.359-5.035c0-1.909-5.989-5.124-10.058-6.679a.846.846 0 0 1-.55-.919.884.884 0 0 1 .745-.777c.462 0 4.55-.69 5.616-.69 1.066 0 4.673 2.244 7.588 4.17a4.199 4.199 0 0 0 2.79 0 .833.833 0 0 0 .391-.689c.248-1.961-8.601-11.29-11.978-11.962-1.777-.353-6.912 1.096-10.342 2.05-4.602 1.272-5.331 1.431-5.864.848a1.056 1.056 0 0 1-.213-.989s3.554-9.719 7.268-11.733c2.416-1.343 5.953-.495 8.53.106.824.235 1.669.394 2.523.477h.693c1.777 0 3.732 0 4.691-1.608.658-1.148.462-1.431-2.097-3.039-.426-.282-.906-.565-1.386-.901-2.612-1.767-19.423-1.59-22.088-1.254-1.955 2.615-10.911 31.91-11.498 34.755-.408 2.067-3.234 3.534-3.554 3.693a.849.849 0 0 1-.284 0c-5.918.759-41.991-18.04-46.078-20.178a.899.899 0 0 1-.44-.518.88.88 0 0 1 .578-1.112.906.906 0 0 1 .679.057c15.585 8.145 40.019 20.019 44.799 20.019h.107c.906-.495 2.274-1.502 2.452-2.368 0-.353 10.04-35.603 12.688-36.115 1.777-.371 20.187-.778 23.617 1.484l1.35.866c2.204 1.378 4.283 2.668 2.701 5.424-1.581 2.757-4.247 2.527-6.273 2.492h-.657a14.452 14.452 0 0 1-2.932-.531c-2.293-.53-5.438-1.289-7.268-.265-2.168 1.202-4.834 6.75-5.971 9.542l3.447-.919c5.1-1.431 9.17-2.491 11.178-2.085 3.767.742 13.807 10.601 13.381 13.906a2.623 2.623 0 0 1-1.209 1.979 6.022 6.022 0 0 1-4.407.123l-.213-.106a43.931 43.931 0 0 0-6.752-3.94c-.747.091-1.489.22-2.222.389 3.412 1.572 8.246 4.311 8.246 7.067a8.377 8.377 0 0 1-3.554 6.079 5.47 5.47 0 0 1-1.582 6.537c-2.435 1.873-6.237 1.537-9.027 1.272-.766-.1-1.54-.129-2.31-.088a12.963 12.963 0 0 0-2.648 2.65 25.83 25.83 0 0 1-6.7 6.114 24.083 24.083 0 0 1-10.324 1.908z"/><path fill="#FFE0C4" d="M105.827 263.15s4.084 1.365 4.42-1.365c.336-2.729-9.194-12.3-12.607-12.974-3.412-.673-16.019 4.095-15.683 3.067.336-1.028 3.748-9.571 6.825-11.273 3.077-1.701 8.522.692 10.609.692 2.086 0 4.756.336 6.117-2.056 1.362-2.393-.671-3.084-3.748-5.123-3.077-2.038-21.13-1.772-22.827-1.364-1.697.407-11.58 33.817-11.934 35.448-.354 1.63-3.06 3.084-3.06 3.084-3.341.389-17.858-6.346-29.58-12.141a30.37 30.37 0 0 0-9.036 12.229 28.42 28.42 0 0 0-2.599 13.453c16.055 2.552 43.249 5.937 43.249 5.937s8.186.674 12.624-1.772c4.439-2.446 7.833-8.543 9.53-8.862 1.698-.319 7.851 1.365 10.91-1.028s1.026-6.15 1.026-6.15 3.748-2.393 3.748-5.814c0-3.421-10.609-7.515-10.609-7.515s4.42-.673 5.446-.673c1.026 0 7.179 4.2 7.179 4.2z"/><path fill="#212527" d="M69.573 292.657c-1.574 0-2.652 0-2.776-.106-.124-.107-27.428-3.402-43.325-5.935a.867.867 0 0 1-.743-.815c-.263-4.77.66-9.53 2.688-13.854a31.138 31.138 0 0 1 9.301-12.578.86.86 0 0 1 .92-.089c21.98 10.86 27.569 12.153 28.948 12.065.902-.496 2.264-1.506 2.44-2.374 0-.354 9.992-35.698 12.627-36.211 1.768-.373 20.088-.78 23.501 1.488l1.344.868c2.193 1.382 4.262 2.675 2.688 5.439-1.574 2.763-4.226 2.533-6.224 2.497h-.672a14.249 14.249 0 0 1-2.918-.531c-2.281-.531-5.411-1.293-7.233-.266-2.157 1.205-4.81 6.768-5.941 9.567l3.43-.921c5.075-1.435 9.125-2.498 11.123-2.091 3.749.744 13.74 10.63 13.316 13.943a2.633 2.633 0 0 1-1.202 1.984 5.953 5.953 0 0 1-4.386.124l-.212-.106a43.665 43.665 0 0 0-6.72-3.951 21.28 21.28 0 0 0-2.21.23c3.395 1.577 8.205 4.323 8.205 7.087a8.417 8.417 0 0 1-3.537 6.094 5.513 5.513 0 0 1-1.574 6.555c-2.422 1.878-6.207 1.541-8.983 1.275-.762-.1-1.532-.13-2.3-.088a12.942 12.942 0 0 0-2.634 2.657 25.76 25.76 0 0 1-6.667 6.13 23.809 23.809 0 0 1-10.274 1.913zm-45.111-7.671c15.915 2.498 42.246 5.775 42.53 5.811.282.035 7.921.62 12.077-1.612a24.592 24.592 0 0 0 6.154-5.722c1.556-1.772 2.6-3.03 3.643-3.243a11.87 11.87 0 0 1 2.794 0c2.476.231 5.871.532 7.746-.921a4.046 4.046 0 0 0 .778-5.031.906.906 0 0 1 .3-1.169s3.342-2.179 3.342-5.049c0-1.914-5.959-5.138-10.009-6.697a.847.847 0 0 1-.548-.921.886.886 0 0 1 .743-.78c.46 0 4.527-.691 5.588-.691s4.651 2.25 7.551 4.181a4.146 4.146 0 0 0 2.776 0 .825.825 0 0 0 .389-.691c.248-1.966-8.559-11.32-11.919-11.993-1.768-.355-6.879 1.098-10.291 2.055-4.58 1.275-5.305 1.435-5.836.85a1.06 1.06 0 0 1-.212-.992s3.536-9.744 7.232-11.763c2.405-1.347 5.924-.496 8.489.106.82.235 1.66.395 2.511.478h.689c1.769 0 3.714 0 4.669-1.612.654-1.151.46-1.435-2.087-3.047-.424-.283-.902-.567-1.379-.903-2.6-1.772-19.329-1.595-21.981-1.258-1.945 2.622-10.858 31.995-11.441 34.847-.407 2.073-3.219 3.543-3.537 3.703a.84.84 0 0 1-.283 0c-2.847.354-12.785-3.685-29.585-11.976a30.608 30.608 0 0 0-8.329 11.568 27.306 27.306 0 0 0-2.564 12.472z"/><path fill="#212527" d="M100.154 274.336h-.268l-16.426-5.55a.846.846 0 0 1-.526-1.075.857.857 0 0 1 .421-.489.829.829 0 0 1 .64-.044l16.426 5.55c.222.036.42.16.552.344a.862.862 0 0 1-.189 1.196.84.84 0 0 1-.63.153v-.085zM93.086 261.662h-.183l-7.604-2.964a.62.62 0 0 1-.27-.193 1.17 1.17 0 0 1-.204-.357 1.81 1.81 0 0 1-.103-.463 2.046 2.046 0 0 1 .015-.494c.021-.164.062-.32.12-.458.057-.139.13-.256.215-.346a.615.615 0 0 1 .279-.18.456.456 0 0 1 .298.014l7.604 2.963c.195.079.364.284.47.571.105.287.138.633.093.961a1.49 1.49 0 0 1-.268.685c-.132.172-.295.263-.462.261z"/><path fill="#fff" d="M29.43 256.188s-4.97 1.044-10.204 10.255c-3.168 5.912-4.417 12.587-3.59 19.177l9.94 1.583a30.746 30.746 0 0 1 3.306-16.029c2.31-4.277 5.857-7.835 10.223-10.254l-9.675-4.732z"/><path fill="#212527" d="M25.712 287.202h-.14l-9.209-1.577a.832.832 0 0 1-.505-.279.873.873 0 0 1-.212-.546 34.526 34.526 0 0 1 3.413-19.717c4.99-9.41 9.839-10.611 10.032-10.665a.836.836 0 0 1 .595 0l8.946 4.714c.146.073.27.188.353.331a.881.881 0 0 1 .12.476.915.915 0 0 1-.125.472.883.883 0 0 1-.348.334 24.097 24.097 0 0 0-9.086 9.823 31.792 31.792 0 0 0-2.959 15.469.937.937 0 0 1-.23.687.881.881 0 0 1-.646.299v.179zm-8.42-3.244l7.492 1.273a32.455 32.455 0 0 1 3.221-15.326 27.092 27.092 0 0 1 8.438-9.733l-7.23-3.8c-1.015.412-4.727 2.312-8.613 9.679a33.313 33.313 0 0 0-3.309 17.907z"/><path fill="#fff" d="M186.88 204.581l19.896 18.767 12.943-22.588-18.898-13.9-13.941 17.721z"/><path fill="#212527" d="M206.901 223.348a.914.914 0 0 1-.332-.053.844.844 0 0 1-.285-.171l-20.985-17.866a.852.852 0 0 1-.243-.592c0-.22.087-.431.243-.593l14.692-16.887a.898.898 0 0 1 .571-.316.928.928 0 0 1 .644.145l19.951 13.244a.86.86 0 0 1 .367.528.821.821 0 0 1-.113.623l-13.748 21.525a.831.831 0 0 1-.266.278.88.88 0 0 1-.369.135h-.127zm-19.733-18.897l19.515 16.767 12.696-19.945-18.627-12.386-13.584 15.564z"/></svg>
