<svg width="444" height="301" fill="none" xmlns="http://www.w3.org/2000/svg"><path d="M204.619 151.21c4.539-4.554 13.688-12.296 13.975-6.831.359 6.831-8.6 24.448 0 16.538 8.601-7.909 18.993-21.931 19.709-16.538.717 5.393 1.792 6.831 11.826-2.876" stroke="#A0A0A0" stroke-width="2" stroke-linecap="round"/><path d="M30.485 229.092c1.674 2.277 7.03 6.709 15.065 6.227M131.323 239.136c-7.9 4.315-30.938 8.406-60.304-9.378a1.038 1.038 0 00-1.323.213c-5.768 6.781-21.857 20.513-42.827 22.221-6.227.508-10.646-2.611-3.415-5.222 4.018-1.451 7.031-2.411 8.437-3.817" stroke="#000" stroke-width="2" stroke-linecap="round"/><path d="M20.24 248.778c-4.017 1.875-9.24 3.133-10.043-.402-1.004-4.419 6.227-3.616 9.04-5.825" stroke="#000" stroke-width="2" stroke-linecap="round"/><path d="M9.594 248.576c-6.83 2.009-9.999-4.039-4.017-7.03 5.624-2.812 10.445-1.808 14.061-6.026" stroke="#000" stroke-width="2" stroke-linecap="round"/><path d="M3.568 242.952c-1.54-1.339-3.374-4.781 1.607-7.834 6.227-3.817 35.354-16.673 31.738-26.917-1.063-3.013-6.83-2.812-11.65-9.039-3.581-4.625 0-10.044 4.419-7.031 1.138.871 8.155 5.424 11.851 3.817 4.592-1.996 19.699-3.794 30.532 9.789.13.163.302.285.502.343 8.983 2.609 28.607 6.361 37.664 1.117M41.935 214.629c2.477 2.344 9.44 3.214 13.86-1.004M413.515 226.703c-1.674 2.276-7.031 6.709-15.066 6.227M312.677 236.747c7.9 4.315 30.938 8.406 60.304-9.378a1.04 1.04 0 011.323.212c5.768 6.782 21.857 20.514 42.827 22.222 6.227.508 10.646-2.611 3.415-5.222-4.018-1.451-7.031-2.411-8.437-3.817" stroke="#000" stroke-width="2" stroke-linecap="round"/><path d="M423.759 246.388c4.018 1.875 9.24 3.134 10.044-.401 1.004-4.42-6.227-3.616-9.039-5.826" stroke="#000" stroke-width="2" stroke-linecap="round"/><path d="M434.406 246.188c6.829 2.009 9.999-4.04 4.017-7.031-5.624-2.812-10.445-1.808-14.061-6.026" stroke="#000" stroke-width="2" stroke-linecap="round"/><path d="M440.432 240.563c1.54-1.339 3.374-4.781-1.607-7.834-6.227-3.817-35.354-16.672-31.738-26.917 1.063-3.013 6.83-2.811 11.651-9.039 3.58-4.625 0-10.043-4.42-7.03-1.138.87-8.155 5.423-11.851 3.816-4.592-1.996-19.699-3.794-30.532 9.79-.13.162-.302.284-.502.342-8.982 2.609-28.607 6.361-37.664 1.117M402.065 212.24c-2.477 2.344-9.441 3.214-13.86-1.004M200.508 68.712c1.516 17.292 9.277 47.789 28.122 48.971 19.851 1.245 28.122-39.011 28.122-49.386M204.124 67.895l-5.625-.804M258.884 67.091c6.092 1.532 10.883 8.19-3.739 20.891M197.871 67.091c-5.31.697-10.9 8.774 5.449 20.891" stroke="#000" stroke-width="2" stroke-linecap="round"/><ellipse cx="214.569" cy="70.506" rx="3.616" ry="3.415" fill="#000"/><circle cx="242.089" cy="70.506" r="3.415" fill="#000"/><circle cx="214.971" cy="70.305" r="11.454" stroke="#000" stroke-width="2"/><path d="M252.94 70.305c0 6.341-5.053 11.454-11.253 11.454s-11.253-5.112-11.253-11.454c0-6.341 5.053-11.454 11.253-11.454s11.253 5.113 11.253 11.454z" stroke="#000" stroke-width="2"/><path d="M225.818 69.1h4.821M223.868 76.733c-1.045 5.792-1.161 15.408 9.181 10.113M221.399 99.23c2.209-1.212 7.954-2.91 13.257 0M251.931 67.091h6.83" stroke="#000" stroke-width="2" stroke-linecap="round"/><path d="M197.145 33.556c-21.08 9.926-11.254 27.296-3.706 34.74 1.318-.992 5.49-1.24 7.411-1.24-3.623-26.47 10.018-33.5 16.057-35.155 16.88-2.895 36.23 1.655 39.524 14.89 3.935 15.81 4.058 21.092 7.117 21.506 11.622-9.265 9.908-27.02 7.598-34.741 3.014-8.623-3.716-16.405-7.598-21.093C259.666 7.776 249.02-.77 230.081.056c-37.465 3.722-34.995 26.883-32.936 33.5z" fill="#000"/><path d="M207.739 53.834c1.708-.303 6.83-.728 13.66 0M235.862 54.637c1.607-.606 6.428-1.455 12.856 0" stroke="#000" stroke-width="2" stroke-linecap="round"/><path d="M210.065 115.8c-39.773-2.812-49.575-8.476-78.34 60.463M248.599 114.35c34.148 6.025 50.62-14.865 73.118 54.034" stroke="#A0A0A0" stroke-width="2" stroke-linecap="round"/><path d="M155.628 219.852c-4.056 19.383-16.624 21.427-23.55 19.859-.672-.152-.906-.962-.509-1.525 13.935-19.758-8.252-34.324-20.357-31.097-.545.145-1.139-.138-1.246-.692-1.456-7.551 11.085-9.102 12.318-19.89.643-5.624 1.406-8.502 4.62-8.637 14.262-.603 34.148 16.069 28.724 41.982zM324.529 170.995c3.323 15.444 13.876 23.087 10.366 33.299-.167.486-.717.728-1.212.592-24.067-6.609-29.982 19.99-21.235 30.133.611.709.203 1.926-.728 1.833-16.511-1.639-28.763-29.082-24.955-39.744 11.048-30.934 36.597-31.537 37.764-26.113z" fill="#A0A0A0" stroke="#A0A0A0" stroke-width="2" stroke-linecap="round"/><path d="M291.787 222.218c-.134 26.582.361 54.275 4.218 76.13M156.432 217.441c.268 26.248-.522 56.365-5.022 82.559" stroke="#A0A0A0" stroke-width="2" stroke-linecap="round"/><path d="M244.95 124.152c1.788-5.018.153-8.394-1.433-9.037-9.559 8.491-24.057 5.339-29.428.192-1.913 1.699-.8 6.723 0 8.266 10.352 11.116 25.087 4.889 30.861.579z" fill="#A0A0A0"/></svg>