<svg width="444" height="301" viewBox="0 0 444 301" fill="none" xmlns="http://www.w3.org/2000/svg">
<path d="M204.619 151.21C209.158 146.656 218.307 138.914 218.594 144.379C218.953 151.21 209.994 168.827 218.594 160.917C227.195 153.008 237.587 138.986 238.303 144.379C239.02 149.772 240.095 151.21 250.129 141.503" stroke="#A0A0A0" stroke-width="2" stroke-linecap="round"/>
<path d="M30.485 229.092C32.1589 231.369 37.5155 235.801 45.5504 235.319" stroke="black" stroke-width="2" stroke-linecap="round"/>
<path d="M131.323 239.136C123.423 243.451 100.385 247.542 71.0188 229.758C70.5876 229.497 70.023 229.587 69.6964 229.971C63.9281 236.752 47.8386 250.484 26.8694 252.192C20.6423 252.7 16.2232 249.581 23.4545 246.97C27.4721 245.519 30.4852 244.559 31.8911 243.153" stroke="black" stroke-width="2" stroke-linecap="round"/>
<path d="M20.2405 248.778C16.223 250.653 11.0004 251.911 10.1969 248.376C9.19252 243.957 16.4239 244.76 19.2361 242.551" stroke="black" stroke-width="2" stroke-linecap="round"/>
<path d="M9.59449 248.576C2.76489 250.585 -0.404665 244.537 5.5771 241.546C11.2015 238.734 16.0224 239.738 19.6381 235.52" stroke="black" stroke-width="2" stroke-linecap="round"/>
<path d="M3.56816 242.952C2.02814 241.613 0.19351 238.171 5.17514 235.118C11.4022 231.301 40.5287 218.445 36.913 208.201C35.8496 205.188 30.0833 205.389 25.2624 199.162C21.6816 194.537 25.2624 189.118 29.6816 192.131C30.8198 193.002 37.837 197.555 41.533 195.948C46.1246 193.952 61.2316 192.154 72.0654 205.737C72.1952 205.9 72.3668 206.022 72.5667 206.08C81.5495 208.689 101.174 212.441 110.231 207.197" stroke="black" stroke-width="2" stroke-linecap="round"/>
<path d="M41.9347 214.629C44.4121 216.973 51.3757 217.843 55.7949 213.625" stroke="black" stroke-width="2" stroke-linecap="round"/>
<path d="M413.515 226.703C411.841 228.979 406.484 233.412 398.449 232.93" stroke="black" stroke-width="2" stroke-linecap="round"/>
<path d="M312.677 236.747C320.577 241.062 343.615 245.153 372.981 227.369C373.412 227.108 373.977 227.198 374.304 227.581C380.072 234.363 396.161 248.095 417.131 249.803C423.358 250.311 427.777 247.192 420.546 244.581C416.528 243.13 413.515 242.17 412.109 240.764" stroke="black" stroke-width="2" stroke-linecap="round"/>
<path d="M423.759 246.388C427.777 248.263 432.999 249.522 433.803 245.987C434.807 241.567 427.576 242.371 424.764 240.161" stroke="black" stroke-width="2" stroke-linecap="round"/>
<path d="M434.406 246.188C441.235 248.197 444.405 242.148 438.423 239.157C432.799 236.345 427.978 237.349 424.362 233.131" stroke="black" stroke-width="2" stroke-linecap="round"/>
<path d="M440.432 240.563C441.972 239.224 443.806 235.782 438.825 232.729C432.598 228.912 403.471 216.057 407.087 205.812C408.15 202.799 413.917 203.001 418.738 196.773C422.318 192.148 418.738 186.73 414.318 189.743C413.18 190.613 406.163 195.166 402.467 193.559C397.875 191.563 382.768 189.765 371.935 203.349C371.805 203.511 371.633 203.633 371.433 203.691C362.451 206.3 342.826 210.052 333.769 204.808" stroke="black" stroke-width="2" stroke-linecap="round"/>
<path d="M402.065 212.24C399.588 214.584 392.624 215.454 388.205 211.236" stroke="black" stroke-width="2" stroke-linecap="round"/>
<path d="M200.508 68.7116C202.024 86.0038 209.785 116.501 228.63 117.683C248.481 118.928 256.752 78.6719 256.752 68.2966" stroke="black" stroke-width="2" stroke-linecap="round"/>
<path d="M204.124 67.8948L198.499 67.0913" stroke="black" stroke-width="2" stroke-linecap="round"/>
<path d="M258.884 67.0913C264.976 68.6233 269.767 75.2805 255.145 87.982" stroke="black" stroke-width="2" stroke-linecap="round"/>
<path d="M197.871 67.0913C192.561 67.7877 186.971 75.8654 203.32 87.982" stroke="black" stroke-width="2" stroke-linecap="round"/>
<ellipse cx="214.569" cy="70.5061" rx="3.6157" ry="3.41483" fill="black"/>
<circle cx="242.089" cy="70.5061" r="3.41483" fill="black"/>
<circle cx="214.971" cy="70.3052" r="11.4541" stroke="black" stroke-width="2"/>
<path d="M252.94 70.3052C252.94 76.6465 247.887 81.7592 241.687 81.7592C235.487 81.7592 230.434 76.6465 230.434 70.3052C230.434 63.9639 235.487 58.8511 241.687 58.8511C247.887 58.8511 252.94 63.9639 252.94 70.3052Z" stroke="black" stroke-width="2"/>
<path d="M225.818 69.1003H230.639" stroke="black" stroke-width="2" stroke-linecap="round"/>
<path d="M223.868 76.7332C222.823 82.5249 222.707 92.1409 233.049 86.8456" stroke="black" stroke-width="2" stroke-linecap="round"/>
<path d="M221.399 99.2307C223.608 98.018 229.353 96.3203 234.656 99.2307" stroke="black" stroke-width="2" stroke-linecap="round"/>
<path d="M251.931 67.0913H258.761" stroke="black" stroke-width="2" stroke-linecap="round"/>
<path d="M197.145 33.5559C176.065 43.4818 185.891 60.8522 193.439 68.2966C194.757 67.304 198.929 67.0559 200.85 67.0559C197.227 40.5868 210.868 33.5557 216.907 31.9014C233.787 29.0063 253.137 33.5559 256.431 46.7905C260.366 62.6004 260.489 67.883 263.548 68.2966C275.17 59.0324 273.456 41.2761 271.146 33.5559C274.16 24.9325 267.43 17.1506 263.548 12.4634C259.666 7.77611 249.02 -0.771423 230.081 0.0559612C192.616 3.77818 195.086 26.9386 197.145 33.5559Z" fill="black"/>
<path d="M207.739 53.8339C209.447 53.5307 214.569 53.1063 221.399 53.8339" stroke="black" stroke-width="2" stroke-linecap="round"/>
<path d="M235.862 54.637C237.469 54.0307 242.29 53.1818 248.718 54.637" stroke="black" stroke-width="2" stroke-linecap="round"/>
<path d="M210.065 115.8C170.292 112.988 160.49 107.324 131.725 176.263" stroke="#A0A0A0" stroke-width="2" stroke-linecap="round"/>
<path d="M248.599 114.35C282.747 120.375 299.219 99.4847 321.717 168.384" stroke="#A0A0A0" stroke-width="2" stroke-linecap="round"/>
<path d="M155.628 219.852C151.572 239.235 139.004 241.279 132.078 239.711C131.406 239.559 131.172 238.749 131.569 238.186C145.504 218.428 123.317 203.862 111.212 207.089C110.667 207.234 110.073 206.951 109.966 206.397C108.51 198.846 121.051 197.295 122.284 186.507C122.927 180.883 123.69 178.005 126.904 177.87C141.166 177.267 161.052 193.939 155.628 219.852Z" fill="#A0A0A0" stroke="#A0A0A0" stroke-width="2" stroke-linecap="round"/>
<path d="M324.529 170.995C327.852 186.439 338.405 194.082 334.895 204.294C334.728 204.78 334.178 205.022 333.683 204.886C309.616 198.277 303.701 224.876 312.448 235.019C313.059 235.728 312.651 236.945 311.72 236.852C295.209 235.213 282.957 207.77 286.765 197.108C297.813 166.174 323.362 165.571 324.529 170.995Z" fill="#A0A0A0" stroke="#A0A0A0" stroke-width="2" stroke-linecap="round"/>
<path d="M291.787 222.218C291.653 248.8 292.148 276.493 296.005 298.348" stroke="#A0A0A0" stroke-width="2" stroke-linecap="round"/>
<path d="M156.432 217.441C156.7 243.689 155.91 273.806 151.41 300" stroke="#A0A0A0" stroke-width="2" stroke-linecap="round"/>
<path d="M244.95 124.152C246.738 119.134 245.103 115.758 243.517 115.115C233.958 123.606 219.46 120.454 214.089 115.307C212.176 117.006 213.289 122.03 214.089 123.573C224.441 134.689 239.176 128.462 244.95 124.152Z" fill="#A0A0A0"/>
</svg>
