<?xml version="1.0" encoding="UTF-8"?>
<svg xmlns="http://www.w3.org/2000/svg" fill="none" viewBox="0 0 1027 1028" width="1920" height="1921.8695228822"><path fill="#B7CFFF" d="M770.663 664.419h-16.559v93.662h16.559v-93.662z"/><path fill="#212527" d="M771.689 759.107h-18.591v-95.716h18.591v95.716zm-16.539-2.054h14.487v-91.608H755.15v91.608z"/><path fill="#B7CFFF" d="M792.312 711.579h-16.56v46.503h16.56v-46.503z"/><path fill="#212527" d="M793.337 759.107h-18.611v-48.556h18.611v48.556zm-16.559-2.054h14.507v-44.448h-14.507v44.448z"/><path fill="#B7CFFF" d="M813.324 680.992h-16.559v77.087h16.559v-77.087z"/><path fill="#212527" d="M814.329 759.109h-18.591v-79.14h18.591v79.14zm-16.539-2.054h14.487v-75.032H797.79v75.032zM832.223 765.803h-78.674a1.029 1.029 0 0 1-.725-1.753c.192-.193.453-.301.725-.301h78.674a1.026 1.026 0 0 1 0 2.054z"/><path fill="#212527" d="M826.211 770.896a1.025 1.025 0 0 1-1.026-1.027v-78.75a1.026 1.026 0 1 1 2.052 0v78.75a1.027 1.027 0 0 1-1.026 1.027zM222.471 159.505a5.566 5.566 0 0 1-3.418 5.157 5.557 5.557 0 0 1-6.067-1.193 5.568 5.568 0 0 1 3.924-9.51 5.565 5.565 0 0 1 5.561 5.546zM283.826 173.53a10.043 10.043 0 0 1-6.175 9.293 10.028 10.028 0 0 1-10.94-2.155 10.049 10.049 0 0 1-2.197-10.942 10.029 10.029 0 0 1 18.541-.038c.506 1.218.769 2.523.771 3.842zM191.219 204.237a7.69 7.69 0 0 1-4.723 7.091 7.666 7.666 0 0 1-8.356-1.638 7.681 7.681 0 0 1-1.703-8.35 7.672 7.672 0 0 1 14.782 2.897z"/><path fill="#212527" d="M184.386 204.857l-1.642-1.232 33.776-45.271 59.282 14.194-.472 1.992-57.969-13.864-32.975 44.181zM819.603 628.045a37.9 37.9 0 0 0 1.026 8.729l-8.762 6.799 8.885 15.672 10.26-4.231a37.264 37.264 0 0 0 15.042 8.832l1.477 11.01h17.975l1.56-11.051a36.928 36.928 0 0 0 15.144-8.688l10.26 4.231 9.029-15.549-8.721-6.799a37.2 37.2 0 0 0 0-17.459l8.762-6.819-8.886-15.672-10.26 4.108a37.057 37.057 0 0 0-15.041-8.853l-1.457-11.009h-17.975l-1.56 11.05a36.93 36.93 0 0 0-15.164 8.689l-10.26-4.231-8.926 15.754 8.7 6.819a38.15 38.15 0 0 0-1.108 8.668zm32.627-19.39a19.97 19.97 0 0 1 12.641 1.216 19.997 19.997 0 0 1 9.358 8.594 20.022 20.022 0 0 1-3.398 23.866 19.967 19.967 0 0 1-23.86 3.269 19.996 19.996 0 0 1-8.534-9.414 20.024 20.024 0 0 1 4.213-22.233 19.963 19.963 0 0 1 9.601-5.298h-.021z"/><path fill="#fff" d="M748.461 531.831a21.075 21.075 0 0 0 .533 4.93l-4.945 3.902 5.048 8.771 5.807-2.362a20.909 20.909 0 0 0 8.495 4.95l.842 6.162h10.095l.883-6.162a21.111 21.111 0 0 0 8.516-4.909l5.786 2.382 5.089-8.75-4.925-3.861c.77-3.234.77-6.604 0-9.839l4.946-3.82-5.048-8.771-5.787 2.342a20.886 20.886 0 0 0-8.495-4.95l-.821-6.162h-10.075l-.883 6.162a20.71 20.71 0 0 0-8.515 4.888l-5.787-2.383-5.089 8.751 4.925 3.861a19.824 19.824 0 0 0-.595 4.868zm18.796-11.071a11.194 11.194 0 0 1 6.961.912 11.21 11.21 0 0 1 5.053 4.879 11.229 11.229 0 0 1-2.028 13.192 11.193 11.193 0 0 1-13.198 1.907 11.211 11.211 0 0 1-2.567-17.835 11.234 11.234 0 0 1 5.779-3.055z"/><path fill="#E3C4FF" d="M257.355 411.427a26.48 26.48 0 0 0 2.975 5.443l-3.98 6.717 9.931 7.846 5.643-5.505a25.757 25.757 0 0 0 12.107 1.767l3.899 6.778 11.717-4.724-1.888-7.62a26.045 26.045 0 0 0 7.572-9.675h7.818l1.765-12.529-7.49-2.054a26.283 26.283 0 0 0-4.597-11.4l3.899-6.758-9.931-7.866-5.623 5.463a26.352 26.352 0 0 0-12.148-1.787l-3.858-6.778-11.737 4.724 1.908 7.621a26.157 26.157 0 0 0-7.592 9.695h-7.798l-1.785 12.529 7.49 2.054c.325 2.08.896 4.115 1.703 6.059zm16.149-21.279a14.092 14.092 0 0 1 8.585-2.575 14.096 14.096 0 0 1 13.222 10.687 14.126 14.126 0 0 1-6.655 15.652 14.087 14.087 0 0 1-16.86-2.128 14.115 14.115 0 0 1-4.099-7.977 13.883 13.883 0 0 1 .897-7.663 13.86 13.86 0 0 1 4.849-5.996h.061zM265.727 355.438c.31.79.709 1.541 1.19 2.239l-1.601 2.753 4.104 3.183 2.299-2.239a10.8 10.8 0 0 0 4.965.699l1.581 2.773 4.781-1.931-.78-3.081a11.021 11.021 0 0 0 3.098-3.964h3.181l.718-5.115-3.057-.883a10.94 10.94 0 0 0-1.868-4.642l1.601-2.752-4.104-3.184-2.278 2.218a10.54 10.54 0 0 0-4.966-.698l-1.58-2.773-4.781 1.931.759 3.081a10.966 10.966 0 0 0-3.078 3.964h-3.201l-.718 5.114 3.058.863c.121.84.349 1.662.677 2.444zm6.751-8.832a5.744 5.744 0 0 1 8.775 5.987 5.746 5.746 0 0 1-7.881 4.111 5.749 5.749 0 0 1-2.556-2.149 5.895 5.895 0 0 1-.842-2.054 5.823 5.823 0 0 1 2.504-5.895z"/><path fill="#FF9D9D" d="M239.585 291.497h548.438c1.632 0 3.198.649 4.353 1.805a6.166 6.166 0 0 1 1.803 4.357v272.052a6.157 6.157 0 0 1-6.156 6.162H233.429V297.659a6.162 6.162 0 0 1 6.156-6.162z"/><path fill="#212527" d="M798.488 590.99H229.223a11.305 11.305 0 0 1-7.975-3.315 11.324 11.324 0 0 1-3.311-7.982V216.34a11.32 11.32 0 0 1 3.311-7.982 11.297 11.297 0 0 1 7.975-3.315H800.54a9.25 9.25 0 0 1 6.524 2.713 9.268 9.268 0 0 1 2.71 6.53v365.407a11.324 11.324 0 0 1-3.311 7.982 11.307 11.307 0 0 1-7.975 3.315zM229.223 207.097a9.25 9.25 0 0 0-6.524 2.713 9.268 9.268 0 0 0-2.71 6.53v363.353a9.267 9.267 0 0 0 2.71 6.529 9.25 9.25 0 0 0 6.524 2.714h569.265a9.25 9.25 0 0 0 6.524-2.714 9.267 9.267 0 0 0 2.71-6.529V214.286a7.19 7.19 0 0 0-2.103-5.083 7.177 7.177 0 0 0-5.079-2.106H229.223z"/><path fill="#FF9D9D" d="M240.57 221.683h305.235c2.177 0 4.265.865 5.804 2.406a8.218 8.218 0 0 1 2.404 5.81v2.937a6.163 6.163 0 0 1-6.156 6.162H240.57a8.205 8.205 0 0 1-5.804-2.407 8.219 8.219 0 0 1-2.404-5.809v-.883c0-2.179.865-4.269 2.404-5.81a8.204 8.204 0 0 1 5.804-2.406z"/><path fill="#212527" d="M547.857 240.007H240.57a9.229 9.229 0 0 1-6.529-2.707 9.249 9.249 0 0 1-2.705-6.536v-.863a9.266 9.266 0 0 1 2.711-6.53 9.252 9.252 0 0 1 6.523-2.713h305.235c2.449 0 4.798.974 6.529 2.707a9.249 9.249 0 0 1 2.705 6.536v2.917a7.19 7.19 0 0 1-7.182 7.189zM240.57 222.712a7.18 7.18 0 0 0-5.079 2.106 7.196 7.196 0 0 0-2.103 5.083v.863c0 1.907.757 3.735 2.103 5.083a7.18 7.18 0 0 0 5.079 2.106h307.287a5.126 5.126 0 0 0 3.627-1.504 5.138 5.138 0 0 0 1.503-3.631v-2.917a7.192 7.192 0 0 0-2.104-5.083 7.178 7.178 0 0 0-5.078-2.106H240.57z"/><path fill="#fff" d="M249.147 263.045a6.457 6.457 0 0 1-1.077 3.591 6.438 6.438 0 0 1-6.618 2.756 6.452 6.452 0 0 1 1.273-12.776 6.444 6.444 0 0 1 6.422 6.429z"/><path fill="#212527" d="M242.663 270.528a7.465 7.465 0 0 1-6.916-4.601 7.486 7.486 0 0 1 1.606-8.155 7.468 7.468 0 0 1 12.758 5.28 7.48 7.48 0 0 1-2.18 5.279 7.461 7.461 0 0 1-5.268 2.197zm0-12.878a5.416 5.416 0 0 0-5.022 3.338 5.433 5.433 0 0 0 1.171 5.919 5.42 5.42 0 0 0 2.778 1.485 5.42 5.42 0 0 0 6.469-5.34 5.423 5.423 0 0 0-1.586-3.814 5.413 5.413 0 0 0-3.81-1.588z"/><path fill="#fff" d="M264.537 269.474a6.426 6.426 0 0 0 6.423-6.429 6.427 6.427 0 0 0-6.423-6.429 6.427 6.427 0 0 0-6.423 6.429 6.426 6.426 0 0 0 6.423 6.429z"/><path fill="#212527" d="M264.538 270.528a7.468 7.468 0 0 1-6.916-4.601 7.486 7.486 0 0 1 1.606-8.155 7.468 7.468 0 0 1 12.758 5.28 7.48 7.48 0 0 1-2.18 5.279 7.461 7.461 0 0 1-5.268 2.197zm0-12.878a5.416 5.416 0 0 0-5.022 3.338 5.433 5.433 0 0 0 1.171 5.919 5.42 5.42 0 0 0 2.778 1.485 5.42 5.42 0 0 0 6.469-5.34 5.423 5.423 0 0 0-1.586-3.814 5.413 5.413 0 0 0-3.81-1.588z"/><path fill="#fff" d="M292.835 263.045a6.448 6.448 0 0 1-7.688 6.349 6.445 6.445 0 0 1-5.073-5.062 6.453 6.453 0 0 1 2.736-6.627 6.434 6.434 0 0 1 3.581-1.089 6.462 6.462 0 0 1 4.543 1.888 6.473 6.473 0 0 1 1.901 4.541z"/><path fill="#212527" d="M286.391 270.528a7.464 7.464 0 0 1-6.901-4.615 7.485 7.485 0 0 1 1.62-8.148 7.459 7.459 0 0 1 11.492 1.133 7.488 7.488 0 0 1-.929 9.44 7.463 7.463 0 0 1-5.282 2.19zm0-12.878a5.414 5.414 0 0 0-5.007 3.352 5.428 5.428 0 0 0 1.184 5.912 5.41 5.41 0 0 0 8.337-.844 5.424 5.424 0 0 0 .903-3.018 5.413 5.413 0 0 0-1.587-3.827 5.401 5.401 0 0 0-3.83-1.575z"/><path fill="#FF9D9D" d="M513.855 908.737c174.98 0 316.829-13.73 316.829-30.667 0-16.936-141.849-30.666-316.829-30.666-174.98 0-316.829 13.73-316.829 30.666 0 16.937 141.849 30.667 316.829 30.667z"/><path fill="#fff" d="M524.465 852.069s-13.708 16.596-16.15 29.68c-2.441 13.084 1.765 12.324 5.089 12.612 3.325.287 12.312-10.619 14.611-14.83 2.298-4.211 7.305-29.023 7.305-29.023l-10.855 1.561zM651.75 849.546l7.387-4.827s11.82 10.27 21.402 13.166c9.583 2.896 28.585-1.869 32.032 9.715 0 0-17.339 6.039-27.599 5.259-10.26-.781-34.494-.391-34.494-.391l1.272-22.922z"/><path fill="#212527" d="M580.299 489.476s-14.364 109.539-18.653 140.021c-4.288 30.481-21.115 110.772-24.234 128.888-3.119 18.117-14.938 95.84-14.938 95.84l12.435 5.607 90.78-273.182s13.051 100.811 12.435 131.313c-.615 30.502 11.82 134.906 11.82 134.906l12.414-5.566s15.555-81.564 13.072-111.45c-2.483-29.886 6.833-126.321 3.734-161.177-3.098-34.857-7.469-87.131-7.469-87.131s-33.571 20.602-91.396 1.931z"/><path fill="#212527" d="M512.399 895.252h-.985a5.256 5.256 0 0 1-4.925-4.273c-2.688-10.454 12.681-37.095 19.576-41.819a1.023 1.023 0 0 1 1.416.247 1.051 1.051 0 0 1-.267 1.417c-6.156 4.293-21.177 30.317-18.755 39.663a3.288 3.288 0 0 0 3.16 2.752h.78c14.364 0 21.074-37.157 21.156-37.527a.982.982 0 0 1 1.169-.821 1 1 0 0 1 .814.775c.028.13.031.265.007.395-.287 1.603-7.161 39.191-23.146 39.191z"/><path fill="#fff" d="M626.716 582.67a1.047 1.047 0 0 1-.636-.226 1.017 1.017 0 0 1-.366-.679 1.013 1.013 0 0 1 .222-.738l29.508-36.459a.998.998 0 0 1 .678-.366 1.015 1.015 0 0 1 .738.222 1.001 1.001 0 0 1 .374.678.99.99 0 0 1-.231.74L627.372 582.3a.98.98 0 0 1-.656.37zM629.753 587.087a1.042 1.042 0 0 1-.883-.513 1.012 1.012 0 0 1 .37-1.377 79.631 79.631 0 0 0 12.702-9.284 1.01 1.01 0 0 1 .718-.302 1.002 1.002 0 0 1 .718.302 1.027 1.027 0 0 1 0 1.438 82.408 82.408 0 0 1-13.03 9.51.963.963 0 0 1-.595.226z"/><path fill="#212527" d="M684.972 873.886c-4.535 0-10.137-.267-15.554-.514-7.633-.369-17.114-.821-18.365 0a1.067 1.067 0 0 1-1.047 0 1.021 1.021 0 0 1-.533-.904l.533-31.611a.931.931 0 0 1 .273-.748.921.921 0 0 1 .753-.258 1.049 1.049 0 0 1 1.006 1.027l-.513 30.276c2.688-.452 8.208-.247 17.996.205 5.396.247 10.978.514 15.451.514 10.26 0 23.024-3.841 26.41-4.93a9.954 9.954 0 0 0-7.265-6.039 34.028 34.028 0 0 0-8.372-.616h-3.365a47.67 47.67 0 0 1-18.508-4.422 47.716 47.716 0 0 1-15.309-11.311 1.01 1.01 0 0 1 0-1.438 1.028 1.028 0 0 1 1.436 0 45.538 45.538 0 0 0 14.645 10.835 45.478 45.478 0 0 0 17.715 4.221h3.202a35.133 35.133 0 0 1 9.131.862c3.981.986 8.208 4.006 8.967 8.524a1.044 1.044 0 0 1-.677 1.11c-.718.102-15.882 5.217-28.01 5.217z"/><path fill="#fff" d="M580.546 521.455a5.766 5.766 0 0 1-2.504-.554 1.007 1.007 0 1 1 .842-1.828 5.765 5.765 0 0 0 6.546-2.28 18.693 18.693 0 0 0 2.79-7.826l2.565-12.837c.055-.263.21-.494.432-.644.223-.149.495-.206.758-.158a1.012 1.012 0 0 1 .784.799c.024.13.023.263-.004.393l-2.544 12.837a20.556 20.556 0 0 1-3.181 8.668 8.531 8.531 0 0 1-6.484 3.43z"/><path fill="#212527" d="M681.114 869.737a77.047 77.047 0 0 1-10.26-.677l-2.893-.432c-6.033-.883-12.312-1.828-17.319.986l-.985-1.766c5.643-3.143 12.312-2.178 18.591-1.212l2.894.411a74.977 74.977 0 0 0 38.085-4.848l.759 1.89a76.863 76.863 0 0 1-28.872 5.648zM515.292 894.381a11.082 11.082 0 0 1-5.397-5.504 16.802 16.802 0 0 1-.472-6.162 48.314 48.314 0 0 1 13.153-29.742l1.457 1.417a46.258 46.258 0 0 0-12.599 28.468 15.918 15.918 0 0 0 .39 5.423 9.546 9.546 0 0 0 4.33 4.252l-.862 1.848z"/><path fill="#fff" d="M735.554 374.91l64.125-104.261-70.199-27.688-57.887 86.021 63.961 45.928z"/><path fill="#FFE0C4" d="M781.087 338.223s5.499-7.046 5.643-14.091c.144-7.045-4.473-7.908-3.263-12.016 1.211-4.108.206-6.47-4.104-10.804-4.309-4.334-14.015-6.901-14.651-4.601-.636 2.301 8.701 6.039 7.798 10.003 0 0-16.621.637-17.401 4.868l-.246 2.938s-3.345 1.54-2.565 3.348c.779 1.807 17.79 1.54 17.79 1.54s-2.811 11.133.903 14.378l10.096 4.437z"/><path fill="#fff" d="M748.892 279.806c17.606 23.231 1.58 52.48-22.162 67.597-23.741 15.118-46.785 8.381-58.707-10.27-11.923-18.65-2.319-46.399 21.402-61.435 23.721-15.035 46.047-13.679 59.467 4.108z"/><path fill="#E3C4FF" d="M767.996 332.062l-29.59 67.905-53.885-46.769s-19.638-9.716-22.142-26.148l-38.249-5.34s-4.576 18.178-12.435 22.122l-8.577-15.015-1.293 18.486s-19.74-8.011-25.301-12.714c0 0-44.098 19.964-51.3 41.757-7.203 21.793 16.416 74.335 16.416 74.335s8.926 22.861 16.416 24.298c7.49 1.438 22.572-12.529 22.572-12.529l-4.104 26.209s57.702 22.902 95.849-2.362l-.513-85.138s48.653 24.648 63.283 29.947c14.631 5.299 19.987 3.204 19.987 3.204s24.993-65.728 29.282-96.106l-16.416-6.142zm-194.94 101.714l-7.449-28.037 12.681 23.806-5.232 4.231z"/><path fill="#E3C4FF" d="M677.051 345.393s29.816 12.324 58.318-18.157c28.502-30.482 10.363-49.481 10.363-49.481s25.301 17.438 3.591 48.248c-21.711 30.81-45.678 31.118-59.283 28.756-13.605-2.362-12.989-9.366-12.989-9.366z"/><path fill="#212527" d="M596.202 448.913c-.492 0 0 .74.493.74 7.53.123 15.061-.103 22.572-.719l-20.52 8.01a4.726 4.726 0 0 0-1.786 1.048 4.597 4.597 0 0 0-.8 1.766c-3.078 10.825-9.419 32.762-9.131 32.864l-10.527-3.882 4.104-26.209 15.595-13.618zM564.109 400.788l3.817-33.46s12.312 9.387 8.618 21.013c-3.694 11.625 9.357 35.636 9.357 35.636l-7.633 5.567-15.164-31.447 1.005 2.691zM672.188 378.131s3.098 15.734 4.288 16.925c1.191 1.191-1.19-13.105.944-13.824 2.134-.718 7.859 18.589 7.859 18.589s21.895 12.858 29.282 11.667c7.388-1.191 19.022-14.378 19.022-14.378l4.494 4.108s-4.493 12.18-9.952 14.563c0 0 9.275 12.324 30.206 10.003 0 0-1.478 11.235-9.747 9.53-19.494-4.108-76.663-34.158-76.663-34.158l.267-23.025zM538.151 356.509c-9.295 34.569-5.704 46.585 5.397 75.772 0 0 15.246-7.189 27.64-.596l1.17 3.246-20.171 12.508s2.052 16.124 15.677 23.149c0 0-5.438 5.258-9.726 4.478-4.289-.781-21.238-37.547-24.953-44.983-3.714-7.435-21.381-44.633 4.966-73.574z" opacity=".2"/><path fill="#E3C4FF" d="M671.409 341.939a32.719 32.719 0 0 1-8.09-13.613 32.761 32.761 0 0 1-.755-15.821c3.468-18.321 21.608-36.068 35.972-42.086 14.364-6.018 38.988-8.545 47.196 7.271 0 0-17.073-12.961-47.196 3.492-30.123 16.452-31.56 47.796-27.127 60.757z"/><path fill="#212527" d="M738.283 402.101a1.089 1.089 0 0 1-.677-.267l-63.94-57.512a1.007 1.007 0 0 1-.072-1.428 1.015 1.015 0 0 1 1.088-.274c.125.045.24.113.338.202l63.94 57.512a1.009 1.009 0 0 1 0 1.418 1.024 1.024 0 0 1-.677.349z"/><path fill="#212527" d="M750.698 436.611c-16.416 0-71.82-30.502-78.592-34.261a1.012 1.012 0 0 1 .985-1.767c28.605 15.878 73.482 37.938 79.843 33.563 7.182-4.909 24.091-68.891 30.288-94.258l-14.693-6.491-32.832 77.354a1.015 1.015 0 0 1-.543.656 1.03 1.03 0 0 1-1.424-.611 1.03 1.03 0 0 1 .1-.846l33.304-78.278c.114-.251.32-.45.575-.555a1.02 1.02 0 0 1 .779 0l16.416 7.251a1.007 1.007 0 0 1 .575 1.17c-.903 3.657-21.936 89.842-31.314 96.271a6.027 6.027 0 0 1-3.467.802z"/><path fill="#212527" d="M631.107 501.019c-27.62 0-54.502-11.174-54.912-11.338a1.03 1.03 0 0 1-.616-1.089l4.104-26.229a1 1 0 0 1 .4-.66 1.005 1.005 0 0 1 1.574.575 1 1 0 0 1 .017.393l-3.919 25.429c7.12 2.834 64.453 24.36 93.694-2.178l-.328-110.135a1.011 1.011 0 0 1 .287-.725.997.997 0 0 1 .718-.302 1.047 1.047 0 0 1 1.026 1.006l.328 110.608a1.04 1.04 0 0 1-.328.74c-11.389 10.413-26.82 13.905-42.045 13.905zM661.025 326.048h-.124l-37.715-4.498a1.047 1.047 0 0 1-.69-.388 1.035 1.035 0 0 1 .936-1.666l37.716 4.498a1.002 1.002 0 0 1 .677.38 1.002 1.002 0 0 1 .205.75 1.027 1.027 0 0 1-1.005.924z"/><path fill="#212527" d="M559.349 476.663c-4.207 0-7.675-6.162-9.747-9.695l-.78-1.335a219.862 219.862 0 0 1-12.312-24.648c-9.111-20.437-16.847-42.107-11.922-62.01 5.006-20.211 20.355-28.612 36.607-37.486 4.474-2.444 9.111-4.97 13.523-7.764a1.01 1.01 0 0 1 1.53 1.071c-.057.262-.217.49-.442.634-4.474 2.835-9.132 5.382-13.646 7.846-15.842 8.648-30.78 16.823-35.602 36.171-4.823 19.349 2.852 40.608 11.799 60.717a223.249 223.249 0 0 0 12.188 24.504c.247.39.513.842.801 1.376 1.744 3.04 4.966 8.688 8.003 8.688 8.721-.205 57.784-44.592 76.785-62.462l-8.782-13.474-69.768 46.852a1.008 1.008 0 0 1-1.396-.267 1.05 1.05 0 0 1 .267-1.417l70.589-47.407a1.007 1.007 0 0 1 1.131-.015c.113.074.21.17.285.282l.164.247 9.644 14.809a1.025 1.025 0 0 1-.143 1.294c-2.75 2.588-67.367 63.325-78.756 63.674l-.02-.185zM624.766 265.2a1.03 1.03 0 0 1-.615-.226.987.987 0 0 1-.185-1.418c1.744-2.259 5.91-8.852 4.104-12.036a3.103 3.103 0 0 0-2.052-1.828 3.21 3.21 0 0 0-2.339.821 1.005 1.005 0 0 1-1.426-.051 1.006 1.006 0 0 1 .051-1.427 5.308 5.308 0 0 1 4.104-1.356 5.055 5.055 0 0 1 3.509 2.855c2.729 4.909-3.571 13.33-4.309 14.275a1.045 1.045 0 0 1-.842.391zM692.379 349.454c-10.547 0-19.371-3.759-25.014-10.763-6.156-7.6-7.777-18.055-4.617-29.455a65.406 65.406 0 0 1 21.017-30.588 65.3 65.3 0 0 1 34.264-14.21c11.799-.698 21.669 3.081 27.825 10.681 6.156 7.6 7.777 18.055 4.617 29.455a65.4 65.4 0 0 1-21.025 30.593 65.294 65.294 0 0 1-34.276 14.204c-.944.062-1.867.083-2.791.083zm28.441-83.064h-2.668a63.277 63.277 0 0 0-33.117 13.759 63.362 63.362 0 0 0-20.337 29.56c-2.996 10.742-1.478 20.54 4.247 27.626 5.725 7.086 15 10.599 26.102 9.921a63.29 63.29 0 0 0 33.122-13.749 63.39 63.39 0 0 0 20.353-29.55c2.975-10.763 1.477-20.54-4.248-27.646-5.253-6.409-13.522-9.921-23.454-9.921z"/><path fill="#212527" d="M698.966 356.709c-10.26 0-19.268-3.533-25.075-10.722-6.156-7.599-7.777-18.054-4.617-29.454a61.617 61.617 0 0 1 21.053-30.563c21.649-17.542 49.495-19.123 62.094-3.533 6.156 7.579 7.777 18.054 4.617 29.454a61.62 61.62 0 0 1-21.013 30.584c-11.696 9.407-25.178 14.234-37.059 14.234zm28.297-83.063c-11.429 0-24.439 4.683-35.746 13.823a59.575 59.575 0 0 0-20.335 29.557c-2.975 10.742-1.477 20.54 4.248 27.647 11.881 14.707 38.454 12.981 59.22-3.841a59.566 59.566 0 0 0 20.356-29.557c2.976-10.743 1.478-20.54-4.247-27.626-5.377-6.676-13.851-10.003-23.496-10.003z"/><path fill="#212527" d="M683.186 352.724l-21.156 23.991-27.374 31.057-4.945-11.503-2.195 1.13s-.821.308-.801.205a9.765 9.765 0 0 0 1.355-4.909c1.374-.39.102-1.828 0-2.321v-2.588l15.903-14.748.902-.944 28.256-28.592h.349a8.677 8.677 0 0 1 1.498.308c1.221.368 2.362.96 3.366 1.746a14.889 14.889 0 0 1 4.637 6.388c.021.308.103.554.205.78z"/><path fill="#E3C4FF" d="M693.775 327.969a7.967 7.967 0 0 1-3.468-.76 9.397 9.397 0 0 1-5.13-7.579 19.555 19.555 0 0 1 .719-6.881c.8-3.327 1.805-7.25 3.139-11.174a3.94 3.94 0 0 1 7.449 2.568c-1.231 3.594-2.175 7.312-2.934 10.455a12.986 12.986 0 0 0-.555 4.108c.029.513.249.997.616 1.355.123 0 .965.267 3.858-1.725a549.269 549.269 0 0 0 39.275-29.968 3.978 3.978 0 0 1 5.602.555 3.987 3.987 0 0 1-.554 5.607 549.46 549.46 0 0 1-39.85 30.379 14.946 14.946 0 0 1-8.167 3.06z"/><path fill="#212527" d="M693.775 329.101a9.14 9.14 0 0 1-3.899-.862 10.453 10.453 0 0 1-5.704-8.381c-.19-2.426.054-4.868.718-7.209.821-3.389 1.826-7.353 3.18-11.297a4.91 4.91 0 0 1 2.524-2.835 4.845 4.845 0 0 1 3.776-.246 5.008 5.008 0 0 1 2.852 2.526 4.934 4.934 0 0 1 .226 3.78c-1.231 3.553-2.155 7.23-2.914 10.372a12.361 12.361 0 0 0-.533 3.739 2.01 2.01 0 0 0 0 .452 11.45 11.45 0 0 0 2.79-1.541c13.462-9.325 26.676-19.39 39.194-29.906a4.94 4.94 0 0 1 7.528 1.428c.468.863.669 1.846.577 2.824a4.848 4.848 0 0 1-1.744 3.348 546.49 546.49 0 0 1-39.932 30.46 16.015 16.015 0 0 1-8.639 3.348zm-1.026-29.064c-.44.005-.873.103-1.272.288a2.904 2.904 0 0 0-1.478 1.684c-1.334 3.862-2.318 7.785-3.119 11.092a18.227 18.227 0 0 0-.697 6.511 8.407 8.407 0 0 0 4.555 6.799 7.28 7.28 0 0 0 3.037.657 14.357 14.357 0 0 0 7.592-2.978 546.717 546.717 0 0 0 39.789-30.338 2.91 2.91 0 0 0 1.026-2.054 2.803 2.803 0 0 0-.677-2.054 2.94 2.94 0 0 0-2.052-1.047 2.99 2.99 0 0 0-2.052.677c-12.6 10.558-25.835 20.54-39.358 30.009-2.38 1.644-3.96 2.239-4.863 1.808a2.714 2.714 0 0 1-1.19-2.054 13.603 13.603 0 0 1 .574-4.457c.76-3.184 1.724-6.922 2.976-10.558a2.942 2.942 0 0 0-1.827-3.718 2.576 2.576 0 0 0-.964-.369v.102zM715.731 361.966a.96.96 0 0 1-.575-.185l-8.208-5.771a1.05 1.05 0 0 1-.246-1.418 1.02 1.02 0 0 1 .656-.421 1.007 1.007 0 0 1 .76.175l8.208 5.772a1.025 1.025 0 0 1 .226 1.417 1.008 1.008 0 0 1-.821.431zM735.472 375.916a.971.971 0 0 1-.575-.185l-11.019-7.785a1.027 1.027 0 0 1-.226-1.417.995.995 0 0 1 .646-.42.977.977 0 0 1 .75.174l10.136 7.168 32.935-53.404a1.013 1.013 0 1 1 1.724 1.068l-33.509 54.287a1.026 1.026 0 0 1-.657.452l-.205.062zM781.908 300.534a.98.98 0 0 1-.533-.144 1.03 1.03 0 0 1-.329-1.397l17.134-27.852-68.331-26.928-15.082 21.547a1.003 1.003 0 0 1-.656.421 1.007 1.007 0 0 1-.76-.175 1.006 1.006 0 0 1-.246-1.397l15.533-22.224a1.028 1.028 0 0 1 1.211-.37l70.199 27.688a1.005 1.005 0 0 1 .574.616.984.984 0 0 1-.102.863l-17.75 28.879a.986.986 0 0 1-.862.473zM572.564 434.779a1.058 1.058 0 0 1-.883-.493c-1.662-2.793-13.502-50.939-14.856-56.402a1.028 1.028 0 0 1 .759-1.233.983.983 0 0 1 1.05.38c.077.108.132.23.161.36 5.253 21.361 13.481 53.876 14.63 55.848a1.027 1.027 0 0 1-.348 1.397 1.218 1.218 0 0 1-.513.143z"/><path fill="#212527" d="M578.145 429.398a.966.966 0 0 1-.883-.534l-14.364-27.133a1.013 1.013 0 0 1-.079-.774 1.015 1.015 0 0 1 1.865-.192l14.364 27.134a1.026 1.026 0 0 1-.431 1.376.942.942 0 0 1-.472.123zM548.74 436.423a1.026 1.026 0 0 1-1.088-.965 1.03 1.03 0 0 1 .965-1.089 227.348 227.348 0 0 0 17.154-2.752 1.044 1.044 0 0 1 1.059 1.615 1.048 1.048 0 0 1-.669.439c-5.684 1.15-11.511 2.054-17.298 2.793l-.123-.041z"/><path fill="#212527" d="M564.355 404.856a1.084 1.084 0 0 1-.492-.124 1.208 1.208 0 0 1-.616-1.068c.021-.289.136-.564.328-.78l2.791-26.538a1.035 1.035 0 0 1 1.139-.914 1.03 1.03 0 0 1 .913 1.14l-2.811 26.702v.267a1.008 1.008 0 0 1-.328.986 1.205 1.205 0 0 1-.924.329z"/><path fill="#FFE0C4" d="M663.857 374.784c0 3.471-3.591 10.639-3.591 10.639a8.844 8.844 0 0 1-.123.904 22.204 22.204 0 0 1-.821 3.738 17.484 17.484 0 0 1-5.253 8.422l-1.806 1.417a.528.528 0 0 1-.205.144c-4.248 3.266-10.691 7.764-14.569 10.475l-2.052-3.245s-5.561-7.99-6.936-10.722c.352-.451.674-.924.965-1.417a13.31 13.31 0 0 0-.575-4.889 23.38 23.38 0 0 1-.349-1.622 2.57 2.57 0 0 1 .144-1.952c.261-.357.556-.687.882-.986 3.16-3.389 13.174-12.878 13.174-12.878a25.197 25.197 0 0 1 3.119-1.705 5.273 5.273 0 0 1 2.462-.637.802.802 0 0 1 .842.678c.05.313.05.632 0 .945a57.586 57.586 0 0 1-4.002 10.044c0 .472.431.411.513-.39a99.238 99.238 0 0 1 9.091-5.464l.205-.103c3.96-2.054 7.756-3.553 8.639-2.752a.33.33 0 0 1 .123.164c.067.16.122.325.164.493-.061.206-.041.432-.041.699z"/><path fill="#212527" d="M637.632 411.855a1.01 1.01 0 0 1-.821-.431 1.031 1.031 0 0 1 .246-1.418 802.377 802.377 0 0 0 14.364-10.27l.247-.185c5.335-3.861 5.991-5.997 6.607-9.181l.103-.534c.143-.657.266-1.376.451-2.054 0-.37.185-.78.308-1.191a42.03 42.03 0 0 1 1.785-4.56 15.91 15.91 0 0 0 2.052-6.676.95.95 0 0 0 0-.328.749.749 0 0 1 0-.267s-1.806-.185-7.387 2.957c-.116.071-.24.126-.369.165-4.823 2.793-10.137 6.531-10.26 6.573a1.006 1.006 0 0 1-1.437-1.377c.287-.431.554-.883.78-1.273 3.304-5.423 3.94-7.887 3.899-9.017 0-.637-.226-.74-.308-.781a2.059 2.059 0 0 0-1.026-.185h-.616c-1.888.288-5.437 4.108-8.577 7.374-1.888 2.054-3.837 4.108-5.622 5.628a5.945 5.945 0 0 0-1.498 1.89v.123a5.548 5.548 0 0 0-.596 2.157 10.35 10.35 0 0 0 0 1.725c0 .616.185 1.212.288 1.767.272 1.107.369 2.251.287 3.389a7.848 7.848 0 0 1-.759 1.889l-.103.185a1.013 1.013 0 0 1-1.847-.821l.103-.226c.185-.37.534-1.13.616-1.376a10.582 10.582 0 0 0-.288-2.671 24.215 24.215 0 0 1-.307-1.889 10.52 10.52 0 0 1 0-2.054 7.6 7.6 0 0 1 .861-3.081 8.01 8.01 0 0 1 1.929-2.403c1.703-1.5 3.632-3.533 5.5-5.505 3.837-4.108 7.141-7.579 9.726-7.99h.759a3.775 3.775 0 0 1 2.196.431 2.712 2.712 0 0 1 1.334 2.465 16.807 16.807 0 0 1-2.688 7.559c1.949-1.294 4.391-2.855 6.792-4.211l.205-.103c7.285-4.108 9.111-3.574 9.932-2.506.123.139.22.299.287.473.083.184.145.377.185.575.07.248.118.503.143.76a17.267 17.267 0 0 1-2.052 7.682c-.615 1.458-1.272 2.958-1.703 4.354-.103.37-.205.719-.267 1.048a55.554 55.554 0 0 0-.431 2.054l-.102.534c-.698 3.574-1.58 6.162-7.264 10.27-.17.128-.348.245-.534.349-3.611 2.65-10.157 7.292-14.2 10.147a1.06 1.06 0 0 1-.923.041zM722.708 412.044a.98.98 0 0 1-.841-.472 1.002 1.002 0 0 1 .022-1.124.992.992 0 0 1 .286-.273 61.198 61.198 0 0 0 9.685-7.641 1.025 1.025 0 0 1 1.705 1.133c-.072.128-.17.239-.289.326a62.963 62.963 0 0 1-10.014 7.887 1.076 1.076 0 0 1-.554.164zM769.616 333.726a.989.989 0 0 1-.985-.781 26.744 26.744 0 0 1 .144-12.324c-4.75.395-9.532.16-14.22-.698a3.513 3.513 0 0 1-2.463-1.315 2.758 2.758 0 0 1 .472-3.389 5.423 5.423 0 0 1 2.442-1.335 75.112 75.112 0 0 1 12.066-2.67 10.83 10.83 0 0 1 4.74 0c2.996.863 4.679 3.779 6.033 6.429a1.016 1.016 0 0 1-1.215 1.428 1.016 1.016 0 0 1-.591-.504c-1.211-2.382-2.585-4.765-4.801-5.402a9.124 9.124 0 0 0-3.858 0 76.343 76.343 0 0 0-11.738 2.588 4.1 4.1 0 0 0-1.621.822c-.246.267-.369.678-.246.862.123.185.841.391 1.129.452a52.31 52.31 0 0 0 15.082.534 1.027 1.027 0 0 1 .882.35 1.056 1.056 0 0 1 .205.924 25.913 25.913 0 0 0-.472 12.817.992.992 0 0 1-.127.764 1.004 1.004 0 0 1-.632.448h-.226z"/><path fill="#212527" d="M755.52 315.014a1.848 1.848 0 0 1-1.19-.431 2.226 2.226 0 0 1-.883-1.685 3.298 3.298 0 0 1 1.047-2.423 10.682 10.682 0 0 1 4.453-2.568 28.332 28.332 0 0 1 15.02-1.088 1.037 1.037 0 0 1 .66.46 1.05 1.05 0 0 1-1.111 1.594 26.12 26.12 0 0 0-13.913 1.047 8.627 8.627 0 0 0-3.632 2.054 1.418 1.418 0 0 0-.492.924.224.224 0 0 0 .102.185.981.981 0 0 1 1.149.801 1.068 1.068 0 0 1-.841 1.192l-.369-.062z"/><path fill="#212527" d="M781.724 338.945a1.052 1.052 0 0 1-.637-.226 1.03 1.03 0 0 1-.143-1.438 20.429 20.429 0 0 0 3.057-20.787l-.369-.801a11.797 11.797 0 0 1-1.17-3.45 11.55 11.55 0 0 1 .103-3.04 8.99 8.99 0 0 0 0-3.061 8.204 8.204 0 0 0-3.735-3.984 26.054 26.054 0 0 0-11.47-5.156 2.608 2.608 0 0 0-1.601.185c-.152.26-.203.567-.144.863l4.72 2.793a6.528 6.528 0 0 1 3.057 2.999c.26.801.365 1.645.308 2.485a6.398 6.398 0 0 0 0 1.253 1.025 1.025 0 0 1-.841 1.15 1.023 1.023 0 0 1-1.17-.842 13.81 13.81 0 0 1 0-1.602 5.094 5.094 0 0 0-.164-1.725 4.96 4.96 0 0 0-2.216-2.054l-4.843-2.896a2.06 2.06 0 0 1-.882-1.767 2.915 2.915 0 0 1 1.087-2.424 4.41 4.41 0 0 1 2.894-.513 27.891 27.891 0 0 1 12.414 5.505 9.876 9.876 0 0 1 4.556 5.114c.235 1.27.235 2.572 0 3.841a10.805 10.805 0 0 0-.103 2.547 10.281 10.281 0 0 0 1.006 2.876l.369.842a22.614 22.614 0 0 1-3.345 22.902 1.08 1.08 0 0 1-.738.411z"/><path fill="#fff" d="M550.278 255.16l7.983-9.777 5.848 7.723a30.392 30.392 0 0 1-13.831 2.054zM583.008 318.108l-6.464 16.556 25.281 12.714v-18.137l10.054 15.754a121.58 121.58 0 0 0 12.312-23.21l-7.53-8.647s-9.399 14.809-15.083 14.378c-5.684-.432-18.57-9.408-18.57-9.408z"/><path fill="#FFE0C4" d="M620.046 233.06l2.278 14.645s7.469.329 7.141 5.546c-.328 5.217-5.52 13.33-5.52 13.33s3.571 22.944-7.49 34.015v11.317s-7.12 14.234-14.569 17.336c0 0-12.312-4.416-18.201-9.941 0 0-8.66-30.564-11.594-40.32 0 0-5.458 3.348-8.967.184-3.509-3.163-9.275-10.557-6.546-14.501 2.729-3.944 9.562-2.321 9.562-2.321l-7.818-16.904s13.338-17.254 30.903-16.597a153.744 153.744 0 0 1 30.821 4.211z"/><path fill="#212527" d="M566.181 267.279l4.268-2.526s-3.714-7.354.698-10.825c4.412-3.471 8.516-7.887 5.356-17.993 0 0 6.299-3.143 16.416-.637 10.116 2.506 35.602 5.259 46.621-6.408 11.019-11.667 12.004-16.309 7.593-24.196-4.412-7.888-12.62 3.471-25.856-2.198-13.235-5.669-23.31-10.414-45.698 4.108-22.387 14.522-25.855 27.441-21.443 36.274 4.412 8.832 8.577 16.514 12.045 24.401z"/><path fill="#fff" d="M551.182 251.873l2.811-6.449a46.316 46.316 0 0 1-1.067-26.127c4.494-17.439 23.844-26.148 35.499-27.75 11.656-1.602 20.52 3.964 29.324 8.38l16.169 3.287s-49.473 5.936-82.736 48.659z"/><path fill="#212527" d="M608.453 303.733c-7.387 0-19.843-2.896-25.322-7.661l-.164-.185-11.799-16.905a1.024 1.024 0 0 1 .267-1.417.982.982 0 0 1 1.395.246l11.717 16.802c6.546 5.567 22.88 8.216 27.394 6.717 4.514-1.5 10.034-5.3 11.368-22.759 1.334-17.459-3.18-40.771-3.221-41.08a1.026 1.026 0 0 1 .8-1.191 1.026 1.026 0 0 1 1.19.801c0 .226 4.637 23.683 3.263 41.573-1.437 18.671-7.593 22.923-12.805 24.648-1.335.327-2.71.465-4.083.411z"/><path fill="#212527" d="M566.694 281.081a9.075 9.075 0 0 1-4.104-1.007 16.941 16.941 0 0 1-7.038-9.51 8.635 8.635 0 0 1 0-6.367c2.503-4.58 9.624-1.438 9.931-1.315a1.01 1.01 0 0 1 .513 1.336 1.007 1.007 0 0 1-1.333.513s-5.746-2.444-7.326.431a6.46 6.46 0 0 0 .123 4.807 15.22 15.22 0 0 0 5.992 8.216 6.851 6.851 0 0 0 6.587-.123 1.024 1.024 0 0 1 1.395.308.965.965 0 0 1 .155.364.973.973 0 0 1-.156.759.967.967 0 0 1-.286.273 8.699 8.699 0 0 1-4.453 1.315zM607.899 271.592a.986.986 0 0 1-.985-.801 1.001 1.001 0 0 1 .151-.764 1.008 1.008 0 0 1 .649-.427 5.113 5.113 0 0 0 2.976-1.869c.328-.411.636-1.048.451-1.459a2.728 2.728 0 0 0-.41-.534 22.374 22.374 0 0 1-2.052-2.485 7.007 7.007 0 0 1-1.519-4.622 37.755 37.755 0 0 1 .37-6.819 1.029 1.029 0 0 1 1.149-.863 1.027 1.027 0 0 1 .862 1.151 37.6 37.6 0 0 0-.37 6.449c.002.596.078 1.189.226 1.767.214.643.533 1.247.944 1.787.536.779 1.126 1.52 1.765 2.218.334.321.611.696.82 1.109a3.487 3.487 0 0 1-.677 3.533 7.186 7.186 0 0 1-4.206 2.629h-.144zM601.66 280.896a12.696 12.696 0 0 1-1.888-.144h-.615a15.74 15.74 0 0 1-6.361-1.89 1.022 1.022 0 0 1-.39-1.396.993.993 0 0 1 .606-.482 1.003 1.003 0 0 1 .769.091 13.354 13.354 0 0 0 5.519 1.664h.739a6.023 6.023 0 0 0 3.304-.185 1.048 1.048 0 0 1 1.375.452 1.03 1.03 0 0 1-.452 1.356 5.673 5.673 0 0 1-2.606.534zM587.173 248.567a.98.98 0 0 1-.533-.144 1.027 1.027 0 0 1-.329-1.396 19.133 19.133 0 0 1 3.427-4.416 10.123 10.123 0 0 1 8.372-2.28 1.043 1.043 0 0 1 .831 1.222 1.043 1.043 0 0 1-1.221.832 8.07 8.07 0 0 0-6.648 1.828 16.405 16.405 0 0 0-3.037 3.943 1.051 1.051 0 0 1-.862.411zM619.862 247.308a1.007 1.007 0 0 1-1.006-.842 1.75 1.75 0 0 0-.533-.986 4.298 4.298 0 0 0-1.129-.657 8.197 8.197 0 0 0-7.059-.185 1.009 1.009 0 0 1-1.385-.359 1.012 1.012 0 0 1 .359-1.387 9.96 9.96 0 0 1 8.906 0c.629.248 1.206.61 1.703 1.068a3.766 3.766 0 0 1 1.129 2.054 1.01 1.01 0 0 1-.821 1.171l-.164.123zM597.208 255.852c.144 1.52-.349 2.814-1.108 2.875-.759.062-1.498-1.088-1.642-2.608-.143-1.52.349-2.814 1.109-2.896.759-.082 1.498 1.109 1.641 2.629zM616.004 254.784c.144 1.52-.349 2.814-1.108 2.876-.759.062-1.477-1.109-1.621-2.608-.144-1.5.349-2.814 1.108-2.897.759-.082 1.477 1.11 1.621 2.629zM616.599 314.15a1.001 1.001 0 0 1-1.006-.903 70.665 70.665 0 0 1-.595-12.18.987.987 0 0 1 1.067-.945 1 1 0 0 1 .898.692c.042.128.057.262.046.396a75.449 75.449 0 0 0 .595 11.811 1.024 1.024 0 0 1-.902 1.129h-.103z"/><path fill="#212527" d="M582.844 319.039a1.008 1.008 0 0 1-1.006-.884c-1.252-10.413-4.473-19.513-7.859-29.146-1.149-3.286-2.36-6.675-3.488-10.167a1.043 1.043 0 0 1 .068-.779c.122-.242.333-.426.588-.515a1.007 1.007 0 0 1 1.083.31c.085.102.15.22.19.347 1.128 3.471 2.318 6.86 3.467 10.126 3.427 9.736 6.669 18.938 7.962 29.578a1.031 1.031 0 0 1-.882 1.13h-.123zM550.279 256.228a.772.772 0 0 1-.37 0 .985.985 0 0 1-.615-1.171c6.504-27.975 22.756-45.373 49.699-53.178 16.252-4.724 37.121.185 38.003.411a.982.982 0 0 1 .759 1.047 1.004 1.004 0 0 1-.903.945 117.535 117.535 0 0 0-48.597 16.186 117.66 117.66 0 0 0-37.115 35.329.987.987 0 0 1-.861.431zm64.884-54.472a56.992 56.992 0 0 0-15.616 1.931c-24.296 7.045-39.665 22.121-46.786 46.03a120.804 120.804 0 0 1 77.546-46.749 103.088 103.088 0 0 0-15.144-1.212z"/><path fill="#212527" d="M552.351 256.989a8.203 8.203 0 0 1-2.339-.267 1.005 1.005 0 0 1-.703-.881 1.023 1.023 0 0 1 .545-.988 1.018 1.018 0 0 1 .774-.062s3.693 1.027 10.978-2.177a1.023 1.023 0 0 1 1.21.587 1.027 1.027 0 0 1-.41 1.282 25.384 25.384 0 0 1-10.055 2.506zM552.843 244.58c-.102-.308-9.993-31.241 14.364-46.256 29.795-18.362 50.911 1.233 51.116 1.438l-1.396 1.459c-.82-.76-20.232-18.671-48.673-1.171-23.003 14.172-13.584 43.606-13.502 43.894l-1.909.636zM601.825 348.413a.977.977 0 0 1-.41 0c-.883-.37-21.793-9.222-25.979-14.111a.988.988 0 0 1-.164-1.068l6.792-15.446a1.023 1.023 0 0 1 1.245-.545c.158.051.301.139.417.257a43.994 43.994 0 0 0 18.345 10.845 1.004 1.004 0 0 1 .76.966v18.157a1.044 1.044 0 0 1-.452.863 1.094 1.094 0 0 1-.554.082zm-24.357-15.076c4.104 3.923 18.755 10.496 23.393 12.508v-15.836a45.34 45.34 0 0 1-17.463-10.147l-5.93 13.475z"/><path fill="#212527" d="M611.88 346.009h-.144a1.064 1.064 0 0 1-.718-.472l-10.055-15.754a1.089 1.089 0 0 1-.143-.76c.06-.264.223-.492.451-.637.123 0 11.778-7.579 14.528-16.699a1.026 1.026 0 0 1 1.346-.636c.173.067.325.181.439.328l7.367 9.818a1.046 1.046 0 0 1 .164.822c-.143.657-3.734 15.795-12.558 23.723a.942.942 0 0 1-.677.267zm-8.68-16.432l8.864 13.886c6.936-6.943 10.261-18.938 10.958-21.403l-5.93-7.929c-3.181 7.559-11.245 13.577-13.892 15.405v.041z"/><path fill="#fff" d="M581.428 224.737a1.022 1.022 0 0 1-1.01-1.153 1.015 1.015 0 0 1 .389-.667.988.988 0 0 1 .354-.172 72.111 72.111 0 0 1 22.572-2.28c2.216.143 4.473.369 6.649.595a59.8 59.8 0 0 0 14.836.37c6.525-.924 13.789-4.93 15.266-11.79a1.024 1.024 0 0 1 1.191-.78.993.993 0 0 1 .645.441 1.014 1.014 0 0 1 .134.77c-1.682 7.806-9.726 12.324-16.949 13.372a62.875 62.875 0 0 1-15.349-.349c-2.155-.226-4.371-.473-6.546-.596a69.907 69.907 0 0 0-21.915 2.198l-.267.041zM596.038 217.078a1.004 1.004 0 0 1-1.007-.764 1.01 1.01 0 0 1 .535-1.146c6.156-3.307 13.297-3.903 20.048-4.232h.554a38.79 38.79 0 0 0 8.885-1.109 11.799 11.799 0 0 0 7.141-5.073 1.048 1.048 0 0 1 1.395-.37 1.026 1.026 0 0 1 .37 1.397 13.897 13.897 0 0 1-8.352 5.998 41.448 41.448 0 0 1-9.336 1.191h-.554c-6.526.308-13.359.883-19.207 3.985a.953.953 0 0 1-.472.123z"/><path fill="#212527" d="M240.94 621.444c-6.526 2.608 16.97 41.08 24.788 43.134 7.818 2.054 31.97-58.128 25.445-61.394-6.526-3.266-23.475 47.016-26.676 47.016-3.201 0-17.093-31.365-23.557-28.756z"/><path fill="#CCA4EF" d="M498.404 663.371l-3.96 27.031s1.58 14.645-25.588 20.93c-11.676 2.711-28.728.842-44.344-2.198a358.056 358.056 0 0 1-39.091-10.023l4.248-8.997 6.525-13.844-.225-1.746-.575-4.416-8.618 2.876-67.429 22.306-6.936-15.097 56.738-34.918-.123-9.345-10.855-.452c0-5.238 3.529-14.132 3.529-14.132l6.279-1.766s-5.766-61.62-3.652-71.027c2.113-9.408 21.751-21.198 21.751-21.198a33.446 33.446 0 0 0 17.257 18.835l5.048-12.57 4.843 10.023c12.312-5.443 22.736-25.49 22.736-25.49s28.174 7.395 48.571 38.78 13.871 106.438 13.871 106.438z"/><path fill="#212527" d="M445.934 672.449c12.538 14.276-39.726 6.738-41.84 6.429a30.948 30.948 0 0 1 14.718 11.103 30.99 30.99 0 0 1 5.802 17.51 190.245 190.245 0 0 1-39.234-8.381l4.248-8.996 6.299-15.59-.574-4.416-5.212-28.941s38.413 4.683 71.45 9.736l-54.111 2.917s25.65 4.087 38.454 18.629zM384.396 615.035l47.832-8.36c-1.478-15.323 0-31.016 6.956-44.777a37.316 37.316 0 0 1 6.546-9.059c1.169-1.232 5.684-.492 4.904 5.628-1.58 12.592-2.052 10.825-3.919 23.272l-4.002 25.182s26.307-6.634 29.877 15.426a1.624 1.624 0 0 1-2.277 1.705c-6.156-2.855-21.403-9.551-27.066-8.216 0 0-22.572-.288-30.144 1.458-7.572 1.746-27.825 2.054-27.825 2.054l-.882-4.313z" opacity=".2"/><path fill="#212527" d="M312.391 680.191l6.956 15.097 76.068-25.182-5.11-28.879-21.177-2.834-.123 7.004-56.614 34.794z" opacity=".2"/><path fill="#FFE0C4" d="M314.811 685.205l-3.652-3.656s-11.799-1.787-17.935.801c-6.135 2.588-25.157 9.839-23.085 10.928 2.073 1.088 13.01 1.232 13.01 1.232s-23.742 14.501-23.475 16.432c.267 1.931 22.736 0 26.389-.78 3.652-.781 31.908-16.802 31.908-16.802l-3.16-8.155zM358.253 633.096l3.16-10.167s-10.568-11.934-16.19-12.756a29.85 29.85 0 0 0-12.764 2.054s-10.013-5.628-11.511-2.875c-1.498 2.752.246 8.586.246 8.586s-4.494 7.476-1.477 10.27a9.779 9.779 0 0 1 3.139 6.326s21.956 5.073 35.397-1.438z"/><path fill="#fff" d="M313.088 585.85c-6.156 8.689-19.924 9.49-30.78 1.787-10.855-7.702-13.974-20.971-7.879-29.659 6.094-8.689 19.083-9.51 30.021-1.808 10.937 7.703 14.753 20.91 8.638 29.68z"/><path fill="#C8D1D6" d="M279.251 555.597s-.616 20.992 32.709 27.174c0 0 1.231 8.647-10.486 7.21-11.717-1.438-23.454-12.139-25.937-18.322-2.483-6.183-3.283-14.008 3.714-16.062z"/><path fill="#212527" d="M301.638 590.951h-1.354a31.356 31.356 0 0 1-16.437-6.838 31.402 31.402 0 0 1-10.075-14.688 14.59 14.59 0 0 1 8.36-18.808 14.56 14.56 0 0 1 7.481-.807 31.33 31.33 0 0 1 16.536 6.793 31.383 31.383 0 0 1 10.14 14.733 15.583 15.583 0 0 1-2.298 14.378 15.113 15.113 0 0 1-12.353 5.237zm-13.4-39.169a13.21 13.21 0 0 0-10.649 4.518 13.683 13.683 0 0 0-1.909 12.55 29.431 29.431 0 0 0 9.378 13.635 29.39 29.39 0 0 0 15.246 6.412 12.564 12.564 0 0 0 11.869-4.492 12.601 12.601 0 0 0 1.921-12.556 29.377 29.377 0 0 0-9.426-13.663 29.33 29.33 0 0 0-15.322-6.363l-1.108-.041z"/><path fill="#212527" d="M298.56 594.376h-1.355a31.361 31.361 0 0 1-16.456-6.819 31.415 31.415 0 0 1-10.097-14.687 15.69 15.69 0 0 1 2.278-14.378c6.156-7.579 19.597-6.86 30.041 1.582 10.445 8.442 13.893 21.464 7.737 29.043a15.245 15.245 0 0 1-12.148 5.259zm-24.05-34.651a13.683 13.683 0 0 0-1.908 12.55 29.34 29.34 0 0 0 24.624 20.047 13.679 13.679 0 0 0 11.881-4.478c5.417-6.717 2.052-18.486-7.51-26.23-9.563-7.743-21.669-8.626-27.087-1.889z"/><path fill="#212527" d="M337.712 614.921l-15.41-4.417-16.416-18.486c.046-.12.101-.236.164-.349a7.233 7.233 0 0 1 2.052-2.978 5.315 5.315 0 0 1 1.58-.822c.238-.084.487-.133.739-.143h.287l27.004 27.195zM319.346 696.292a1.003 1.003 0 0 1-.902-.596l-6.977-15.096a1.009 1.009 0 0 1 .39-1.274l56.122-34.487-.144-6.264a1.006 1.006 0 0 1 1.006-1.027.976.976 0 0 1 .723.274.975.975 0 0 1 .303.712l.164 6.839a1.056 1.056 0 0 1-.493.884l-55.855 34.322 6.156 13.454 75.185-24.895a1.007 1.007 0 0 1 1.272.657.988.988 0 0 1-.636 1.274l-76.047 25.161a.845.845 0 0 1-.267.062zM367.713 620.769a1.024 1.024 0 0 1-1.026-.945l-3.981-69.343a.866.866 0 0 1 0-.452 53.382 53.382 0 0 1 22.572-24.874 1.023 1.023 0 0 1 1.505 1.13 1.01 1.01 0 0 1-.459.616 51.169 51.169 0 0 0-21.607 23.703l3.981 69.097a1.003 1.003 0 0 1-.965 1.068h-.02zM492.043 705.639h-.164a.996.996 0 0 1-.659-.401 1.027 1.027 0 0 1-.166-.356 1.025 1.025 0 0 1-.016-.394l6.402-41.285c0-.555 2.052-67.412-7.859-93.519-10.896-28.571-40.917-44.612-53.352-50.199a1.015 1.015 0 0 1-.286-1.658c.097-.091.21-.163.334-.211a1.02 1.02 0 0 1 .773.02c12.64 5.69 43.215 22.039 54.378 51.35 10.096 26.497 8.064 91.67 7.982 94.484l-6.402 41.388a1.012 1.012 0 0 1-.965.781z"/><path fill="#212527" d="M385.278 620.547a1.008 1.008 0 0 1-1.006-.822l-8.208-44.284a1.043 1.043 0 1 1 2.052-.369l8.208 44.284a1.006 1.006 0 0 1-.8 1.171l-.246.02zM416.878 692.205a1.11 1.11 0 0 1-.739-.287 28.71 28.71 0 0 0-15.595-8.216 1.05 1.05 0 0 1-.821-1.192 1.027 1.027 0 0 1 1.17-.821 30.768 30.768 0 0 1 16.703 8.852.99.99 0 0 1 .222 1.094.921.921 0 0 1-.94.57zM443.247 616.948a1.007 1.007 0 0 1-1.006-1.007c0-.164 0-14.932 5.376-40.895a72.675 72.675 0 0 1 4.782-15.446.998.998 0 0 1 .573-.533.997.997 0 0 1 .781.04 1.025 1.025 0 0 1 .492 1.356 69.91 69.91 0 0 0-4.637 14.994c-5.356 25.716-5.335 40.32-5.335 40.464a1.047 1.047 0 0 1-1.006 1.027h-.02z"/><path fill="#212527" d="M469.779 651.79c-18.653 0-95.131-12.324-111.752-15.117a1.01 1.01 0 0 1-.601-.339 1.01 1.01 0 0 1-.24-.647c0-10.722 4.473-14.727 4.678-14.891a.858.858 0 0 1 .534-.247c8.987-1.047 17.011-1.52 24.788-2.054 7.777-.534 15.739-.904 24.624-1.951 16.806-2.054 37.736-4.416 55.158 4.108a1.004 1.004 0 0 1 .248 1.678 1 1 0 0 1-1.131.129c-16.888-8.216-37.49-5.874-54.049-3.943-8.968 1.068-16.991 1.52-24.748 2.054-7.756.534-15.533.883-24.316 1.91-.78.842-3.57 4.457-3.775 12.324 43.666 7.148 109.227 16.884 113.352 14.789 3.283-2.198 11.82-40.218 16.416-63.674a1.044 1.044 0 1 1 2.052.39c-2.052 10.27-12.312 61.62-17.298 64.947a8.831 8.831 0 0 1-3.94.534z"/><path fill="#212527" d="M361.023 623.399a1.02 1.02 0 0 1-.697-.267c-4.884-4.621-12.6-11.256-14.488-11.543a75.298 75.298 0 0 0-12.763 1.068.992.992 0 0 1-.754-.175.992.992 0 0 1-.395-.667 1.03 1.03 0 0 1 .862-1.151 79.99 79.99 0 0 1 13.338-1.068c3.201.452 13.543 10.127 15.595 12.057a1.027 1.027 0 0 1-.698 1.746z"/><path fill="#212527" d="M337.384 637.199c-7.552 0-14.056-.617-14.569-.678a1.05 1.05 0 0 1-.924-1.007 7.117 7.117 0 0 0-2.606-5.279c-3.263-2.321-.39-9.551.718-12.015a8.874 8.874 0 0 1-.225-7.867 2.855 2.855 0 0 1 1.744-1.767c3.242-1.191 9.972 2.321 16.108 5.916l1.293.739a.933.933 0 0 1 .656.391 1.081 1.081 0 0 1 0 1.314c-.595.657-.944.452-2.913-.698-2.873-1.685-11.615-6.778-14.364-5.751a.85.85 0 0 0-.534.534c-1.539 4.436.144 6.285.205 6.346a1.053 1.053 0 0 1 .185 1.151c-1.601 3.389-3.222 8.914-1.621 10.064a8.71 8.71 0 0 1 3.386 5.998c4.432.37 25.239 1.89 33.468-2.239a1.027 1.027 0 0 1 1.375.452 1.001 1.001 0 0 1-.14 1.115c-.087.1-.193.182-.312.241-4.904 2.321-13.42 3.04-20.93 3.04zM444.908 571.721a1.026 1.026 0 0 1-1.005-.904 69.372 69.372 0 0 1 0-14.378 1.02 1.02 0 0 1 .373-.696c.105-.086.225-.15.355-.189a1.02 1.02 0 0 1 1.096.334 1.027 1.027 0 0 1 .228.757 68.254 68.254 0 0 0 0 13.885 1.004 1.004 0 0 1-.525.994 1.007 1.007 0 0 1-.378.115l-.144.082zM384.579 654.001a.793.793 0 0 1-.369 0l-16.047-6.531a1.009 1.009 0 0 1-.035-1.87c.246-.108.523-.115.774-.02l16.129 6.511a1.009 1.009 0 0 1 .574 1.315 1.026 1.026 0 0 1-1.026.595zM451.229 613.767a1.026 1.026 0 0 1-.725-1.753c.192-.192.453-.301.725-.301a45.07 45.07 0 0 0 12.127-2.156 1.006 1.006 0 0 1 1.081.311 1.024 1.024 0 0 1 .236.739 1.008 1.008 0 0 1-.701.881 46.761 46.761 0 0 1-12.681 2.259l-.062.02zM386.262 699.5h-.369a1.03 1.03 0 0 1-.554-1.335l9.808-24.258-5.971-32.864a.981.981 0 0 1 .434-1.029.97.97 0 0 1 .366-.142 1.001 1.001 0 0 1 .763.151 1.008 1.008 0 0 1 .427.65l6.013 33.111c.05.188.05.386 0 .575l-.226.534-9.747 23.929a.986.986 0 0 1-.944.678z"/><path fill="#212527" d="M425.62 677.256h-.205a97.21 97.21 0 0 0-19.659-2.198 60.48 60.48 0 0 0-9.48.575 1 1 0 0 1-.953-1.593c.162-.215.4-.358.666-.399a61.512 61.512 0 0 1 9.788-.596c6.748.05 13.473.793 20.069 2.219a1.03 1.03 0 0 1 .913 1.14 1.035 1.035 0 0 1-1.139.914v-.062zM265.81 713.528a24.123 24.123 0 0 1-5.951-.493 1.728 1.728 0 0 1-.691-.34 1.73 1.73 0 0 1-.478-.605c-.308-.821-.78-2.177 20.52-16.247-3.879.226-8.557.165-9.768-1.253a1.711 1.711 0 0 1-.349-1.581c.513-1.849 4.31-3.471 12.805-6.758a64.213 64.213 0 0 0 10.67-4.724c6.464-4.642 20.807.39 21.423.616a1.002 1.002 0 0 1 .734.903 1.008 1.008 0 0 1-1.01 1.073 1.007 1.007 0 0 1-.401-.086c-.144 0-13.954-4.889-19.556-.863a61.73 61.73 0 0 1-11.142 4.971c-4.104 1.622-10.383 4.108-11.45 5.258 1.21.637 6.402.698 11.819.103a1.049 1.049 0 0 1 1.067.678 1.007 1.007 0 0 1-.41 1.191 257.801 257.801 0 0 0-22.572 15.898c4.391.76 21.997-.123 27.045-3.636 8.762-6.162 28.544-14.747 29.385-15.117a1.01 1.01 0 1 1 .821 1.848c-.205.103-20.52 8.976-29.036 14.933-4.125 2.937-15.944 4.231-23.475 4.231z"/><path fill="#212527" d="M271.391 713.323a.962.962 0 0 1-.862-.493 1.008 1.008 0 0 1 .329-1.376l15.718-9.675a.999.999 0 0 1 .771-.119 1.004 1.004 0 0 1 .624.469 1.004 1.004 0 0 1-.328 1.376l-15.718 9.695a.995.995 0 0 1-.534.123z"/><path fill="#212527" d="M363.711 550.5s10.711 13.104 13.728 28.201c3.016 15.097 7.838 40.834 7.838 40.834l-16.723 1.232-4.843-70.267z" opacity=".2"/><path fill="#fff" d="M441.544 848.934s-27.866 28.263-31.355 33.829c-3.488 5.566-7.449 8.935-.841 12.057 6.607 3.122 26.553 1.007 31.519-.904 6.443-2.444 25.424-27.195 25.424-27.195l-2.442-20.93-22.305 3.143z"/><path fill="#212527" d="M420.613 898.228c-9.624 0-15.185-2.547-16.293-7.579-1.58-7.087 30.452-35.74 34.125-39.026l.41-.37.534.144 2.442.719a56.585 56.585 0 0 0 23.926 2.444h1.006v1.006c.328 4.827.923 8.114.923 8.216v.329l-.144.288c-.574 1.191-14.056 29.29-31.765 32.371a90.96 90.96 0 0 1-15.164 1.458zm18.755-44.675c-14.364 12.838-34.001 32.474-33.078 36.664 1.313 5.854 11.963 7.497 29.262 4.478 15.78-2.752 28.728-27.996 30.144-30.974-.144-.883-.534-3.451-.821-7.025a58.182 58.182 0 0 1-23.639-2.588l-1.868-.555z"/><path fill="#212527" d="M427.446 892.701a51.739 51.739 0 0 1-20.787-5.032l-.348-.164.656-1.911.534.226c6.156 2.835 18.078 7.046 28.974 3.472 10.075-3.287 27.948-32.577 28.133-32.864l1.724 1.068c-.739 1.232-18.468 30.214-29.241 33.747a30.761 30.761 0 0 1-9.645 1.458zM431.406 809.738S360.51 867.25 331.351 867.25c0 0-15.862-5.669-21.69-28.305-5.828-22.635 16.047-55.457 16.047-55.457l58.605-78.258 3.837-5.258s60.37 21.978 100.281-8.216c0 0 4.104 49.296-5.991 69.836-10.096 20.54-51.034 48.146-51.034 48.146z"/><path fill="#212527" d="M332.726 865.461a7.366 7.366 0 0 1-1.888-.205c-11.614-3.06-21.033-20.807-22.695-32.186-1.662-11.379 11.286-45.414 26.676-64.968 15.718-19.924 50.356-64.496 50.705-64.948l1.601 1.253c-.349.452-34.987 45.024-50.705 64.948-16.252 20.54-27.702 53.609-26.286 63.427 1.539 10.558 10.547 27.709 21.197 30.502a5.584 5.584 0 0 0 1.518.164c13.687 0 68.927-30.029 89.837-51.35l1.436 1.418c-20.13 20.54-75.944 51.945-91.396 51.945z"/><path fill="#fff" d="M361.864 812.427a.974.974 0 0 1-.759-.349 1.005 1.005 0 0 1 0-1.417l69.891-61.62a86.276 86.276 0 0 0-12.866-24.792 1.012 1.012 0 1 1 1.642-1.191 88.054 88.054 0 0 1 13.358 26.003 1.046 1.046 0 0 1-.308 1.069l-70.383 62.113a1.003 1.003 0 0 1-.575.184z"/><path fill="#212527" d="M468.897 834.571c3.796-14.378 29.261-95.388 29.528-109.848.267-15.652-11.368-50.755-25.732-60.593-14.364-9.839-33.242 2.3-37.1 11.358-6.915 16.289 1.518 178.021 1.518 178.021l-1.498 1.314a93.98 93.98 0 0 0 31.601 2.527 73.744 73.744 0 0 1 1.683-22.779z"/><path fill="#fff" d="M435.552 787.45a1.007 1.007 0 0 1-1.006-.904c-.369-3.923-8.721-95.839 0-114.079a1.028 1.028 0 0 1 1.355-.472 1.01 1.01 0 0 1 .574.972 1.023 1.023 0 0 1-.102.383c-8.475 17.747 0 112.046.184 112.97.017.133.007.268-.029.397a.984.984 0 0 1-.874.712l-.102.021zM499.143 728.684a1.049 1.049 0 0 1-.965-1.069 78.306 78.306 0 0 0-2.832-19.246l-.246-1.006a1.028 1.028 0 0 1 1.156-1.252.993.993 0 0 1 .659.414c.076.11.129.234.155.366l.246 1.006a80.553 80.553 0 0 1 2.894 19.801 1.034 1.034 0 0 1-.33.714 1.032 1.032 0 0 1-.737.272zM493.869 700.442a1.008 1.008 0 0 1-.964-.699 133.19 133.19 0 0 0-12.312-27.421 1.02 1.02 0 0 1-.12-.765 1.022 1.022 0 0 1 1.571-.61c.109.077.201.174.272.287a137.454 137.454 0 0 1 12.538 27.893 1.025 1.025 0 0 1-.657 1.273.794.794 0 0 1-.328.042z"/><path fill="#FFE0C4" d="M426.872 512.444l9.09 5.771s-10.958 18.486-22.736 25.49l-4.781-9.099-5.11 11.646-11.409-9.818-5.971-10.044 1.518-7.004s-10.055-9.736-16.744-29.845c-6.69-20.108-7.264-31.261-7.264-31.261s31.006-17.439 38.003-12.879c6.997 4.56 16.724 16.432 16.724 16.432l10.937-1.828s6.997 20.335-2.729 24.299l.472 28.14z"/><path fill="#212527" d="M423.096 485.818a10.98 10.98 0 0 1-3.242-.514.985.985 0 0 1-.657-1.253 1.015 1.015 0 0 1 .485-.598.998.998 0 0 1 .767-.079 7.145 7.145 0 0 0 5.643-.309 10.12 10.12 0 0 0 4.329-6.367c1.293-4.498.616-10.763-1.456-13.433a2.79 2.79 0 0 0-2.299-1.253c-3.324.144-5.848 7.723-6.463 10.27a1 1 0 0 1-.443.64.976.976 0 0 1-.768.12 1.006 1.006 0 0 1-.759-1.212c.287-1.191 2.893-11.708 8.351-11.913a4.67 4.67 0 0 1 3.961 2.054c2.524 3.204 3.324 10.044 1.826 15.22a11.96 11.96 0 0 1-5.315 7.579 8.201 8.201 0 0 1-3.96 1.048zM394.655 505.048h-.882a1.027 1.027 0 0 1 0-2.054c7.777.328 10.116-4.376 10.137-4.417a1.016 1.016 0 0 1 1.354-.472 1.018 1.018 0 0 1 .472 1.356c-.02.246-2.688 5.587-11.081 5.587zM390.735 497.525a10.414 10.414 0 0 1-5.601-1.622 4.216 4.216 0 0 1-1.622-1.623 4.996 4.996 0 0 1 0-3.492 26.064 26.064 0 0 0 .965-8.647 10.536 10.536 0 0 0-3.489-7.271 1.021 1.021 0 0 1-.376-.675 1.016 1.016 0 0 1 .212-.743 1.05 1.05 0 0 1 1.437-.164 12.524 12.524 0 0 1 4.227 8.647 28.631 28.631 0 0 1-1.006 9.325 3.596 3.596 0 0 0-.102 2.054c.225.34.527.622.882.822a8.551 8.551 0 0 0 6.156 1.15.992.992 0 0 1 .762.136.992.992 0 0 1 .428.645 1 1 0 0 1-.143.757 1.008 1.008 0 0 1-.636.434 9.718 9.718 0 0 1-2.094.267zM402.802 469.613a1.05 1.05 0 0 1-.575-.185 15.587 15.587 0 0 0-12.517-2.054.98.98 0 0 1-1.231-.719 1.02 1.02 0 0 1-.025-.393 1.023 1.023 0 0 1 .389-.667c.106-.08.226-.139.354-.172a17.578 17.578 0 0 1 14.18 2.403 1.03 1.03 0 0 1 .393 1.144 1.023 1.023 0 0 1-.968.725v-.082zM367.035 476.473a.968.968 0 0 1-.513-.144 1.002 1.002 0 0 1-.537-1.013c.016-.135.059-.266.127-.384a8.622 8.622 0 0 1 5.437-4.005 8.504 8.504 0 0 1 6.669 1.171 1.008 1.008 0 1 1-1.108 1.684 6.576 6.576 0 0 0-7.485.22 6.58 6.58 0 0 0-1.769 1.957 1.009 1.009 0 0 1-.821.514zM394.388 478.651c.534 1.499 1.662 2.485 2.504 2.177.841-.308 1.128-1.767.595-3.266-.534-1.499-1.642-2.485-2.483-2.198-.841.288-1.129 1.767-.616 3.287zM376.618 483.643c.533 1.541 1.662 2.527 2.524 2.239.862-.288 1.149-1.808.615-3.327-.533-1.52-1.662-2.527-2.544-2.239-.883.287-1.129 1.807-.595 3.327z"/><path fill="#212527" d="M397.22 524.233c-5.458 0-12.476-2.876-20.643-18.486-8.782-16.72-14.364-43.792-14.364-44.079a1.029 1.029 0 0 1 .801-1.191.996.996 0 0 1 .762.15 1.012 1.012 0 0 1 .428.651c0 .267 5.54 27.071 14.179 43.524 8.639 16.452 15.472 17.808 20.52 17.274 5.048-.534 19.699-9.818 23.701-17.952l3.324-19.534a.995.995 0 0 1 .413-.654 1.006 1.006 0 0 1 .756-.167.986.986 0 0 1 .821 1.171l-3.344 19.677a.705.705 0 0 1 0 .267c-4.104 8.442-19.433 18.486-25.384 19.205-.653.084-1.311.132-1.97.144z"/><path fill="#212527" d="M426.317 513.65a1.008 1.008 0 0 1-1.005-.924 120.421 120.421 0 0 1 .821-28.53c.021-.135.069-.264.141-.38a1.03 1.03 0 0 1 .644-.467 1.042 1.042 0 0 1 .785.125 1.057 1.057 0 0 1 .466.645c.032.133.037.271.016.406a117.166 117.166 0 0 0-.821 28.016 1.009 1.009 0 0 1-.903 1.109h-.144z"/><path fill="#212527" d="M412.774 545.101l-5.623-11.728.698-.514c7.654-5.587 18.14-20.827 18.242-20.992l.554-.801 10.63 6.738-.308.78c-6.423 16.843-22.572 25.634-23.208 26.004l-.985.513zm-3.119-11.112l4.001 8.216c3.427-2.054 15.595-10.27 21.054-23.641l-7.572-4.807c-2.237 3.245-10.609 14.871-17.483 20.232z"/><path fill="#212527" d="M403.848 547.728l-1.026-.596c-.534-.308-13.215-7.846-17.688-19.348v-.226l.636-9.326 2.052.144-.616 8.873c3.571 8.935 12.702 15.508 15.739 17.501l4.104-10.476c-2.052-.862-6.833-3.512-12.435-10.804l1.621-1.253c6.854 8.956 12.312 10.476 12.312 10.476l1.108.308-5.807 14.727zM419.69 471.198c-.554 1.828-3.489 1.581-5.233 2.362 0-4.354 0-8.421-2.914-11.975-1.703-2.054-6.751-.821-9.111-2.526-2.359-1.705-1.415-4.396-2.811-5.731-2.052-1.89-9.747-.842-12.045 0a39.311 39.311 0 0 0-8.352 4.889c-6.463 4.108-16.847 7.291-24.275 4.108-9.152-3.985-8.721-18.856 1.067-21.65 6.013-1.725 13.379-.677 18.92-3.882 6.812-3.943 33.653-25.736 49.638-7.106a39.038 39.038 0 0 1 8.97 18.516 39.068 39.068 0 0 1-1.686 20.51s-5.356-19.246-12.168 2.485z"/><path fill="#fff" d="M354.046 461.461a1.023 1.023 0 0 1-1.026-1.027 1.028 1.028 0 0 1 1.026-1.027c7.243-.452 13.522-4.93 19.596-9.264 2.052-1.458 4.104-2.978 6.32-4.334a60.028 60.028 0 0 1 12.312-5.936 32.015 32.015 0 0 1 10.691-2.054 22.994 22.994 0 0 1 20.705 13.865.996.996 0 0 1 .013.78 1.003 1.003 0 0 1-.547.555 1.044 1.044 0 0 1-1.333-.555 20.971 20.971 0 0 0-7.526-9.077 20.935 20.935 0 0 0-11.23-3.575c-3.455.07-6.868.766-10.075 2.054a58.533 58.533 0 0 0-11.922 5.751c-2.052 1.314-4.104 2.814-6.156 4.252-6.32 4.498-12.825 9.161-20.664 9.654l-.184-.062z"/><path fill="#fff" d="M364.327 447.723a13.51 13.51 0 0 1-3.489-.431 1.024 1.024 0 0 1-.718-1.253 1.014 1.014 0 0 1 .839-.744c.131-.017.264-.009.392.025 5.623 1.5 11.574-1.746 16.827-4.621 7.12-3.882 15.431-7.826 24.234-8.216 9.665-.432 18.468 3.902 22.428 10.988a1.05 1.05 0 0 1-.39 1.397 1.021 1.021 0 0 1-1.374-.39c-3.591-6.45-11.656-10.27-20.52-9.962-8.393.37-16.416 4.108-23.188 7.887-4.761 2.547-9.85 5.32-15.041 5.32z"/></svg>
